Libre Franklin-Bold.ufo
<glyph name="exclam" format="1">
  <advance width="277"/>
  <unicode hex="0021"/>
  <outline>
    <contour>
      <point x="241" y="190"/>
      <point x="235" y="197"/>
      <point x="223" y="197" type="curve" smooth="yes"/>
      <point x="50" y="197" type="line" smooth="yes"/>
      <point x="39" y="197"/>
      <point x="31" y="190"/>
      <point x="31" y="175" type="curve" smooth="yes"/>
      <point x="31" y="25" type="line" smooth="yes"/>
      <point x="31" y="8"/>
      <point x="38" y="0"/>
      <point x="58" y="0" type="curve" smooth="yes"/>
      <point x="208" y="0" type="line" smooth="yes"/>
      <point x="232" y="0"/>
      <point x="241" y="8"/>
      <point x="241" y="29" type="curve" smooth="yes"/>
      <point x="241" y="177" type="line" smooth="yes"/>
    </contour>
    <contour>
      <point x="251" y="734"/>
      <point x="243" y="742"/>
      <point x="232" y="742" type="curve" smooth="yes"/>
      <point x="43" y="742" type="line" smooth="yes"/>
      <point x="31" y="742"/>
      <point x="22" y="734"/>
      <point x="24" y="719" type="curve" smooth="yes"/>
      <point x="74" y="291" type="line" smooth="yes"/>
      <point x="76" y="274"/>
      <point x="80" y="266"/>
      <point x="100" y="266" type="curve" smooth="yes"/>
      <point x="169" y="266" type="line" smooth="yes"/>
      <point x="192" y="266"/>
      <point x="200" y="274"/>
      <point x="202" y="294" type="curve" smooth="yes"/>
      <point x="250" y="721" type="line" smooth="yes"/>
    </contour>
  </outline>
</glyph>
<glyph name="quotesingle" format="1">
  <advance width="253"/>
  <unicode hex="0027"/>
  <outline>
    <contour>
      <point x="223" y="735"/>
      <point x="215" y="742"/>
      <point x="203" y="742" type="curve" smooth="yes"/>
      <point x="58" y="742" type="line" smooth="yes"/>
      <point x="47" y="742"/>
      <point x="37" y="735"/>
      <point x="39" y="720" type="curve" smooth="yes"/>
      <point x="79" y="436" type="line" smooth="yes"/>
      <point x="81" y="419"/>
      <point x="86" y="411"/>
      <point x="106" y="411" type="curve" smooth="yes"/>
      <point x="148" y="411" type="line" smooth="yes"/>
      <point x="172" y="411"/>
      <point x="178" y="419"/>
      <point x="181" y="440" type="curve" smooth="yes"/>
      <point x="221" y="722" type="line" smooth="yes"/>
    </contour>
  </outline>
</glyph>
<glyph name="comma" format="1">
  <advance width="279"/>
  <unicode hex="002C"/>
  <outline>
    <contour>
      <point x="78" y="-165" type="line" smooth="yes"/>
      <point x="93" y="-165"/>
      <point x="113" y="-157"/>
      <point x="124" y="-142" type="curve" smooth="yes"/>
      <point x="238" y="17" type="line" smooth="yes"/>
      <point x="241" y="22"/>
      <point x="242" y="25"/>
      <point x="242" y="32" type="curve" smooth="yes"/>
      <point x="242" y="178" type="line" smooth="yes"/>
      <point x="242" y="191"/>
      <point x="236" y="198"/>
      <point x="224" y="198" type="curve" smooth="yes"/>
      <point x="51" y="198" type="line" smooth="yes"/>
      <point x="40" y="198"/>
      <point x="32" y="191"/>
      <point x="32" y="176" type="curve" smooth="yes"/>
      <point x="32" y="25" type="line" smooth="yes"/>
      <point x="32" y="8"/>
      <point x="39" y="0"/>
      <point x="59" y="0" type="curve" smooth="yes"/>
      <point x="81" y="0" type="line" smooth="yes"/>
      <point x="97" y="0"/>
      <point x="99" y="-12"/>
      <point x="90" y="-32" type="curve" smooth="yes"/>
      <point x="40" y="-140" type="line" smooth="yes"/>
      <point x="35" y="-152"/>
      <point x="43" y="-165"/>
      <point x="56" y="-165" type="curve" smooth="yes"/>
    </contour>
  </outline>
</glyph>
<glyph name="hyphen" format="1">
  <advance width="380"/>
  <unicode hex="002D"/>
  <outline>
    <contour>
      <point x="339" y="325"/>
      <point x="332" y="333"/>
      <point x="321" y="333" type="curve" smooth="yes"/>
      <point x="60" y="333" type="line" smooth="yes"/>
      <point x="48" y="333"/>
      <point x="41" y="325"/>
      <point x="41" y="310" type="curve" smooth="yes"/>
      <point x="41" y="218" type="line" smooth="yes"/>
      <point x="41" y="201"/>
      <point x="47" y="193"/>
      <point x="67" y="193" type="curve" smooth="yes"/>
      <point x="306" y="193" type="line" smooth="yes"/>
      <point x="329" y="193"/>
      <point x="339" y="201"/>
      <point x="339" y="221" type="curve" smooth="yes"/>
      <point x="339" y="313" type="line" smooth="yes"/>
    </contour>
  </outline>
</glyph>
<glyph name="period" format="1">
  <advance width="279"/>
  <unicode hex="002E"/>
  <outline>
    <contour>
      <point x="242" y="194"/>
      <point x="236" y="201"/>
      <point x="224" y="201" type="curve" smooth="yes"/>
      <point x="51" y="201" type="line" smooth="yes"/>
      <point x="40" y="201"/>
      <point x="32" y="194"/>
      <point x="32" y="179" type="curve" smooth="yes"/>
      <point x="32" y="25" type="line" smooth="yes"/>
      <point x="32" y="8"/>
      <point x="39" y="0"/>
      <point x="59" y="0" type="curve" smooth="yes"/>
      <point x="209" y="0" type="line" smooth="yes"/>
      <point x="233" y="0"/>
      <point x="242" y="8"/>
      <point x="242" y="29" type="curve" smooth="yes"/>
      <point x="242" y="181" type="line" smooth="yes"/>
    </contour>
  </outline>
</glyph>
<glyph name="zero" format="1">
  <advance width="722"/>
  <unicode hex="0030"/>
  <outline>
    <contour>
      <point x="170" y="753"/>
      <point x="31" y="590"/>
      <point x="31" y="369" type="curve" smooth="yes"/>
      <point x="31" y="149"/>
      <point x="167" y="-8"/>
      <point x="362" y="-8" type="curve" smooth="yes"/>
      <point x="556" y="-8"/>
      <point x="691" y="149"/>
      <point x="691" y="369" type="curve" smooth="yes"/>
      <point x="691" y="590"/>
      <point x="553" y="753"/>
      <point x="362" y="753" type="curve" smooth="yes"/>
    </contour>
    <contour>
      <point x="288" y="148"/>
      <point x="261" y="207"/>
      <point x="261" y="368" type="curve" smooth="yes"/>
      <point x="261" y="534"/>
      <point x="289" y="599"/>
      <point x="361" y="599" type="curve" smooth="yes"/>
      <point x="433" y="599"/>
      <point x="461" y="535"/>
      <point x="461" y="368" type="curve" smooth="yes"/>
      <point x="461" y="206"/>
      <point x="435" y="148"/>
      <point x="361" y="148" type="curve" smooth="yes"/>
    </contour>
  </outline>
</glyph>
<glyph name="one" format="1">
  <advance width="537"/>
  <unicode hex="0031"/>
  <outline>
    <contour>
      <point x="396" y="164" type="line" smooth="yes"/>
      <point x="389" y="164"/>
      <point x="385" y="168"/>
      <point x="385" y="176" type="curve" smooth="yes"/>
      <point x="385" y="721" type="line" smooth="yes"/>
      <point x="385" y="734"/>
      <point x="378" y="742"/>
      <point x="367" y="742" type="curve" smooth="yes"/>
      <point x="282" y="742" type="line" smooth="yes"/>
      <point x="263" y="742"/>
      <point x="253" y="738"/>
      <point x="232" y="728" type="curve" smooth="yes"/>
      <point x="52" y="638" type="line" smooth="yes"/>
      <point x="38" y="631"/>
      <point x="34" y="626"/>
      <point x="34" y="609" type="curve" smooth="yes"/>
      <point x="34" y="525" type="line" smooth="yes"/>
      <point x="34" y="505"/>
      <point x="43" y="498"/>
      <point x="61" y="502" type="curve" smooth="yes"/>
      <point x="141" y="520" type="line" smooth="yes"/>
      <point x="154" y="523"/>
      <point x="158" y="519"/>
      <point x="158" y="507" type="curve" smooth="yes"/>
      <point x="158" y="173" type="line" smooth="yes"/>
      <point x="158" y="167"/>
      <point x="152" y="164"/>
      <point x="146" y="164" type="curve" smooth="yes"/>
      <point x="57" y="164" type="line" smooth="yes"/>
      <point x="43" y="164"/>
      <point x="35" y="159"/>
      <point x="35" y="145" type="curve" smooth="yes"/>
      <point x="35" y="21" type="line" smooth="yes"/>
      <point x="35" y="8"/>
      <point x="42" y="0"/>
      <point x="59" y="0" type="curve" smooth="yes"/>
      <point x="484" y="0" type="line" smooth="yes"/>
      <point x="501" y="0"/>
      <point x="509" y="10"/>
      <point x="509" y="22" type="curve" smooth="yes"/>
      <point x="509" y="145" type="line" smooth="yes"/>
      <point x="509" y="159"/>
      <point x="500" y="164"/>
      <point x="486" y="164" type="curve" smooth="yes"/>
    </contour>
  </outline>
</glyph>
<glyph name="six" format="1">
  <advance width="701"/>
  <unicode hex="0036"/>
  <outline>
    <contour>
      <point x="172" y="750"/>
      <point x="31" y="601"/>
      <point x="31" y="352" type="curve" smooth="yes"/>
      <point x="31" y="136"/>
      <point x="159" y="-8"/>
      <point x="364" y="-8" type="curve" smooth="yes"/>
      <point x="539" y="-8"/>
      <point x="674" y="97"/>
      <point x="674" y="240" type="curve" smooth="yes"/>
      <point x="674" y="370"/>
      <point x="564" y="461"/>
      <point x="409" y="461" type="curve" smooth="yes"/>
      <point x="353" y="461"/>
      <point x="321" y="449"/>
      <point x="281" y="433" type="curve" smooth="yes"/>
      <point x="260" y="425"/>
      <point x="256" y="428"/>
      <point x="256" y="453" type="curve" smooth="yes"/>
      <point x="256" y="540"/>
      <point x="303" y="596"/>
      <point x="373" y="596" type="curve" smooth="yes"/>
      <point x="420" y="596"/>
      <point x="439" y="570"/>
      <point x="461" y="534" type="curve" smooth="yes"/>
      <point x="464" y="528"/>
      <point x="470" y="517"/>
      <point x="483" y="521" type="curve" smooth="yes"/>
      <point x="626" y="563" type="line" smooth="yes"/>
      <point x="640" y="567"/>
      <point x="640" y="579"/>
      <point x="638" y="590" type="curve" smooth="yes"/>
      <point x="626" y="653"/>
      <point x="525" y="750"/>
      <point x="373" y="750" type="curve" smooth="yes"/>
    </contour>
    <contour>
      <point x="404" y="317"/>
      <point x="450" y="289"/>
      <point x="450" y="231" type="curve" smooth="yes"/>
      <point x="450" y="175"/>
      <point x="408" y="136"/>
      <point x="356" y="136" type="curve" smooth="yes"/>
      <point x="298" y="136"/>
      <point x="258" y="183"/>
      <point x="258" y="263" type="curve" smooth="yes"/>
      <point x="258" y="281"/>
      <point x="260" y="285"/>
      <point x="268" y="291" type="curve" smooth="yes"/>
      <point x="284" y="303"/>
      <point x="324" y="317"/>
      <point x="357" y="317" type="curve" smooth="yes"/>
    </contour>
  </outline>
</glyph>
<glyph name="colon" format="1">
  <advance width="279"/>
  <unicode hex="003A"/>
  <outline>
    <contour>
      <point x="242" y="518"/>
      <point x="236" y="525"/>
      <point x="224" y="525" type="curve" smooth="yes"/>
      <point x="51" y="525" type="line" smooth="yes"/>
      <point x="40" y="525"/>
      <point x="32" y="518"/>
      <point x="32" y="503" type="curve" smooth="yes"/>
      <point x="32" y="354" type="line" smooth="yes"/>
      <point x="32" y="337"/>
      <point x="39" y="328"/>
      <point x="59" y="328" type="curve" smooth="yes"/>
      <point x="209" y="328" type="line" smooth="yes"/>
      <point x="233" y="328"/>
      <point x="242" y="337"/>
      <point x="242" y="357" type="curve" smooth="yes"/>
      <point x="242" y="505" type="line" smooth="yes"/>
    </contour>
    <contour>
      <point x="242" y="193"/>
      <point x="236" y="200"/>
      <point x="224" y="200" type="curve" smooth="yes"/>
      <point x="51" y="200" type="line" smooth="yes"/>
      <point x="40" y="200"/>
      <point x="32" y="193"/>
      <point x="32" y="178" type="curve" smooth="yes"/>
      <point x="32" y="29" type="line" smooth="yes"/>
      <point x="32" y="12"/>
      <point x="39" y="3"/>
      <point x="59" y="3" type="curve" smooth="yes"/>
      <point x="209" y="3" type="line" smooth="yes"/>
      <point x="233" y="3"/>
      <point x="242" y="12"/>
      <point x="242" y="32" type="curve" smooth="yes"/>
      <point x="242" y="180" type="line" smooth="yes"/>
    </contour>
  </outline>
</glyph>
<glyph name="semicolon" format="1">
  <advance width="279"/>
  <unicode hex="003B"/>
  <outline>
    <contour>
      <point x="78" y="-169" type="line" smooth="yes"/>
      <point x="93" y="-169"/>
      <point x="113" y="-161"/>
      <point x="124" y="-146" type="curve" smooth="yes"/>
      <point x="238" y="17" type="line" smooth="yes"/>
      <point x="241" y="22"/>
      <point x="242" y="25"/>
      <point x="242" y="32" type="curve" smooth="yes"/>
      <point x="242" y="178" type="line" smooth="yes"/>
      <point x="242" y="191"/>
      <point x="236" y="198"/>
      <point x="224" y="198" type="curve" smooth="yes"/>
      <point x="51" y="198" type="line" smooth="yes"/>
      <point x="40" y="198"/>
      <point x="32" y="191"/>
      <point x="32" y="176" type="curve" smooth="yes"/>
      <point x="32" y="25" type="line" smooth="yes"/>
      <point x="32" y="8"/>
      <point x="39" y="0"/>
      <point x="59" y="0" type="curve" smooth="yes"/>
      <point x="81" y="0" type="line" smooth="yes"/>
      <point x="97" y="0"/>
      <point x="98" y="-12"/>
      <point x="90" y="-32" type="curve" smooth="yes"/>
      <point x="40" y="-144" type="line" smooth="yes"/>
      <point x="35" y="-156"/>
      <point x="43" y="-169"/>
      <point x="56" y="-169" type="curve" smooth="yes"/>
    </contour>
    <contour>
      <point x="209" y="321" type="line" smooth="yes"/>
      <point x="233" y="321"/>
      <point x="242" y="329"/>
      <point x="242" y="350" type="curve" smooth="yes"/>
      <point x="242" y="502" type="line" smooth="yes"/>
      <point x="242" y="515"/>
      <point x="236" y="522"/>
      <point x="224" y="522" type="curve" smooth="yes"/>
      <point x="51" y="522" type="line" smooth="yes"/>
      <point x="40" y="522"/>
      <point x="32" y="515"/>
      <point x="32" y="500" type="curve" smooth="yes"/>
      <point x="32" y="346" type="line" smooth="yes"/>
      <point x="32" y="329"/>
      <point x="39" y="321"/>
      <point x="59" y="321" type="curve" smooth="yes"/>
    </contour>
  </outline>
</glyph>
<glyph name="greater" format="1">
  <advance width="599"/>
  <unicode hex="003E"/>
  <outline>
    <contour>
      <point x="55" y="114" type="line" smooth="yes"/>
      <point x="55" y="88"/>
      <point x="72" y="81"/>
      <point x="93" y="89" type="curve" smooth="yes"/>
      <point x="536" y="259" type="line" smooth="yes"/>
      <point x="552" y="265"/>
      <point x="564" y="275"/>
      <point x="564" y="293" type="curve" smooth="yes"/>
      <point x="564" y="404" type="line" smooth="yes"/>
      <point x="564" y="424"/>
      <point x="553" y="434"/>
      <point x="536" y="440" type="curve" smooth="yes"/>
      <point x="92" y="611" type="line" smooth="yes"/>
      <point x="72" y="619"/>
      <point x="55" y="605"/>
      <point x="55" y="586" type="curve" smooth="yes"/>
      <point x="55" y="490" type="line" smooth="yes"/>
      <point x="55" y="468"/>
      <point x="69" y="455"/>
      <point x="100" y="443" type="curve" smooth="yes"/>
      <point x="353" y="348" type="line"/>
      <point x="100" y="256" type="line" smooth="yes"/>
      <point x="68" y="244"/>
      <point x="55" y="234"/>
      <point x="55" y="210" type="curve" smooth="yes"/>
    </contour>
  </outline>
</glyph>
<glyph name="A" format="1">
  <advance width="799"/>
  <unicode hex="0041"/>
  <outline>
    <contour>
      <point x="195" y="0" type="line" smooth="yes"/>
      <point x="209" y="0"/>
      <point x="216" y="7"/>
      <point x="219" y="15" type="curve" smooth="yes"/>
      <point x="260" y="133" type="line" smooth="yes"/>
      <point x="262" y="140"/>
      <point x="267" y="144"/>
      <point x="275" y="144" type="curve" smooth="yes"/>
      <point x="487" y="144" type="line" smooth="yes"/>
      <point x="497" y="144"/>
      <point x="499" y="139"/>
      <point x="502" y="132" type="curve" smooth="yes"/>
      <point x="541" y="17" type="line" smooth="yes"/>
      <point x="545" y="4"/>
      <point x="553" y="0"/>
      <point x="563" y="0" type="curve" smooth="yes"/>
      <point x="759" y="0" type="line" smooth="yes"/>
      <point x="774" y="0"/>
      <point x="778" y="20"/>
      <point x="773" y="34" type="curve" smooth="yes"/>
      <point x="533" y="715" type="line" smooth="yes"/>
      <point x="527" y="731"/>
      <point x="514" y="742"/>
      <point x="497" y="742" type="curve" smooth="yes"/>
      <point x="300" y="742" type="line" smooth="yes"/>
      <point x="282" y="742"/>
      <point x="276" y="735"/>
      <point x="270" y="719" type="curve" smooth="yes"/>
      <point x="28" y="37" type="line" smooth="yes"/>
      <point x="20" y="15"/>
      <point x="28" y="0"/>
      <point x="43" y="0" type="curve" smooth="yes"/>
    </contour>
    <contour>
      <point x="311" y="314"/>
      <point x="308" y="322"/>
      <point x="313" y="335" type="curve" smooth="yes"/>
      <point x="374" y="505" type="line" smooth="yes"/>
      <point x="376" y="512"/>
      <point x="383" y="512"/>
      <point x="386" y="505" type="curve" smooth="yes"/>
      <point x="446" y="334" type="line" smooth="yes"/>
      <point x="450" y="321"/>
      <point x="448" y="314"/>
      <point x="437" y="314" type="curve" smooth="yes"/>
      <point x="323" y="314" type="line" smooth="yes"/>
    </contour>
    <contour>
      <point x="746" y="9" type="move" name="ogonek"/>
    </contour>
    <contour>
      <point x="400" y="0" type="move" name="bottom"/>
    </contour>
    <contour>
      <point x="395" y="742" type="move" name="top"/>
    </contour>
  </outline>
</glyph>
<glyph name="C" format="1">
  <advance width="737"/>
  <unicode hex="0043"/>
  <outline>
    <contour>
      <point x="168" y="752"/>
      <point x="30" y="606"/>
      <point x="30" y="381" type="curve" smooth="yes"/>
      <point x="30" y="155"/>
      <point x="168" y="-10"/>
      <point x="383" y="-10" type="curve" smooth="yes"/>
      <point x="614" y="-10"/>
      <point x="700" y="167"/>
      <point x="710" y="221" type="curve" smooth="yes"/>
      <point x="714" y="247"/>
      <point x="703" y="252"/>
      <point x="696" y="254" type="curve" smooth="yes"/>
      <point x="571" y="279" type="line" smooth="yes"/>
      <point x="555" y="282"/>
      <point x="546" y="279"/>
      <point x="543" y="271" type="curve" smooth="yes"/>
      <point x="508" y="183"/>
      <point x="457" y="154"/>
      <point x="390" y="154" type="curve" smooth="yes"/>
      <point x="309" y="154"/>
      <point x="268" y="212"/>
      <point x="268" y="377" type="curve" smooth="yes"/>
      <point x="268" y="540"/>
      <point x="316" y="598"/>
      <point x="391" y="598" type="curve" smooth="yes"/>
      <point x="457" y="598"/>
      <point x="483" y="553"/>
      <point x="494" y="495" type="curve" smooth="yes"/>
      <point x="497" y="481"/>
      <point x="498" y="476"/>
      <point x="513" y="476" type="curve"/>
      <point x="688" y="487" type="line"/>
      <point x="703" y="489"/>
      <point x="707" y="494"/>
      <point x="701" y="522" type="curve" smooth="yes"/>
      <point x="675" y="655"/>
      <point x="554" y="752"/>
      <point x="385" y="752" type="curve" smooth="yes"/>
    </contour>
    <contour>
      <point x="385" y="742" type="move" name="top"/>
    </contour>
    <contour>
      <point x="383" y="0" type="move" name="bottom"/>
    </contour>
  </outline>
</glyph>
<glyph name="D" format="1">
  <advance width="771"/>
  <unicode hex="0044"/>
  <outline>
    <contour>
      <point x="59" y="742"/>
      <point x="52" y="736"/>
      <point x="52" y="717" type="curve" smooth="yes"/>
      <point x="52" y="30" type="line" smooth="yes"/>
      <point x="52" y="8"/>
      <point x="61" y="0"/>
      <point x="81" y="0" type="curve" smooth="yes"/>
      <point x="344" y="0" type="line" smooth="yes"/>
      <point x="607" y="0"/>
      <point x="740" y="157"/>
      <point x="740" y="372" type="curve" smooth="yes"/>
      <point x="740" y="583"/>
      <point x="612" y="732"/>
      <point x="345" y="741" type="curve" smooth="yes"/>
      <point x="287" y="743"/>
      <point x="146" y="742"/>
      <point x="79" y="742" type="curve" smooth="yes"/>
    </contour>
    <contour>
      <point x="313" y="585" type="line" smooth="yes"/>
      <point x="443" y="585"/>
      <point x="502" y="513"/>
      <point x="502" y="374" type="curve" smooth="yes"/>
      <point x="502" y="215"/>
      <point x="425" y="157"/>
      <point x="300" y="157" type="curve" smooth="yes"/>
      <point x="293" y="157" type="line" smooth="yes"/>
      <point x="282" y="157"/>
      <point x="279" y="160"/>
      <point x="279" y="172" type="curve" smooth="yes"/>
      <point x="279" y="571" type="line" smooth="yes"/>
      <point x="279" y="582"/>
      <point x="282" y="585"/>
      <point x="289" y="585" type="curve"/>
    </contour>
    <contour>
      <point x="390" y="371" type="move" name="center"/>
    </contour>
    <contour>
      <point x="266" y="0" type="move" name="bottom"/>
    </contour>
    <contour>
      <point x="390" y="742" type="move" name="top"/>
    </contour>
  </outline>
</glyph>
<glyph name="H" format="1">
  <advance width="762"/>
  <unicode hex="0048"/>
  <outline>
    <contour>
      <point x="477" y="297"/>
      <point x="483" y="290"/>
      <point x="483" y="282" type="curve" smooth="yes"/>
      <point x="483" y="29" type="line" smooth="yes"/>
      <point x="483" y="8"/>
      <point x="493" y="0"/>
      <point x="516" y="0" type="curve" smooth="yes"/>
      <point x="683" y="0" type="line" smooth="yes"/>
      <point x="704" y="0"/>
      <point x="710" y="8"/>
      <point x="710" y="25" type="curve" smooth="yes"/>
      <point x="710" y="719" type="line" smooth="yes"/>
      <point x="710" y="734"/>
      <point x="702" y="742"/>
      <point x="691" y="742" type="curve" smooth="yes"/>
      <point x="501" y="742" type="line" smooth="yes"/>
      <point x="490" y="742"/>
      <point x="483" y="734"/>
      <point x="483" y="721" type="curve" smooth="yes"/>
      <point x="483" y="489" type="line" smooth="yes"/>
      <point x="483" y="476"/>
      <point x="476" y="469"/>
      <point x="465" y="469" type="curve" smooth="yes"/>
      <point x="297" y="469" type="line" smooth="yes"/>
      <point x="286" y="469"/>
      <point x="279" y="476"/>
      <point x="279" y="489" type="curve" smooth="yes"/>
      <point x="279" y="721" type="line" smooth="yes"/>
      <point x="279" y="734"/>
      <point x="272" y="742"/>
      <point x="261" y="742" type="curve" smooth="yes"/>
      <point x="71" y="742" type="line" smooth="yes"/>
      <point x="60" y="742"/>
      <point x="52" y="734"/>
      <point x="52" y="719" type="curve" smooth="yes"/>
      <point x="52" y="25" type="line" smooth="yes"/>
      <point x="52" y="8"/>
      <point x="58" y="0"/>
      <point x="79" y="0" type="curve" smooth="yes"/>
      <point x="246" y="0" type="line" smooth="yes"/>
      <point x="269" y="0"/>
      <point x="279" y="8"/>
      <point x="279" y="29" type="curve" smooth="yes"/>
      <point x="279" y="282" type="line" smooth="yes"/>
      <point x="279" y="290"/>
      <point x="285" y="297"/>
      <point x="295" y="297" type="curve" smooth="yes"/>
      <point x="467" y="297" type="line" smooth="yes"/>
    </contour>
    <contour>
      <point x="378" y="0" type="move" name="bottom"/>
    </contour>
    <contour>
      <point x="380" y="742" type="move" name="top"/>
    </contour>
    <contour>
      <point x="20" y="742" type="move" name="topleft"/>
    </contour>
    <contour>
      <point x="381" y="371" type="move" name="center"/>
    </contour>
  </outline>
</glyph>
<glyph name="I" format="1">
  <advance width="331"/>
  <unicode hex="0049"/>
  <outline>
    <contour>
      <point x="60" y="742"/>
      <point x="52" y="734"/>
      <point x="52" y="719" type="curve" smooth="yes"/>
      <point x="52" y="25" type="line" smooth="yes"/>
      <point x="52" y="8"/>
      <point x="58" y="0"/>
      <point x="79" y="0" type="curve" smooth="yes"/>
      <point x="246" y="0" type="line" smooth="yes"/>
      <point x="269" y="0"/>
      <point x="279" y="8"/>
      <point x="279" y="29" type="curve" smooth="yes"/>
      <point x="279" y="721" type="line" smooth="yes"/>
      <point x="279" y="734"/>
      <point x="273" y="742"/>
      <point x="261" y="742" type="curve" smooth="yes"/>
      <point x="71" y="742" type="line" smooth="yes"/>
    </contour>
    <contour>
      <point x="247" y="10" type="move" name="ogonek"/>
    </contour>
    <contour>
      <point x="165" y="0" type="move" name="bottom"/>
    </contour>
    <contour>
      <point x="166" y="742" type="move" name="top"/>
    </contour>
  </outline>
</glyph>
<glyph name="K" format="1">
  <advance width="772"/>
  <unicode hex="004B"/>
  <outline>
    <contour>
      <point x="527" y="480" type="line" smooth="yes"/>
      <point x="521" y="494"/>
      <point x="522" y="501"/>
      <point x="530" y="512" type="curve" smooth="yes"/>
      <point x="694" y="713" type="line" smooth="yes"/>
      <point x="707" y="728"/>
      <point x="695" y="742"/>
      <point x="673" y="742" type="curve" smooth="yes"/>
      <point x="521" y="742" type="line" smooth="yes"/>
      <point x="497" y="742"/>
      <point x="489" y="736"/>
      <point x="478" y="721" type="curve" smooth="yes"/>
      <point x="294" y="463" type="line"/>
      <point x="286" y="453"/>
      <point x="279" y="452"/>
      <point x="279" y="468" type="curve" smooth="yes"/>
      <point x="279" y="721" type="line" smooth="yes"/>
      <point x="279" y="734"/>
      <point x="273" y="742"/>
      <point x="261" y="742" type="curve" smooth="yes"/>
      <point x="71" y="742" type="line" smooth="yes"/>
      <point x="60" y="742"/>
      <point x="52" y="734"/>
      <point x="52" y="719" type="curve" smooth="yes"/>
      <point x="52" y="25" type="line" smooth="yes"/>
      <point x="52" y="8"/>
      <point x="58" y="0"/>
      <point x="79" y="0" type="curve" smooth="yes"/>
      <point x="246" y="0" type="line" smooth="yes"/>
      <point x="269" y="0"/>
      <point x="279" y="8"/>
      <point x="279" y="29" type="curve" smooth="yes"/>
      <point x="279" y="180" type="line" smooth="yes"/>
      <point x="279" y="190"/>
      <point x="280" y="196"/>
      <point x="285" y="202" type="curve" smooth="yes"/>
      <point x="356" y="293" type="line"/>
      <point x="366" y="306"/>
      <point x="372" y="308"/>
      <point x="378" y="298" type="curve" smooth="yes"/>
      <point x="500" y="20" type="line" smooth="yes"/>
      <point x="507" y="5"/>
      <point x="519" y="0"/>
      <point x="536" y="0" type="curve" smooth="yes"/>
      <point x="731" y="0" type="line" smooth="yes"/>
      <point x="751" y="0"/>
      <point x="753" y="15"/>
      <point x="745" y="31" type="curve" smooth="yes"/>
    </contour>
    <contour>
      <point x="371" y="742" type="move" name="top"/>
    </contour>
    <contour>
      <point x="371" y="0" type="move" name="bottom"/>
    </contour>
  </outline>
</glyph>
<glyph name="O" format="1">
  <advance width="780"/>
  <unicode hex="004F"/>
  <outline>
    <contour>
      <point x="609" y="-10"/>
      <point x="749" y="139"/>
      <point x="749" y="369" type="curve" smooth="yes"/>
      <point x="749" y="601"/>
      <point x="606" y="752"/>
      <point x="391" y="752" type="curve" smooth="yes"/>
      <point x="174" y="752"/>
      <point x="31" y="601"/>
      <point x="31" y="369" type="curve" smooth="yes"/>
      <point x="31" y="138"/>
      <point x="170" y="-10"/>
      <point x="391" y="-10" type="curve" smooth="yes"/>
    </contour>
    <contour>
      <point x="302" y="146"/>
      <point x="269" y="206"/>
      <point x="269" y="366" type="curve" smooth="yes"/>
      <point x="269" y="531"/>
      <point x="304" y="598"/>
      <point x="391" y="598" type="curve" smooth="yes"/>
      <point x="476" y="598"/>
      <point x="511" y="531"/>
      <point x="511" y="366" type="curve" smooth="yes"/>
      <point x="511" y="206"/>
      <point x="478" y="146"/>
      <point x="391" y="146" type="curve" smooth="yes"/>
    </contour>
    <contour>
      <point x="392" y="0" type="move" name="bottom"/>
    </contour>
    <contour>
      <point x="483" y="10" type="move" name="ogonek"/>
    </contour>
    <contour>
      <point x="390" y="742" type="move" name="top"/>
    </contour>
    <contour>
      <point x="582" y="742" type="move" name="topright"/>
    </contour>
    <contour>
      <point x="20" y="742" type="move" name="topleft"/>
    </contour>
    <contour>
      <point x="390" y="371" type="move" name="center"/>
    </contour>
  </outline>
</glyph>
<glyph name="R" format="1">
  <advance width="739"/>
  <unicode hex="0052"/>
  <outline>
    <contour>
      <point x="575" y="312" type="line" smooth="yes"/>
      <point x="572" y="320"/>
      <point x="572" y="328"/>
      <point x="579" y="331" type="curve" smooth="yes"/>
      <point x="655" y="360"/>
      <point x="710" y="436"/>
      <point x="710" y="530" type="curve" smooth="yes"/>
      <point x="710" y="664"/>
      <point x="598" y="742"/>
      <point x="405" y="742" type="curve" smooth="yes"/>
      <point x="71" y="742" type="line" smooth="yes"/>
      <point x="59" y="742"/>
      <point x="52" y="734"/>
      <point x="52" y="719" type="curve" smooth="yes"/>
      <point x="52" y="25" type="line" smooth="yes"/>
      <point x="52" y="8"/>
      <point x="58" y="0"/>
      <point x="78" y="0" type="curve" smooth="yes"/>
      <point x="246" y="0" type="line" smooth="yes"/>
      <point x="269" y="0"/>
      <point x="279" y="8"/>
      <point x="279" y="29" type="curve" smooth="yes"/>
      <point x="279" y="284" type="line" smooth="yes"/>
      <point x="279" y="287"/>
      <point x="282" y="295"/>
      <point x="291" y="295" type="curve" smooth="yes"/>
      <point x="337" y="295" type="line" smooth="yes"/>
      <point x="356" y="295"/>
      <point x="364" y="290"/>
      <point x="368" y="279" type="curve" smooth="yes"/>
      <point x="462" y="21" type="line" smooth="yes"/>
      <point x="466" y="7"/>
      <point x="475" y="0"/>
      <point x="489" y="0" type="curve" smooth="yes"/>
      <point x="683" y="0" type="line" smooth="yes"/>
      <point x="699" y="0"/>
      <point x="708" y="15"/>
      <point x="701" y="32" type="curve" smooth="yes"/>
    </contour>
    <contour>
      <point x="296" y="444" type="line" smooth="yes"/>
      <point x="283" y="444"/>
      <point x="279" y="450"/>
      <point x="279" y="465" type="curve" smooth="yes"/>
      <point x="279" y="574" type="line" smooth="yes"/>
      <point x="279" y="589"/>
      <point x="285" y="594"/>
      <point x="302" y="594" type="curve" smooth="yes"/>
      <point x="390" y="594" type="line" smooth="yes"/>
      <point x="435" y="594"/>
      <point x="475" y="567"/>
      <point x="475" y="516" type="curve" smooth="yes"/>
      <point x="475" y="473"/>
      <point x="447" y="444"/>
      <point x="396" y="444" type="curve" smooth="yes"/>
    </contour>
    <contour>
      <point x="358" y="742" type="move" name="top"/>
    </contour>
    <contour>
      <point x="368" y="0" type="move" name="bottom"/>
    </contour>
  </outline>
</glyph>
<glyph name="T" format="1">
  <advance width="704"/>
  <unicode hex="0054"/>
  <outline>
    <contour>
      <point x="28" y="586"/>
      <point x="37" y="581"/>
      <point x="51" y="581" type="curve" smooth="yes"/>
      <point x="227" y="581" type="line" smooth="yes"/>
      <point x="235" y="581"/>
      <point x="238" y="577"/>
      <point x="238" y="567" type="curve" smooth="yes"/>
      <point x="238" y="20" type="line" smooth="yes"/>
      <point x="238" y="7"/>
      <point x="245" y="0"/>
      <point x="256" y="0" type="curve" smooth="yes"/>
      <point x="446" y="0" type="line" smooth="yes"/>
      <point x="457" y="0"/>
      <point x="465" y="7"/>
      <point x="465" y="22" type="curve" smooth="yes"/>
      <point x="465" y="571" type="line" smooth="yes"/>
      <point x="465" y="578"/>
      <point x="469" y="581"/>
      <point x="477" y="581" type="curve" smooth="yes"/>
      <point x="654" y="581" type="line" smooth="yes"/>
      <point x="667" y="581"/>
      <point x="676" y="586"/>
      <point x="676" y="600" type="curve" smooth="yes"/>
      <point x="676" y="719" type="line" smooth="yes"/>
      <point x="676" y="732"/>
      <point x="668" y="742"/>
      <point x="651" y="742" type="curve" smooth="yes"/>
      <point x="53" y="742" type="line" smooth="yes"/>
      <point x="36" y="742"/>
      <point x="28" y="732"/>
      <point x="28" y="719" type="curve" smooth="yes"/>
      <point x="28" y="600" type="line" smooth="yes"/>
    </contour>
    <contour>
      <point x="352" y="742" type="move" name="top"/>
    </contour>
    <contour>
      <point x="352" y="0" type="move" name="bottom"/>
    </contour>
  </outline>
</glyph>
<glyph name="U" format="1">
  <advance width="728"/>
  <unicode hex="0055"/>
  <outline>
    <contour>
      <point x="684" y="721" type="line" smooth="yes"/>
      <point x="684" y="734"/>
      <point x="678" y="742"/>
      <point x="666" y="742" type="curve" smooth="yes"/>
      <point x="516" y="742" type="line" smooth="yes"/>
      <point x="504" y="742"/>
      <point x="497" y="734"/>
      <point x="497" y="719" type="curve" smooth="yes"/>
      <point x="497" y="292" type="line" smooth="yes"/>
      <point x="497" y="181"/>
      <point x="443" y="149"/>
      <point x="381" y="149" type="curve" smooth="yes"/>
      <point x="313" y="149"/>
      <point x="271" y="187"/>
      <point x="271" y="289" type="curve" smooth="yes"/>
      <point x="271" y="721" type="line" smooth="yes"/>
      <point x="271" y="734"/>
      <point x="265" y="742"/>
      <point x="253" y="742" type="curve" smooth="yes"/>
      <point x="63" y="742" type="line" smooth="yes"/>
      <point x="52" y="742"/>
      <point x="44" y="734"/>
      <point x="44" y="719" type="curve" smooth="yes"/>
      <point x="44" y="313" type="line" smooth="yes"/>
      <point x="44" y="104"/>
      <point x="125" y="-10"/>
      <point x="364" y="-10" type="curve" smooth="yes"/>
      <point x="555" y="-10"/>
      <point x="684" y="62"/>
      <point x="684" y="293" type="curve" smooth="yes"/>
    </contour>
    <contour>
      <point x="476" y="10" type="move" name="ogonek"/>
    </contour>
    <contour>
      <point x="381" y="742" type="move" name="top"/>
    </contour>
    <contour>
      <point x="708" y="742" type="move" name="topright"/>
    </contour>
    <contour>
      <point x="364" y="0" type="move" name="bottom"/>
    </contour>
  </outline>
</glyph>
<glyph name="V" format="1">
  <advance width="751"/>
  <unicode hex="0056"/>
  <outline>
    <contour>
      <point x="558" y="742" type="line" smooth="yes"/>
      <point x="546" y="742"/>
      <point x="535" y="734"/>
      <point x="532" y="721" type="curve" smooth="yes"/>
      <point x="407" y="283" type="line" smooth="yes"/>
      <point x="404" y="273"/>
      <point x="400" y="273"/>
      <point x="397" y="282" type="curve" smooth="yes"/>
      <point x="263" y="721" type="line" smooth="yes"/>
      <point x="259" y="734"/>
      <point x="250" y="742"/>
      <point x="238" y="742" type="curve" smooth="yes"/>
      <point x="45" y="742" type="line" smooth="yes"/>
      <point x="29" y="742"/>
      <point x="20" y="728"/>
      <point x="26" y="713" type="curve" smooth="yes"/>
      <point x="258" y="25" type="line" smooth="yes"/>
      <point x="263" y="8"/>
      <point x="275" y="0"/>
      <point x="295" y="0" type="curve" smooth="yes"/>
      <point x="457" y="0" type="line" smooth="yes"/>
      <point x="477" y="0"/>
      <point x="489" y="8"/>
      <point x="494" y="25" type="curve" smooth="yes"/>
      <point x="726" y="713" type="line" smooth="yes"/>
      <point x="731" y="728"/>
      <point x="723" y="742"/>
      <point x="707" y="742" type="curve" smooth="yes"/>
    </contour>
  </outline>
</glyph>
<glyph name="underscore" format="1">
  <advance width="562"/>
  <unicode hex="005F"/>
  <outline>
    <contour>
      <point x="522" y="-28"/>
      <point x="515" y="-20"/>
      <point x="504" y="-20" type="curve" smooth="yes"/>
      <point x="59" y="-20" type="line" smooth="yes"/>
      <point x="47" y="-20"/>
      <point x="40" y="-28"/>
      <point x="40" y="-43" type="curve" smooth="yes"/>
      <point x="40" y="-135" type="line" smooth="yes"/>
      <point x="40" y="-152"/>
      <point x="46" y="-160"/>
      <point x="66" y="-160" type="curve" smooth="yes"/>
      <point x="489" y="-160" type="line" smooth="yes"/>
      <point x="512" y="-160"/>
      <point x="522" y="-152"/>
      <point x="522" y="-132" type="curve" smooth="yes"/>
      <point x="522" y="-40" type="line" smooth="yes"/>
    </contour>
  </outline>
</glyph>
<glyph name="c" format="1">
  <advance width="556"/>
  <unicode hex="0063"/>
  <outline>
    <contour>
      <point x="140" y="540"/>
      <point x="21" y="428"/>
      <point x="21" y="263" type="curve" smooth="yes"/>
      <point x="21" y="101"/>
      <point x="138" y="-10"/>
      <point x="298" y="-10" type="curve" smooth="yes"/>
      <point x="460" y="-10"/>
      <point x="526" y="105"/>
      <point x="536" y="157" type="curve" smooth="yes"/>
      <point x="540" y="172"/>
      <point x="538" y="178"/>
      <point x="527" y="180" type="curve" smooth="yes"/>
      <point x="433" y="198" type="line" smooth="yes"/>
      <point x="420" y="200"/>
      <point x="416" y="198"/>
      <point x="413" y="193" type="curve" smooth="yes"/>
      <point x="388" y="148"/>
      <point x="369" y="114"/>
      <point x="314" y="114" type="curve" smooth="yes"/>
      <point x="257" y="114"/>
      <point x="223" y="154"/>
      <point x="223" y="265" type="curve" smooth="yes"/>
      <point x="223" y="372"/>
      <point x="254" y="414"/>
      <point x="303" y="414" type="curve" smooth="yes"/>
      <point x="351" y="414"/>
      <point x="360" y="376"/>
      <point x="364" y="351" type="curve" smooth="yes"/>
      <point x="366" y="340"/>
      <point x="370" y="336"/>
      <point x="381" y="337" type="curve" smooth="yes"/>
      <point x="518" y="344" type="line" smooth="yes"/>
      <point x="535" y="345"/>
      <point x="541" y="353"/>
      <point x="536" y="370" type="curve" smooth="yes"/>
      <point x="520" y="447"/>
      <point x="441" y="540"/>
      <point x="298" y="540" type="curve" smooth="yes"/>
    </contour>
    <contour>
      <point x="298" y="530" type="move" name="top"/>
    </contour>
    <contour>
      <point x="297" y="0" type="move" name="bottom"/>
    </contour>
  </outline>
</glyph>
<glyph name="d" format="1">
  <advance width="616"/>
  <unicode hex="0064"/>
  <outline>
    <contour>
      <point x="548" y="0" type="line" smooth="yes"/>
      <point x="569" y="0"/>
      <point x="575" y="8"/>
      <point x="575" y="25" type="curve" smooth="yes"/>
      <point x="575" y="719" type="line" smooth="yes"/>
      <point x="575" y="734"/>
      <point x="567" y="742"/>
      <point x="556" y="742" type="curve" smooth="yes"/>
      <point x="394" y="742" type="line" smooth="yes"/>
      <point x="382" y="742"/>
      <point x="376" y="734"/>
      <point x="376" y="721" type="curve" smooth="yes"/>
      <point x="376" y="496" type="line" smooth="yes"/>
      <point x="376" y="480"/>
      <point x="367" y="480"/>
      <point x="357" y="488" type="curve" smooth="yes"/>
      <point x="316" y="528"/>
      <point x="278" y="540"/>
      <point x="233" y="540" type="curve" smooth="yes"/>
      <point x="123" y="540"/>
      <point x="23" y="431"/>
      <point x="23" y="263" type="curve" smooth="yes"/>
      <point x="23" y="82"/>
      <point x="105" y="-10"/>
      <point x="223" y="-10" type="curve" smooth="yes"/>
      <point x="285" y="-10"/>
      <point x="324" y="10"/>
      <point x="363" y="46" type="curve" smooth="yes"/>
      <point x="370" y="52"/>
      <point x="378" y="51"/>
      <point x="378" y="42" type="curve" smooth="yes"/>
      <point x="378" y="23" type="line" smooth="yes"/>
      <point x="378" y="6"/>
      <point x="390" y="0"/>
      <point x="403" y="0" type="curve" smooth="yes"/>
    </contour>
    <contour>
      <point x="375" y="176" type="line" smooth="yes"/>
      <point x="375" y="137"/>
      <point x="344" y="110"/>
      <point x="305" y="110" type="curve" smooth="yes"/>
      <point x="254" y="110"/>
      <point x="225" y="149"/>
      <point x="225" y="264" type="curve" smooth="yes"/>
      <point x="225" y="380"/>
      <point x="258" y="416"/>
      <point x="305" y="416" type="curve" smooth="yes"/>
      <point x="336" y="416"/>
      <point x="354" y="403"/>
      <point x="375" y="378" type="curve"/>
    </contour>
    <contour>
      <point x="308" y="0" type="move" name="bottom"/>
    </contour>
    <contour>
      <point x="308" y="530" type="move" name="top"/>
    </contour>
    <contour>
      <point x="593" y="530" type="move" name="topright"/>
    </contour>
    <contour>
      <point x="307" y="265" type="move" name="center"/>
    </contour>
  </outline>
</glyph>
<glyph name="e" format="1">
  <advance width="590"/>
  <unicode hex="0065"/>
  <outline>
    <contour>
      <point x="227" y="224"/>
      <point x="232" y="229"/>
      <point x="242" y="229" type="curve" smooth="yes"/>
      <point x="553" y="229" type="line" smooth="yes"/>
      <point x="570" y="230"/>
      <point x="571" y="237"/>
      <point x="571" y="254" type="curve" smooth="yes"/>
      <point x="571" y="435"/>
      <point x="456" y="540"/>
      <point x="299" y="540" type="curve" smooth="yes"/>
      <point x="151" y="540"/>
      <point x="21" y="426"/>
      <point x="21" y="256" type="curve" smooth="yes"/>
      <point x="21" y="99"/>
      <point x="143" y="-10"/>
      <point x="303" y="-10" type="curve" smooth="yes"/>
      <point x="415" y="-10"/>
      <point x="483" y="17"/>
      <point x="555" y="118" type="curve" smooth="yes"/>
      <point x="564" y="129"/>
      <point x="561" y="138"/>
      <point x="551" y="142" type="curve" smooth="yes"/>
      <point x="460" y="179" type="line" smooth="yes"/>
      <point x="447" y="184"/>
      <point x="444" y="183"/>
      <point x="439" y="178" type="curve" smooth="yes"/>
      <point x="395" y="135"/>
      <point x="364" y="122"/>
      <point x="330" y="122" type="curve" smooth="yes"/>
      <point x="272" y="122"/>
      <point x="227" y="151"/>
      <point x="227" y="212" type="curve" smooth="yes"/>
    </contour>
    <contour>
      <point x="229" y="395"/>
      <point x="267" y="423"/>
      <point x="308" y="423" type="curve" smooth="yes"/>
      <point x="358" y="423"/>
      <point x="377" y="372"/>
      <point x="377" y="346" type="curve" smooth="yes"/>
      <point x="377" y="334"/>
      <point x="373" y="332"/>
      <point x="360" y="332" type="curve" smooth="yes"/>
      <point x="230" y="333" type="line"/>
    </contour>
    <contour>
      <point x="433" y="26" type="move" name="ogonek"/>
    </contour>
    <contour>
      <point x="304" y="0" type="move" name="bottom"/>
    </contour>
    <contour>
      <point x="301" y="530" type="move" name="top"/>
    </contour>
  </outline>
</glyph>
<glyph name="i" format="1">
  <advance width="282"/>
  <unicode hex="0069"/>
  <outline>
    <contour>
      <point x="241" y="522"/>
      <point x="234" y="530"/>
      <point x="223" y="530" type="curve" smooth="yes"/>
      <point x="60" y="530" type="line" smooth="yes"/>
      <point x="48" y="530"/>
      <point x="41" y="522"/>
      <point x="41" y="507" type="curve" smooth="yes"/>
      <point x="41" y="25" type="line" smooth="yes"/>
      <point x="41" y="8"/>
      <point x="47" y="0"/>
      <point x="67" y="0" type="curve" smooth="yes"/>
      <point x="208" y="0" type="line" smooth="yes"/>
      <point x="231" y="0"/>
      <point x="241" y="8"/>
      <point x="241" y="29" type="curve" smooth="yes"/>
      <point x="241" y="510" type="line" smooth="yes"/>
    </contour>
    <contour>
      <point x="241" y="734"/>
      <point x="234" y="742"/>
      <point x="223" y="742" type="curve" smooth="yes"/>
      <point x="60" y="742" type="line" smooth="yes"/>
      <point x="48" y="742"/>
      <point x="41" y="734"/>
      <point x="41" y="719" type="curve" smooth="yes"/>
      <point x="41" y="600" type="line" smooth="yes"/>
      <point x="41" y="583"/>
      <point x="47" y="574"/>
      <point x="67" y="574" type="curve" smooth="yes"/>
      <point x="208" y="574" type="line" smooth="yes"/>
      <point x="231" y="574"/>
      <point x="241" y="583"/>
      <point x="241" y="603" type="curve" smooth="yes"/>
      <point x="241" y="721" type="line" smooth="yes"/>
    </contour>
  </outline>
</glyph>
<glyph name="l" format="1">
  <advance width="284"/>
  <unicode hex="006C"/>
  <outline>
    <contour>
      <point x="242" y="734"/>
      <point x="235" y="742"/>
      <point x="224" y="742" type="curve" smooth="yes"/>
      <point x="64" y="742" type="line" smooth="yes"/>
      <point x="52" y="742"/>
      <point x="45" y="734"/>
      <point x="45" y="719" type="curve" smooth="yes"/>
      <point x="40" y="25" type="line" smooth="yes"/>
      <point x="40" y="8"/>
      <point x="47" y="0"/>
      <point x="67" y="0" type="curve" smooth="yes"/>
      <point x="209" y="0" type="line" smooth="yes"/>
      <point x="232" y="0"/>
      <point x="242" y="8"/>
      <point x="242" y="29" type="curve" smooth="yes"/>
      <point x="242" y="721" type="line" smooth="yes"/>
    </contour>
    <contour>
      <point x="146" y="742" type="move" name="top"/>
    </contour>
    <contour>
      <point x="146" y="0" type="move" name="bottom"/>
    </contour>
    <contour>
      <point x="333" y="530" type="move" name="topright"/>
    </contour>
  </outline>
</glyph>
<glyph name="r" format="1">
  <advance width="454"/>
  <unicode hex="0072"/>
  <outline>
    <contour>
      <point x="208" y="0" type="line" smooth="yes"/>
      <point x="231" y="0"/>
      <point x="241" y="8"/>
      <point x="241" y="29" type="curve" smooth="yes"/>
      <point x="241" y="295" type="line" smooth="yes"/>
      <point x="241" y="330"/>
      <point x="283" y="363"/>
      <point x="327" y="363" type="curve" smooth="yes"/>
      <point x="346" y="363"/>
      <point x="382" y="360"/>
      <point x="413" y="352" type="curve" smooth="yes"/>
      <point x="425" y="349"/>
      <point x="433" y="355"/>
      <point x="433" y="368" type="curve" smooth="yes"/>
      <point x="433" y="520" type="line" smooth="yes"/>
      <point x="433" y="534"/>
      <point x="419" y="540"/>
      <point x="396" y="540" type="curve" smooth="yes"/>
      <point x="349" y="540"/>
      <point x="283" y="500"/>
      <point x="251" y="451" type="curve" smooth="yes"/>
      <point x="244" y="442"/>
      <point x="234" y="444"/>
      <point x="234" y="454" type="curve" smooth="yes"/>
      <point x="234" y="510" type="line" smooth="yes"/>
      <point x="234" y="522"/>
      <point x="227" y="530"/>
      <point x="216" y="530" type="curve" smooth="yes"/>
      <point x="60" y="530" type="line" smooth="yes"/>
      <point x="48" y="530"/>
      <point x="41" y="522"/>
      <point x="41" y="507" type="curve" smooth="yes"/>
      <point x="41" y="25" type="line" smooth="yes"/>
      <point x="41" y="8"/>
      <point x="47" y="0"/>
      <point x="67" y="0" type="curve" smooth="yes"/>
    </contour>
    <contour>
      <point x="232" y="530" type="move" name="top"/>
    </contour>
    <contour>
      <point x="153" y="0" type="move" name="bottom"/>
    </contour>
  </outline>
</glyph>
<glyph name="u" format="1">
  <advance width="601"/>
  <unicode hex="0075"/>
  <outline>
    <contour>
      <point x="256" y="130"/>
      <point x="236" y="148"/>
      <point x="236" y="179" type="curve" smooth="yes"/>
      <point x="236" y="504" type="line" smooth="yes"/>
      <point x="236" y="523"/>
      <point x="230" y="530"/>
      <point x="213" y="530" type="curve" smooth="yes"/>
      <point x="67" y="530" type="line" smooth="yes"/>
      <point x="45" y="530"/>
      <point x="36" y="520"/>
      <point x="36" y="500" type="curve" smooth="yes"/>
      <point x="36" y="157" type="line" smooth="yes"/>
      <point x="36" y="50"/>
      <point x="99" y="-10"/>
      <point x="185" y="-10" type="curve" smooth="yes"/>
      <point x="252" y="-10"/>
      <point x="305" y="14"/>
      <point x="351" y="68" type="curve" smooth="yes"/>
      <point x="358" y="75"/>
      <point x="363" y="72"/>
      <point x="363" y="64" type="curve" smooth="yes"/>
      <point x="363" y="20" type="line" smooth="yes"/>
      <point x="363" y="7"/>
      <point x="370" y="0"/>
      <point x="381" y="0" type="curve" smooth="yes"/>
      <point x="539" y="0" type="line" smooth="yes"/>
      <point x="551" y="0"/>
      <point x="558" y="8"/>
      <point x="558" y="22" type="curve" smooth="yes"/>
      <point x="562" y="504" type="line" smooth="yes"/>
      <point x="562" y="522"/>
      <point x="555" y="530"/>
      <point x="536" y="530" type="curve" smooth="yes"/>
      <point x="393" y="530" type="line" smooth="yes"/>
      <point x="370" y="530"/>
      <point x="360" y="521"/>
      <point x="360" y="501" type="curve" smooth="yes"/>
      <point x="360" y="171" type="line"/>
      <point x="342" y="148"/>
      <point x="315" y="130"/>
      <point x="285" y="130" type="curve" smooth="yes"/>
    </contour>
    <contour>
      <point x="531" y="10" type="move" name="ogonek"/>
    </contour>
    <contour>
      <point x="299" y="530" type="move" name="top"/>
    </contour>
    <contour>
      <point x="581" y="530" type="move" name="topright"/>
    </contour>
    <contour>
      <point x="300" y="0" type="move" name="bottom"/>
    </contour>
  </outline>
</glyph>
<glyph name="z" format="1">
  <advance width="544"/>
  <unicode hex="007A"/>
  <outline>
    <contour>
      <point x="495" y="0" type="line" smooth="yes"/>
      <point x="512" y="0"/>
      <point x="520" y="10"/>
      <point x="520" y="22" type="curve" smooth="yes"/>
      <point x="520" y="105" type="line" smooth="yes"/>
      <point x="520" y="119"/>
      <point x="511" y="124"/>
      <point x="497" y="124" type="curve" smooth="yes"/>
      <point x="292" y="124" type="line" smooth="yes"/>
      <point x="278" y="124"/>
      <point x="275" y="131"/>
      <point x="284" y="143" type="curve" smooth="yes"/>
      <point x="502" y="418" type="line" smooth="yes"/>
      <point x="514" y="435"/>
      <point x="519" y="444"/>
      <point x="519" y="459" type="curve" smooth="yes"/>
      <point x="519" y="511" type="line" smooth="yes"/>
      <point x="519" y="522"/>
      <point x="512" y="530"/>
      <point x="500" y="530" type="curve" smooth="yes"/>
      <point x="59" y="530" type="line" smooth="yes"/>
      <point x="48" y="530"/>
      <point x="41" y="522"/>
      <point x="41" y="510" type="curve" smooth="yes"/>
      <point x="41" y="431" type="line" smooth="yes"/>
      <point x="41" y="413"/>
      <point x="46" y="408"/>
      <point x="63" y="408" type="curve" smooth="yes"/>
      <point x="243" y="408" type="line" smooth="yes"/>
      <point x="257" y="408"/>
      <point x="261" y="403"/>
      <point x="253" y="392" type="curve" smooth="yes"/>
      <point x="40" y="121" type="line" smooth="yes"/>
      <point x="21" y="96"/>
      <point x="19" y="91"/>
      <point x="19" y="70" type="curve" smooth="yes"/>
      <point x="19" y="25" type="line" smooth="yes"/>
      <point x="19" y="5"/>
      <point x="25" y="0"/>
      <point x="45" y="0" type="curve" smooth="yes"/>
    </contour>
    <contour>
      <point x="278" y="530" type="move" name="top"/>
    </contour>
  </outline>
</glyph>
<glyph name="bar" format="1">
  <advance width="245"/>
  <unicode hex="007C"/>
  <outline>
    <contour>
      <point x="185" y="-165"/>
      <point x="193" y="-158"/>
      <point x="193" y="-147" type="curve" smooth="yes"/>
      <point x="193" y="828" type="line" smooth="yes"/>
      <point x="193" y="840"/>
      <point x="185" y="847"/>
      <point x="170" y="847" type="curve" smooth="yes"/>
      <point x="77" y="847" type="line" smooth="yes"/>
      <point x="60" y="847"/>
      <point x="52" y="841"/>
      <point x="52" y="821" type="curve" smooth="yes"/>
      <point x="52" y="-132" type="line" smooth="yes"/>
      <point x="52" y="-155"/>
      <point x="60" y="-165"/>
      <point x="80" y="-165" type="curve" smooth="yes"/>
      <point x="173" y="-165" type="line" smooth="yes"/>
    </contour>
  </outline>
</glyph>
<glyph name="degree" format="1">
  <advance width="464"/>
  <unicode hex="00B0"/>
  <outline>
    <contour>
      <point x="414" y="781"/>
      <point x="336" y="857"/>
      <point x="232" y="857" type="curve" smooth="yes"/>
      <point x="127" y="857"/>
      <point x="50" y="781"/>
      <point x="50" y="675" type="curve" smooth="yes"/>
      <point x="50" y="568"/>
      <point x="127" y="493"/>
      <point x="232" y="493" type="curve" smooth="yes"/>
      <point x="336" y="493"/>
      <point x="414" y="568"/>
      <point x="414" y="675" type="curve" smooth="yes"/>
    </contour>
    <contour>
      <point x="302" y="630"/>
      <point x="274" y="599"/>
      <point x="231" y="599" type="curve" smooth="yes"/>
      <point x="187" y="599"/>
      <point x="160" y="630"/>
      <point x="159" y="674" type="curve" smooth="yes"/>
      <point x="158" y="717"/>
      <point x="187" y="748"/>
      <point x="230" y="748" type="curve" smooth="yes"/>
      <point x="274" y="748"/>
      <point x="302" y="717"/>
      <point x="302" y="674" type="curve" smooth="yes"/>
    </contour>
  </outline>
</glyph>
<glyph name="ordmasculine" format="1">
  <advance width="391"/>
  <unicode hex="00BA"/>
  <outline>
    <contour>
      <point x="97" y="752"/>
      <point x="21" y="682"/>
      <point x="21" y="578" type="curve" smooth="yes"/>
      <point x="21" y="479"/>
      <point x="92" y="408"/>
      <point x="195" y="408" type="curve" smooth="yes"/>
      <point x="298" y="408"/>
      <point x="370" y="479"/>
      <point x="370" y="578" type="curve" smooth="yes"/>
      <point x="370" y="679"/>
      <point x="300" y="752"/>
      <point x="195" y="752" type="curve" smooth="yes"/>
    </contour>
    <contour>
      <point x="229" y="674"/>
      <point x="244" y="646"/>
      <point x="244" y="581" type="curve" smooth="yes"/>
      <point x="244" y="516"/>
      <point x="229" y="488"/>
      <point x="195" y="488" type="curve" smooth="yes"/>
      <point x="162" y="488"/>
      <point x="147" y="516"/>
      <point x="147" y="581" type="curve" smooth="yes"/>
      <point x="147" y="646"/>
      <point x="162" y="674"/>
      <point x="195" y="674" type="curve" smooth="yes"/>
    </contour>
  </outline>
</glyph>
<glyph name="Eth" format="1">
  <advance width="791"/>
  <unicode hex="00D0"/>
  <outline>
    <contour>
      <point x="432" y="426"/>
      <point x="425" y="434"/>
      <point x="414" y="434" type="curve" smooth="yes"/>
      <point x="43" y="434" type="line" smooth="yes"/>
      <point x="31" y="434"/>
      <point x="24" y="426"/>
      <point x="24" y="411" type="curve" smooth="yes"/>
      <point x="24" y="318" type="line" smooth="yes"/>
      <point x="24" y="301"/>
      <point x="30" y="293"/>
      <point x="50" y="293" type="curve" smooth="yes"/>
      <point x="399" y="293" type="line" smooth="yes"/>
      <point x="422" y="293"/>
      <point x="432" y="301"/>
      <point x="432" y="321" type="curve" smooth="yes"/>
      <point x="432" y="414" type="line" smooth="yes"/>
    </contour>
    <component base="D" xOffset="20"/>
  </outline>
</glyph>
<glyph name="Thorn" format="1">
  <advance width="744"/>
  <unicode hex="00DE"/>
  <outline>
    <contour>
      <point x="716" y="530"/>
      <point x="579" y="608"/>
      <point x="415" y="608" type="curve" smooth="yes"/>
      <point x="289" y="608" type="line" smooth="yes"/>
      <point x="282" y="608"/>
      <point x="279" y="612"/>
      <point x="279" y="620" type="curve" smooth="yes"/>
      <point x="279" y="721" type="line" smooth="yes"/>
      <point x="279" y="734"/>
      <point x="273" y="742"/>
      <point x="261" y="742" type="curve" smooth="yes"/>
      <point x="71" y="742" type="line" smooth="yes"/>
      <point x="60" y="742"/>
      <point x="52" y="734"/>
      <point x="52" y="719" type="curve" smooth="yes"/>
      <point x="52" y="25" type="line" smooth="yes"/>
      <point x="52" y="8"/>
      <point x="58" y="0"/>
      <point x="78" y="0" type="curve" smooth="yes"/>
      <point x="246" y="0" type="line" smooth="yes"/>
      <point x="269" y="0"/>
      <point x="279" y="8"/>
      <point x="279" y="29" type="curve" smooth="yes"/>
      <point x="279" y="131" type="line" smooth="yes"/>
      <point x="279" y="138"/>
      <point x="282" y="142"/>
      <point x="291" y="142" type="curve" smooth="yes"/>
      <point x="441" y="142" type="line" smooth="yes"/>
      <point x="604" y="142"/>
      <point x="716" y="229"/>
      <point x="716" y="372" type="curve" smooth="yes"/>
    </contour>
    <contour>
      <point x="484" y="335"/>
      <point x="455" y="302"/>
      <point x="407" y="302" type="curve" smooth="yes"/>
      <point x="296" y="302" type="line" smooth="yes"/>
      <point x="283" y="302"/>
      <point x="279" y="309"/>
      <point x="279" y="324" type="curve" smooth="yes"/>
      <point x="279" y="427" type="line" smooth="yes"/>
      <point x="279" y="442"/>
      <point x="285" y="448"/>
      <point x="302" y="448" type="curve" smooth="yes"/>
      <point x="401" y="448" type="line" smooth="yes"/>
      <point x="447" y="448"/>
      <point x="484" y="420"/>
      <point x="484" y="375" type="curve" smooth="yes"/>
    </contour>
  </outline>
</glyph>
<glyph name="dcroat" format="1">
  <advance width="626"/>
  <unicode hex="0111"/>
  <outline>
    <contour>
      <point x="613" y="680"/>
      <point x="607" y="687"/>
      <point x="597" y="687" type="curve" smooth="yes"/>
      <point x="258" y="687" type="line" smooth="yes"/>
      <point x="248" y="687"/>
      <point x="242" y="680"/>
      <point x="242" y="667" type="curve" smooth="yes"/>
      <point x="242" y="602" type="line" smooth="yes"/>
      <point x="242" y="587"/>
      <point x="247" y="580"/>
      <point x="264" y="580" type="curve" smooth="yes"/>
      <point x="584" y="580" type="line" smooth="yes"/>
      <point x="604" y="580"/>
      <point x="613" y="587"/>
      <point x="613" y="604" type="curve" smooth="yes"/>
      <point x="613" y="669" type="line" smooth="yes"/>
    </contour>
    <component base="d"/>
  </outline>
</glyph>
<glyph name="hbar" format="1">
  <advance width="608"/>
  <unicode hex="0127"/>
  <outline>
    <contour>
      <point x="374" y="680"/>
      <point x="368" y="687"/>
      <point x="358" y="687" type="curve" smooth="yes"/>
      <point x="19" y="687" type="line" smooth="yes"/>
      <point x="9" y="687"/>
      <point x="3" y="680"/>
      <point x="3" y="667" type="curve" smooth="yes"/>
      <point x="3" y="602" type="line" smooth="yes"/>
      <point x="3" y="587"/>
      <point x="8" y="580"/>
      <point x="25" y="580" type="curve" smooth="yes"/>
      <point x="345" y="580" type="line" smooth="yes"/>
      <point x="365" y="580"/>
      <point x="374" y="587"/>
      <point x="374" y="604" type="curve" smooth="yes"/>
      <point x="374" y="669" type="line" smooth="yes"/>
    </contour>
    <component base="h" xOffset="3"/>
  </outline>
</glyph>
<glyph name="dotlessi" format="1">
  <advance width="282"/>
  <unicode hex="0131"/>
  <outline>
    <contour>
      <point x="241" y="522"/>
      <point x="234" y="530"/>
      <point x="223" y="530" type="curve" smooth="yes"/>
      <point x="60" y="530" type="line" smooth="yes"/>
      <point x="48" y="530"/>
      <point x="41" y="522"/>
      <point x="41" y="507" type="curve" smooth="yes"/>
      <point x="41" y="25" type="line" smooth="yes"/>
      <point x="41" y="8"/>
      <point x="47" y="0"/>
      <point x="67" y="0" type="curve" smooth="yes"/>
      <point x="208" y="0" type="line" smooth="yes"/>
      <point x="231" y="0"/>
      <point x="241" y="8"/>
      <point x="241" y="29" type="curve" smooth="yes"/>
      <point x="241" y="510" type="line" smooth="yes"/>
    </contour>
    <contour>
      <point x="213" y="9" type="move" name="ogonek"/>
    </contour>
    <contour>
      <point x="145" y="530" type="move" name="top"/>
    </contour>
  </outline>
</glyph>
<glyph name="Lslash" format="1">
  <advance width="643"/>
  <unicode hex="0141"/>
  <outline>
    <contour>
      <point x="439" y="550"/>
      <point x="432" y="557"/>
      <point x="415" y="552" type="curve" smooth="yes"/>
      <point x="10" y="444" type="line" smooth="yes"/>
      <point x="-2" y="441"/>
      <point x="-9" y="436"/>
      <point x="-9" y="421" type="curve" smooth="yes"/>
      <point x="-9" y="301" type="line" smooth="yes"/>
      <point x="-9" y="284"/>
      <point x="-3" y="277"/>
      <point x="17" y="283" type="curve" smooth="yes"/>
      <point x="419" y="397" type="line" smooth="yes"/>
      <point x="433" y="401"/>
      <point x="439" y="409"/>
      <point x="439" y="421" type="curve" smooth="yes"/>
      <point x="439" y="534" type="line" smooth="yes"/>
    </contour>
    <component base="L"/>
  </outline>
</glyph>
<glyph name="lslash" format="1">
  <advance width="364"/>
  <unicode hex="0142"/>
  <outline>
    <contour>
      <point x="344" y="507"/>
      <point x="337" y="511"/>
      <point x="320" y="500" type="curve" smooth="yes"/>
      <point x="39" y="324" type="line" smooth="yes"/>
      <point x="27" y="316"/>
      <point x="20" y="305"/>
      <point x="20" y="290" type="curve" smooth="yes"/>
      <point x="20" y="170" type="line" smooth="yes"/>
      <point x="20" y="153"/>
      <point x="26" y="150"/>
      <point x="46" y="163" type="curve" smooth="yes"/>
      <point x="324" y="345" type="line" smooth="yes"/>
      <point x="337" y="354"/>
      <point x="344" y="366"/>
      <point x="344" y="378" type="curve" smooth="yes"/>
      <point x="344" y="491" type="line" smooth="yes"/>
    </contour>
    <component base="l" xOffset="40"/>
  </outline>
</glyph>
<glyph name="Eng" format="1">
  <advance width="761"/>
  <unicode hex="014A"/>
  <outline>
    <contour>
      <point x="549" y="742" type="line" smooth="yes"/>
      <point x="534" y="742"/>
      <point x="527" y="734"/>
      <point x="527" y="721" type="curve" smooth="yes"/>
      <point x="527" y="434" type="line" smooth="yes"/>
      <point x="527" y="418"/>
      <point x="520" y="418"/>
      <point x="511" y="430" type="curve"/>
      <point x="271" y="724" type="line" smooth="yes"/>
      <point x="259" y="739"/>
      <point x="254" y="742"/>
      <point x="237" y="742" type="curve" smooth="yes"/>
      <point x="74" y="742" type="line" smooth="yes"/>
      <point x="59" y="742"/>
      <point x="52" y="735"/>
      <point x="52" y="719" type="curve" smooth="yes"/>
      <point x="52" y="20" type="line" smooth="yes"/>
      <point x="52" y="5"/>
      <point x="62" y="0"/>
      <point x="77" y="0" type="curve" smooth="yes"/>
      <point x="213" y="0" type="line" smooth="yes"/>
      <point x="231" y="0"/>
      <point x="238" y="6"/>
      <point x="237" y="22" type="curve"/>
      <point x="237" y="386" type="line"/>
      <point x="237" y="393"/>
      <point x="241" y="395"/>
      <point x="247" y="388" type="curve" smooth="yes"/>
      <point x="509" y="71" type="line"/>
      <point x="509" y="62" type="line" smooth="yes"/>
      <point x="505" y="7"/>
      <point x="486" y="-13"/>
      <point x="428" y="-13" type="curve" smooth="yes"/>
      <point x="406" y="-13"/>
      <point x="363" y="-8"/>
      <point x="347" y="-6" type="curve" smooth="yes"/>
      <point x="331" y="-4"/>
      <point x="324" y="-14"/>
      <point x="323" y="-29" type="curve" smooth="yes"/>
      <point x="315" y="-120" type="line" smooth="yes"/>
      <point x="313" y="-148"/>
      <point x="323" y="-159"/>
      <point x="346" y="-163" type="curve" smooth="yes"/>
      <point x="391" y="-171"/>
      <point x="435" y="-175"/>
      <point x="476" y="-175" type="curve" smooth="yes"/>
      <point x="628" y="-175"/>
      <point x="709" y="-114"/>
      <point x="709" y="47" type="curve" smooth="yes"/>
      <point x="709" y="725" type="line" smooth="yes"/>
      <point x="709" y="736"/>
      <point x="704" y="742"/>
      <point x="694" y="742" type="curve" smooth="yes"/>
    </contour>
  </outline>
</glyph>
<glyph name="Tbar" format="1">
  <advance width="704"/>
  <unicode hex="0166"/>
  <outline>
    <contour>
      <point x="554" y="414"/>
      <point x="547" y="422"/>
      <point x="536" y="422" type="curve" smooth="yes"/>
      <point x="135" y="422" type="line" smooth="yes"/>
      <point x="123" y="422"/>
      <point x="116" y="414"/>
      <point x="116" y="399" type="curve" smooth="yes"/>
      <point x="116" y="306" type="line" smooth="yes"/>
      <point x="116" y="289"/>
      <point x="122" y="281"/>
      <point x="142" y="281" type="curve" smooth="yes"/>
      <point x="521" y="281" type="line" smooth="yes"/>
      <point x="544" y="281"/>
      <point x="554" y="289"/>
      <point x="554" y="309" type="curve" smooth="yes"/>
      <point x="554" y="402" type="line" smooth="yes"/>
    </contour>
    <component base="T"/>
  </outline>
</glyph>
<glyph name="uni0237" format="1">
  <advance width="283"/>
  <unicode hex="0237"/>
  <outline>
    <contour>
      <point x="242" y="510" type="line" smooth="yes"/>
      <point x="242" y="522"/>
      <point x="236" y="530"/>
      <point x="224" y="530" type="curve" smooth="yes"/>
      <point x="62" y="530" type="line" smooth="yes"/>
      <point x="50" y="530"/>
      <point x="42" y="522"/>
      <point x="42" y="507" type="curve" smooth="yes"/>
      <point x="42" y="36" type="line" smooth="yes"/>
      <point x="42" y="2"/>
      <point x="31" y="-6"/>
      <point x="18" y="-10" type="curve" smooth="yes"/>
      <point x="-17" y="-16" type="line" smooth="yes"/>
      <point x="-30" y="-19"/>
      <point x="-37" y="-32"/>
      <point x="-37" y="-43" type="curve" smooth="yes"/>
      <point x="-36" y="-145" type="line" smooth="yes"/>
      <point x="-36" y="-166"/>
      <point x="-24" y="-170"/>
      <point x="32" y="-170" type="curve" smooth="yes"/>
      <point x="174" y="-170"/>
      <point x="242" y="-103"/>
      <point x="242" y="29" type="curve" smooth="yes"/>
    </contour>
    <contour>
      <point x="142" y="530" type="move" name="top"/>
    </contour>
  </outline>
</glyph>
<glyph name="uni02BE" format="1">
  <advance width="218"/>
  <unicode hex="02BE"/>
  <outline>
    <contour>
      <point x="116" y="562"/>
      <point x="168" y="613"/>
      <point x="168" y="679" type="curve" smooth="yes"/>
      <point x="168" y="743"/>
      <point x="116" y="794"/>
      <point x="51" y="794" type="curve"/>
      <point x="50" y="725" type="line"/>
      <point x="77" y="725"/>
      <point x="98" y="705"/>
      <point x="98" y="678" type="curve" smooth="yes"/>
      <point x="98" y="652"/>
      <point x="77" y="629"/>
      <point x="50" y="629" type="curve"/>
      <point x="51" y="562" type="line"/>
    </contour>
  </outline>
</glyph>
<glyph name="uni02BF" format="1">
  <advance width="217"/>
  <unicode hex="02BF"/>
  <outline>
    <contour>
      <point x="166" y="629" type="line"/>
      <point x="140" y="629"/>
      <point x="117" y="652"/>
      <point x="117" y="678" type="curve" smooth="yes"/>
      <point x="117" y="705"/>
      <point x="140" y="725"/>
      <point x="166" y="725" type="curve"/>
      <point x="167" y="794" type="line"/>
      <point x="103" y="794"/>
      <point x="50" y="744"/>
      <point x="50" y="681" type="curve" smooth="yes"/>
      <point x="50" y="614"/>
      <point x="102" y="562"/>
      <point x="167" y="562" type="curve"/>
    </contour>
  </outline>
</glyph>
<glyph name="uni02CC" format="1">
  <advance width="320"/>
  <unicode hex="02CC"/>
  <outline>
    <contour>
      <point x="212" y="-280"/>
      <point x="220" y="-273"/>
      <point x="220" y="-262" type="curve" smooth="yes"/>
      <point x="220" y="23" type="line" smooth="yes"/>
      <point x="220" y="35"/>
      <point x="212" y="42"/>
      <point x="197" y="42" type="curve" smooth="yes"/>
      <point x="125" y="42" type="line" smooth="yes"/>
      <point x="108" y="42"/>
      <point x="100" y="36"/>
      <point x="100" y="16" type="curve" smooth="yes"/>
      <point x="100" y="-247" type="line" smooth="yes"/>
      <point x="100" y="-270"/>
      <point x="108" y="-280"/>
      <point x="128" y="-280" type="curve" smooth="yes"/>
      <point x="200" y="-280" type="line" smooth="yes"/>
    </contour>
  </outline>
</glyph>
<glyph name="gravecomb" format="1">
  <advance width="320"/>
  <unicode hex="0300"/>
  <outline>
    <contour>
      <point x="13" y="661" type="line" smooth="yes"/>
      <point x="8" y="646"/>
      <point x="12" y="634"/>
      <point x="32" y="629" type="curve" smooth="yes"/>
      <point x="265" y="573" type="line" smooth="yes"/>
      <point x="282" y="569"/>
      <point x="289" y="572"/>
      <point x="294" y="586" type="curve" smooth="yes"/>
      <point x="309" y="629" type="line" smooth="yes"/>
      <point x="313" y="641"/>
      <point x="310" y="649"/>
      <point x="301" y="653" type="curve" smooth="yes"/>
      <point x="62" y="751" type="line" smooth="yes"/>
      <point x="53" y="755"/>
      <point x="45" y="750"/>
      <point x="41" y="739" type="curve" smooth="yes"/>
    </contour>
    <contour>
      <point x="160" y="530" type="move" name="_top"/>
    </contour>
  </outline>
</glyph>
<glyph name="acutecomb" format="1">
  <advance width="320"/>
  <unicode hex="0301"/>
  <outline>
    <contour>
      <point x="277" y="747"/>
      <point x="269" y="752"/>
      <point x="260" y="748" type="curve" smooth="yes"/>
      <point x="20" y="650" type="line" smooth="yes"/>
      <point x="11" y="646"/>
      <point x="8" y="638"/>
      <point x="12" y="626" type="curve" smooth="yes"/>
      <point x="27" y="583" type="line" smooth="yes"/>
      <point x="32" y="569"/>
      <point x="39" y="566"/>
      <point x="56" y="570" type="curve" smooth="yes"/>
      <point x="289" y="626" type="line" smooth="yes"/>
      <point x="309" y="631"/>
      <point x="313" y="643"/>
      <point x="308" y="658" type="curve" smooth="yes"/>
      <point x="281" y="736" type="line" smooth="yes"/>
    </contour>
    <contour>
      <point x="160" y="719" type="move" name="top"/>
    </contour>
    <contour>
      <point x="160" y="530" type="move" name="_top"/>
    </contour>
  </outline>
</glyph>
<glyph name="uni0302" format="1">
  <advance width="420"/>
  <unicode hex="0302"/>
  <outline>
    <contour>
      <point x="273" y="595"/>
      <point x="281" y="595"/>
      <point x="293" y="595" type="curve" smooth="yes"/>
      <point x="398" y="595" type="line" smooth="yes"/>
      <point x="412" y="595"/>
      <point x="411" y="601"/>
      <point x="400" y="613" type="curve" smooth="yes"/>
      <point x="289" y="739" type="line" smooth="yes"/>
      <point x="282" y="746"/>
      <point x="275" y="752"/>
      <point x="261" y="752" type="curve" smooth="yes"/>
      <point x="166" y="752" type="line" smooth="yes"/>
      <point x="147" y="752"/>
      <point x="138" y="747"/>
      <point x="129" y="737" type="curve" smooth="yes"/>
      <point x="17" y="613" type="line" smooth="yes"/>
      <point x="7" y="602"/>
      <point x="8" y="595"/>
      <point x="20" y="595" type="curve" smooth="yes"/>
      <point x="119" y="595" type="line" smooth="yes"/>
      <point x="132" y="595"/>
      <point x="136" y="594"/>
      <point x="145" y="604" type="curve" smooth="yes"/>
      <point x="191" y="658" type="line" smooth="yes"/>
      <point x="208" y="677"/>
      <point x="211" y="676"/>
      <point x="225" y="658" type="curve" smooth="yes"/>
      <point x="266" y="604" type="line" smooth="yes"/>
    </contour>
    <contour>
      <point x="209" y="717" type="move" name="top"/>
    </contour>
    <contour>
      <point x="357" y="699" type="move" name="topviet"/>
    </contour>
    <contour>
      <point x="210" y="530" type="move" name="_top"/>
    </contour>
  </outline>
</glyph>
<glyph name="uni0304" format="1">
  <advance width="431"/>
  <unicode hex="0304"/>
  <outline>
    <contour>
      <point x="421" y="735"/>
      <point x="415" y="742"/>
      <point x="405" y="742" type="curve" smooth="yes"/>
      <point x="26" y="742" type="line" smooth="yes"/>
      <point x="16" y="742"/>
      <point x="10" y="735"/>
      <point x="10" y="722" type="curve" smooth="yes"/>
      <point x="10" y="641" type="line" smooth="yes"/>
      <point x="10" y="626"/>
      <point x="15" y="619"/>
      <point x="32" y="619" type="curve" smooth="yes"/>
      <point x="392" y="619" type="line" smooth="yes"/>
      <point x="412" y="619"/>
      <point x="421" y="626"/>
      <point x="421" y="643" type="curve" smooth="yes"/>
      <point x="421" y="724" type="line" smooth="yes"/>
    </contour>
    <contour>
      <point x="216" y="722" type="move" name="top"/>
    </contour>
    <contour>
      <point x="216" y="530" type="move" name="_top"/>
    </contour>
  </outline>
</glyph>
<glyph name="uni0306" format="1">
  <advance width="423"/>
  <unicode hex="0306"/>
  <outline>
    <contour>
      <point x="317" y="742" type="line" smooth="yes"/>
      <point x="309" y="742"/>
      <point x="304" y="741"/>
      <point x="297" y="729" type="curve" smooth="yes"/>
      <point x="280" y="701"/>
      <point x="242" y="682"/>
      <point x="212" y="682" type="curve" smooth="yes"/>
      <point x="179" y="682"/>
      <point x="145" y="702"/>
      <point x="126" y="728" type="curve" smooth="yes"/>
      <point x="118" y="739"/>
      <point x="114" y="742"/>
      <point x="102" y="742" type="curve" smooth="yes"/>
      <point x="25" y="742" type="line" smooth="yes"/>
      <point x="15" y="742"/>
      <point x="12" y="734"/>
      <point x="14" y="726" type="curve" smooth="yes"/>
      <point x="38" y="631"/>
      <point x="125" y="593"/>
      <point x="212" y="593" type="curve" smooth="yes"/>
      <point x="300" y="593"/>
      <point x="376" y="636"/>
      <point x="408" y="724" type="curve" smooth="yes"/>
      <point x="412" y="735"/>
      <point x="409" y="742"/>
      <point x="395" y="742" type="curve" smooth="yes"/>
    </contour>
    <contour>
      <point x="211" y="722" type="move" name="top"/>
    </contour>
    <contour>
      <point x="211" y="530" type="move" name="_top"/>
    </contour>
  </outline>
</glyph>
<glyph name="hookabovecomb" format="1">
  <advance width="600"/>
  <unicode hex="0309"/>
  <outline>
    <contour>
      <point x="232" y="812"/>
      <point x="256" y="823"/>
      <point x="285" y="823" type="curve" smooth="yes"/>
      <point x="348" y="823"/>
      <point x="397" y="786"/>
      <point x="397" y="728" type="curve" smooth="yes"/>
      <point x="397" y="677"/>
      <point x="360" y="640"/>
      <point x="312" y="604" type="curve" smooth="yes"/>
      <point x="304" y="598"/>
      <point x="297" y="601"/>
      <point x="292" y="607" type="curve" smooth="yes"/>
      <point x="264" y="646" type="line" smooth="yes"/>
      <point x="259" y="653"/>
      <point x="262" y="661"/>
      <point x="266" y="664" type="curve" smooth="yes"/>
      <point x="302" y="691"/>
      <point x="318" y="702"/>
      <point x="318" y="723" type="curve" smooth="yes"/>
      <point x="318" y="739"/>
      <point x="298" y="744"/>
      <point x="284" y="744" type="curve" smooth="yes"/>
      <point x="267" y="744"/>
      <point x="251" y="739"/>
      <point x="231" y="728" type="curve" smooth="yes"/>
      <point x="224" y="724"/>
      <point x="218" y="728"/>
      <point x="214" y="735" type="curve" smooth="yes"/>
      <point x="189" y="782" type="line" smooth="yes"/>
      <point x="184" y="792"/>
      <point x="188" y="796"/>
      <point x="196" y="799" type="curve" smooth="yes"/>
    </contour>
    <contour>
      <point x="232" y="599" type="move" name="_topviet"/>
    </contour>
    <contour>
      <point x="305" y="530" type="move" name="_top"/>
    </contour>
  </outline>
</glyph>
<glyph name="uni030A" format="1">
  <advance width="254"/>
  <unicode hex="030A"/>
  <outline>
    <contour>
      <point x="244" y="743"/>
      <point x="192" y="794"/>
      <point x="127" y="794" type="curve" smooth="yes"/>
      <point x="63" y="794"/>
      <point x="10" y="744"/>
      <point x="10" y="681" type="curve" smooth="yes"/>
      <point x="10" y="614"/>
      <point x="62" y="562"/>
      <point x="127" y="562" type="curve" smooth="yes"/>
      <point x="192" y="562"/>
      <point x="244" y="613"/>
      <point x="244" y="679" type="curve" smooth="yes"/>
    </contour>
    <contour>
      <point x="174" y="652"/>
      <point x="153" y="629"/>
      <point x="126" y="629" type="curve" smooth="yes"/>
      <point x="100" y="629"/>
      <point x="77" y="652"/>
      <point x="77" y="678" type="curve" smooth="yes"/>
      <point x="77" y="705"/>
      <point x="100" y="725"/>
      <point x="126" y="725" type="curve" smooth="yes"/>
      <point x="153" y="725"/>
      <point x="174" y="705"/>
      <point x="174" y="678" type="curve" smooth="yes"/>
    </contour>
    <contour>
      <point x="127" y="519" type="move" name="_top"/>
    </contour>
  </outline>
</glyph>
<glyph name="uni030B" format="1">
  <advance width="467"/>
  <unicode hex="030B"/>
  <outline>
    <contour>
      <point x="172" y="752"/>
      <point x="163" y="752"/>
      <point x="155" y="745" type="curve" smooth="yes"/>
      <point x="14" y="626" type="line" smooth="yes"/>
      <point x="7" y="620"/>
      <point x="8" y="610"/>
      <point x="17" y="601" type="curve" smooth="yes"/>
      <point x="50" y="566" type="line" smooth="yes"/>
      <point x="60" y="555"/>
      <point x="66" y="557"/>
      <point x="82" y="566" type="curve" smooth="yes"/>
      <point x="225" y="646" type="line" smooth="yes"/>
      <point x="243" y="656"/>
      <point x="240" y="670"/>
      <point x="229" y="683" type="curve" smooth="yes"/>
      <point x="179" y="743" type="line" smooth="yes"/>
    </contour>
    <contour>
      <point x="391" y="752"/>
      <point x="382" y="752"/>
      <point x="374" y="745" type="curve" smooth="yes"/>
      <point x="233" y="626" type="line" smooth="yes"/>
      <point x="226" y="620"/>
      <point x="227" y="610"/>
      <point x="236" y="601" type="curve" smooth="yes"/>
      <point x="269" y="566" type="line" smooth="yes"/>
      <point x="279" y="555"/>
      <point x="285" y="557"/>
      <point x="301" y="566" type="curve" smooth="yes"/>
      <point x="444" y="646" type="line" smooth="yes"/>
      <point x="462" y="656"/>
      <point x="459" y="670"/>
      <point x="448" y="683" type="curve" smooth="yes"/>
      <point x="398" y="743" type="line" smooth="yes"/>
    </contour>
    <contour>
      <point x="234" y="530" type="move" name="_top"/>
    </contour>
  </outline>
</glyph>
<glyph name="uni030C" format="1">
  <advance width="420"/>
  <unicode hex="030C"/>
  <outline>
    <contour>
      <point x="225" y="679" type="line" smooth="yes"/>
      <point x="211" y="661"/>
      <point x="207" y="659"/>
      <point x="191" y="679" type="curve" smooth="yes"/>
      <point x="145" y="734" type="line" smooth="yes"/>
      <point x="137" y="744"/>
      <point x="132" y="743"/>
      <point x="119" y="743" type="curve" smooth="yes"/>
      <point x="20" y="743" type="line" smooth="yes"/>
      <point x="8" y="743"/>
      <point x="8" y="736"/>
      <point x="17" y="725" type="curve" smooth="yes"/>
      <point x="129" y="600" type="line" smooth="yes"/>
      <point x="138" y="590"/>
      <point x="147" y="585"/>
      <point x="166" y="585" type="curve" smooth="yes"/>
      <point x="261" y="585" type="line" smooth="yes"/>
      <point x="275" y="585"/>
      <point x="282" y="591"/>
      <point x="289" y="598" type="curve" smooth="yes"/>
      <point x="400" y="725" type="line" smooth="yes"/>
      <point x="411" y="737"/>
      <point x="412" y="743"/>
      <point x="398" y="743" type="curve" smooth="yes"/>
      <point x="293" y="743" type="line" smooth="yes"/>
      <point x="281" y="743"/>
      <point x="273" y="743"/>
      <point x="266" y="734" type="curve" smooth="yes"/>
    </contour>
    <contour>
      <point x="209" y="733" type="move" name="top"/>
    </contour>
    <contour>
      <point x="210" y="530" type="move" name="_top"/>
    </contour>
  </outline>
</glyph>
<glyph name="uni0312" format="1">
  <advance width="229"/>
  <unicode hex="0312"/>
  <outline>
    <component base="uni0326" xOffset="189" yOffset="525" xScale="-1" yScale="-1"/>
    <contour>
      <point x="115" y="771" type="move" name="top"/>
    </contour>
    <contour>
      <point x="115" y="530" type="move" name="_top"/>
    </contour>
  </outline>
</glyph>
<glyph name="uni031B" format="1">
  <advance width="600"/>
  <unicode hex="031B"/>
  <outline>
    <contour>
      <point x="602" y="589" type="line" smooth="yes"/>
      <point x="594" y="589"/>
      <point x="584" y="587"/>
      <point x="577" y="576" type="curve" smooth="yes"/>
      <point x="555" y="541"/>
      <point x="514" y="529"/>
      <point x="480" y="529" type="curve"/>
      <point x="477" y="440" type="line"/>
      <point x="561" y="440"/>
      <point x="644" y="475"/>
      <point x="686" y="558" type="curve" smooth="yes"/>
      <point x="693" y="572"/>
      <point x="688" y="589"/>
      <point x="674" y="589" type="curve" smooth="yes"/>
    </contour>
    <contour>
      <point x="583" y="530" type="move" name="_topright"/>
    </contour>
    <contour>
      <point x="583" y="530" type="move" name="topright"/>
    </contour>
  </outline>
</glyph>
<glyph name="uni0326" format="1">
  <advance width="149"/>
  <unicode hex="0326"/>
  <outline>
    <contour>
      <point x="48" y="-246" type="line" smooth="yes"/>
      <point x="66" y="-246"/>
      <point x="73" y="-243"/>
      <point x="81" y="-232" type="curve" smooth="yes"/>
      <point x="135" y="-165" type="line" smooth="yes"/>
      <point x="136" y="-162"/>
      <point x="139" y="-157"/>
      <point x="139" y="-152" type="curve" smooth="yes"/>
      <point x="139" y="-65" type="line" smooth="yes"/>
      <point x="139" y="-55"/>
      <point x="133" y="-49"/>
      <point x="122" y="-49" type="curve" smooth="yes"/>
      <point x="28" y="-49" type="line" smooth="yes"/>
      <point x="18" y="-49"/>
      <point x="10" y="-55"/>
      <point x="10" y="-69" type="curve" smooth="yes"/>
      <point x="10" y="-130" type="line" smooth="yes"/>
      <point x="10" y="-146"/>
      <point x="16" y="-152"/>
      <point x="33" y="-152" type="curve" smooth="yes"/>
      <point x="42" y="-152" type="line" smooth="yes"/>
      <point x="56" y="-152"/>
      <point x="62" y="-167"/>
      <point x="51" y="-181" type="curve" smooth="yes"/>
      <point x="18" y="-226" type="line" smooth="yes"/>
      <point x="12" y="-234"/>
      <point x="19" y="-246"/>
      <point x="30" y="-246" type="curve" smooth="yes"/>
    </contour>
    <contour>
      <point x="75" y="0" type="move" name="_bottom"/>
    </contour>
  </outline>
</glyph>
<glyph name="uni0328" format="1">
  <advance width="260"/>
  <unicode hex="0328"/>
  <outline>
    <contour>
      <point x="10" y="-147"/>
      <point x="59" y="-174"/>
      <point x="131" y="-174" type="curve" smooth="yes"/>
      <point x="179" y="-174"/>
      <point x="222" y="-163"/>
      <point x="240" y="-153" type="curve" smooth="yes"/>
      <point x="247" y="-149"/>
      <point x="250" y="-143"/>
      <point x="250" y="-135" type="curve" smooth="yes"/>
      <point x="250" y="-83" type="line" smooth="yes"/>
      <point x="250" y="-70"/>
      <point x="246" y="-65"/>
      <point x="232" y="-72" type="curve" smooth="yes"/>
      <point x="214" y="-81"/>
      <point x="198" y="-88"/>
      <point x="176" y="-88" type="curve" smooth="yes"/>
      <point x="157" y="-88"/>
      <point x="148" y="-79"/>
      <point x="148" y="-59" type="curve" smooth="yes"/>
      <point x="148" y="-37"/>
      <point x="165" y="-18"/>
      <point x="240" y="6" type="curve"/>
      <point x="104" y="6" type="line"/>
      <point x="26" y="-22"/>
      <point x="10" y="-53"/>
      <point x="10" y="-87" type="curve" smooth="yes"/>
    </contour>
    <contour>
      <point x="218" y="10" type="move" name="_ogonek"/>
    </contour>
  </outline>
</glyph>
<glyph name="uni032E" format="1">
  <advance width="497"/>
  <unicode hex="032E"/>
  <outline>
    <component base="uni0306" xOffset="37" yOffset="555" yScale="-1"/>
    <contour>
      <point x="249" y="0" type="move" name="_bottom"/>
    </contour>
    <contour>
      <point x="249" y="-187" type="move" name="bottom"/>
    </contour>
  </outline>
</glyph>
<glyph name="uni0331" format="1">
  <advance width="562"/>
  <unicode hex="0331"/>
  <outline>
    <contour>
      <point x="462" y="-48"/>
      <point x="455" y="-40"/>
      <point x="444" y="-40" type="curve" smooth="yes"/>
      <point x="119" y="-40" type="line" smooth="yes"/>
      <point x="107" y="-40"/>
      <point x="100" y="-48"/>
      <point x="100" y="-63" type="curve" smooth="yes"/>
      <point x="100" y="-155" type="line" smooth="yes"/>
      <point x="100" y="-172"/>
      <point x="106" y="-180"/>
      <point x="126" y="-180" type="curve" smooth="yes"/>
      <point x="429" y="-180" type="line" smooth="yes"/>
      <point x="452" y="-180"/>
      <point x="462" y="-172"/>
      <point x="462" y="-152" type="curve" smooth="yes"/>
      <point x="462" y="-60" type="line" smooth="yes"/>
    </contour>
    <contour>
      <point x="281" y="0" type="move" name="_bottom"/>
    </contour>
    <contour>
      <point x="281" y="-180" type="move" name="bottom"/>
    </contour>
  </outline>
</glyph>
<glyph name="uni0335" format="1">
  <advance width="530"/>
  <unicode hex="0335"/>
  <outline>
    <contour>
      <point x="456" y="193" type="line" smooth="yes"/>
      <point x="479" y="193"/>
      <point x="489" y="201"/>
      <point x="489" y="221" type="curve" smooth="yes"/>
      <point x="489" y="313" type="line" smooth="yes"/>
      <point x="489" y="325"/>
      <point x="482" y="333"/>
      <point x="471" y="333" type="curve" smooth="yes"/>
      <point x="60" y="333" type="line" smooth="yes"/>
      <point x="48" y="333"/>
      <point x="41" y="325"/>
      <point x="41" y="310" type="curve" smooth="yes"/>
      <point x="41" y="218" type="line" smooth="yes"/>
      <point x="41" y="201"/>
      <point x="47" y="193"/>
      <point x="67" y="193" type="curve" smooth="yes"/>
    </contour>
    <contour>
      <point x="265" y="263" type="move" name="_center"/>
    </contour>
  </outline>
</glyph>
<glyph name="uni0402" format="1">
  <advance width="847"/>
  <unicode hex="0402"/>
  <outline>
    <contour>
      <point x="540" y="505"/>
      <point x="491" y="498"/>
      <point x="424" y="473" type="curve"/>
      <point x="415" y="468"/>
      <point x="409" y="468"/>
      <point x="409" y="478" type="curve" smooth="yes"/>
      <point x="409" y="581" type="line"/>
      <point x="594" y="581" type="line" smooth="yes"/>
      <point x="607" y="581"/>
      <point x="616" y="586"/>
      <point x="616" y="600" type="curve" smooth="yes"/>
      <point x="616" y="719" type="line" smooth="yes"/>
      <point x="616" y="732"/>
      <point x="608" y="742"/>
      <point x="591" y="742" type="curve" smooth="yes"/>
      <point x="53" y="742" type="line" smooth="yes"/>
      <point x="36" y="742"/>
      <point x="28" y="732"/>
      <point x="28" y="719" type="curve" smooth="yes"/>
      <point x="28" y="600" type="line" smooth="yes"/>
      <point x="28" y="586"/>
      <point x="37" y="581"/>
      <point x="51" y="581" type="curve" smooth="yes"/>
      <point x="182" y="581" type="line"/>
      <point x="182" y="24" type="line" smooth="yes"/>
      <point x="182" y="9"/>
      <point x="190" y="0"/>
      <point x="204" y="0" type="curve" smooth="yes"/>
      <point x="387" y="0" type="line" smooth="yes"/>
      <point x="401" y="0"/>
      <point x="409" y="9"/>
      <point x="409" y="27" type="curve" smooth="yes"/>
      <point x="409" y="313" type="line"/>
      <point x="439" y="334"/>
      <point x="472" y="342"/>
      <point x="514" y="342" type="curve" smooth="yes"/>
      <point x="564" y="342"/>
      <point x="590" y="307"/>
      <point x="590" y="258" type="curve" smooth="yes"/>
      <point x="590" y="197"/>
      <point x="568" y="175"/>
      <point x="532" y="175" type="curve" smooth="yes"/>
      <point x="513" y="175"/>
      <point x="503" y="176"/>
      <point x="488" y="178" type="curve" smooth="yes"/>
      <point x="472" y="180"/>
      <point x="465" y="169"/>
      <point x="464" y="154" type="curve" smooth="yes"/>
      <point x="455" y="40" type="line" smooth="yes"/>
      <point x="453" y="12"/>
      <point x="463" y="1"/>
      <point x="486" y="-3" type="curve" smooth="yes"/>
      <point x="521" y="-9"/>
      <point x="547" y="-10"/>
      <point x="579" y="-10" type="curve" smooth="yes"/>
      <point x="719" y="-10"/>
      <point x="807" y="107"/>
      <point x="807" y="268" type="curve" smooth="yes"/>
      <point x="807" y="426"/>
      <point x="722" y="505"/>
      <point x="600" y="505" type="curve" smooth="yes"/>
    </contour>
  </outline>
</glyph>
<glyph name="uni0404" format="1">
  <advance width="737"/>
  <unicode hex="0404"/>
  <outline>
    <contour>
      <point x="150" y="339" type="line" smooth="yes"/>
      <point x="150" y="319"/>
      <point x="160" y="311"/>
      <point x="183" y="311" type="curve" smooth="yes"/>
      <point x="422" y="311" type="line" smooth="yes"/>
      <point x="442" y="311"/>
      <point x="448" y="319"/>
      <point x="448" y="336" type="curve" smooth="yes"/>
      <point x="448" y="428" type="line" smooth="yes"/>
      <point x="448" y="443"/>
      <point x="441" y="451"/>
      <point x="429" y="451" type="curve" smooth="yes"/>
      <point x="168" y="451" type="line" smooth="yes"/>
      <point x="157" y="451"/>
      <point x="150" y="443"/>
      <point x="150" y="431" type="curve" smooth="yes"/>
    </contour>
    <component base="C"/>
  </outline>
</glyph>
<glyph name="uni0409" format="1">
  <advance width="1095"/>
  <unicode hex="0409"/>
  <outline>
    <contour>
      <point x="806" y="0" type="line" smooth="yes"/>
      <point x="948" y="0"/>
      <point x="1067" y="83"/>
      <point x="1067" y="251" type="curve" smooth="yes"/>
      <point x="1067" y="403"/>
      <point x="971" y="496"/>
      <point x="832" y="496" type="curve" smooth="yes"/>
      <point x="725" y="496" type="line" smooth="yes"/>
      <point x="716" y="496"/>
      <point x="713" y="500"/>
      <point x="713" y="507" type="curve" smooth="yes"/>
      <point x="713" y="645" type="line"/>
      <point x="590" y="645" type="line"/>
      <point x="590" y="0" type="line"/>
    </contour>
    <contour>
      <point x="719" y="160"/>
      <point x="713" y="166"/>
      <point x="713" y="181" type="curve" smooth="yes"/>
      <point x="713" y="314" type="line" smooth="yes"/>
      <point x="713" y="329"/>
      <point x="717" y="336"/>
      <point x="730" y="336" type="curve" smooth="yes"/>
      <point x="798" y="336" type="line" smooth="yes"/>
      <point x="846" y="336"/>
      <point x="875" y="297"/>
      <point x="875" y="248" type="curve" smooth="yes"/>
      <point x="875" y="194"/>
      <point x="838" y="160"/>
      <point x="792" y="160" type="curve" smooth="yes"/>
      <point x="736" y="160" type="line" smooth="yes"/>
    </contour>
    <component base="uni041B"/>
  </outline>
</glyph>
<glyph name="uni040A" format="1">
  <advance width="1132"/>
  <unicode hex="040A"/>
  <outline>
    <contour>
      <point x="593" y="0" type="line"/>
      <point x="803" y="0" type="line" smooth="yes"/>
      <point x="967" y="0"/>
      <point x="1104" y="79"/>
      <point x="1104" y="239" type="curve" smooth="yes"/>
      <point x="1104" y="382"/>
      <point x="992" y="469"/>
      <point x="829" y="469" type="curve" smooth="yes"/>
      <point x="722" y="469" type="line" smooth="yes"/>
      <point x="713" y="469"/>
      <point x="710" y="473"/>
      <point x="710" y="480" type="curve" smooth="yes"/>
      <point x="710" y="616" type="line"/>
      <point x="593" y="616" type="line"/>
    </contour>
    <contour>
      <point x="872" y="189"/>
      <point x="835" y="160"/>
      <point x="789" y="160" type="curve" smooth="yes"/>
      <point x="733" y="160" type="line" smooth="yes"/>
      <point x="716" y="160"/>
      <point x="710" y="166"/>
      <point x="710" y="181" type="curve" smooth="yes"/>
      <point x="710" y="287" type="line" smooth="yes"/>
      <point x="710" y="302"/>
      <point x="714" y="309"/>
      <point x="727" y="309" type="curve" smooth="yes"/>
      <point x="795" y="309" type="line" smooth="yes"/>
      <point x="843" y="309"/>
      <point x="872" y="276"/>
      <point x="872" y="236" type="curve" smooth="yes"/>
    </contour>
    <component base="uni041D"/>
  </outline>
</glyph>
<glyph name="uni040B" format="1">
  <advance width="847"/>
  <unicode hex="040B"/>
  <outline>
    <contour>
      <point x="783" y="0" type="line" smooth="yes"/>
      <point x="807" y="0"/>
      <point x="817" y="12"/>
      <point x="817" y="35" type="curve" smooth="yes"/>
      <point x="817" y="290" type="line" smooth="yes"/>
      <point x="817" y="426"/>
      <point x="746" y="505"/>
      <point x="620" y="505" type="curve" smooth="yes"/>
      <point x="554" y="505"/>
      <point x="499" y="498"/>
      <point x="424" y="473" type="curve" smooth="yes"/>
      <point x="415" y="468"/>
      <point x="409" y="468"/>
      <point x="409" y="478" type="curve"/>
      <point x="409" y="313" type="line"/>
      <point x="439" y="334"/>
      <point x="472" y="342"/>
      <point x="514" y="342" type="curve" smooth="yes"/>
      <point x="564" y="342"/>
      <point x="590" y="311"/>
      <point x="590" y="259" type="curve" smooth="yes"/>
      <point x="590" y="30" type="line" smooth="yes"/>
      <point x="590" y="7"/>
      <point x="597" y="0"/>
      <point x="617" y="0" type="curve" smooth="yes"/>
    </contour>
    <contour>
      <point x="387" y="0" type="line" smooth="yes"/>
      <point x="401" y="0"/>
      <point x="409" y="9"/>
      <point x="409" y="27" type="curve" smooth="yes"/>
      <point x="409" y="712" type="line" smooth="yes"/>
      <point x="409" y="733"/>
      <point x="402" y="742"/>
      <point x="379" y="742" type="curve" smooth="yes"/>
      <point x="221" y="742" type="line" smooth="yes"/>
      <point x="194" y="742"/>
      <point x="182" y="733"/>
      <point x="182" y="707" type="curve" smooth="yes"/>
      <point x="182" y="24" type="line" smooth="yes"/>
      <point x="182" y="9"/>
      <point x="190" y="0"/>
      <point x="204" y="0" type="curve" smooth="yes"/>
    </contour>
    <contour>
      <point x="594" y="581" type="line"/>
      <point x="607" y="581"/>
      <point x="616" y="586"/>
      <point x="616" y="600" type="curve" smooth="yes"/>
      <point x="616" y="719" type="line" smooth="yes"/>
      <point x="616" y="732"/>
      <point x="608" y="742"/>
      <point x="591" y="742" type="curve" smooth="yes"/>
      <point x="53" y="742" type="line" smooth="yes"/>
      <point x="36" y="742"/>
      <point x="28" y="732"/>
      <point x="28" y="719" type="curve" smooth="yes"/>
      <point x="28" y="600" type="line" smooth="yes"/>
      <point x="28" y="586"/>
      <point x="37" y="581"/>
      <point x="51" y="581" type="curve"/>
    </contour>
  </outline>
</glyph>
<glyph name="uni040F" format="1">
  <advance width="730"/>
  <unicode hex="040F"/>
  <outline>
    <contour>
      <point x="435" y="-130" type="line" smooth="yes"/>
      <point x="456" y="-130"/>
      <point x="462" y="-122"/>
      <point x="462" y="-105" type="curve" smooth="yes"/>
      <point x="462" y="-15" type="line" smooth="yes"/>
      <point x="462" y="-7"/>
      <point x="468" y="0"/>
      <point x="478" y="0" type="curve" smooth="yes"/>
      <point x="659" y="0" type="line" smooth="yes"/>
      <point x="670" y="0"/>
      <point x="678" y="8"/>
      <point x="678" y="23" type="curve" smooth="yes"/>
      <point x="678" y="717" type="line" smooth="yes"/>
      <point x="678" y="734"/>
      <point x="672" y="742"/>
      <point x="651" y="742" type="curve" smooth="yes"/>
      <point x="484" y="742" type="line" smooth="yes"/>
      <point x="461" y="742"/>
      <point x="451" y="734"/>
      <point x="451" y="713" type="curve" smooth="yes"/>
      <point x="451" y="187" type="line" smooth="yes"/>
      <point x="451" y="179"/>
      <point x="445" y="172"/>
      <point x="435" y="172" type="curve" smooth="yes"/>
      <point x="303" y="172" type="line" smooth="yes"/>
      <point x="293" y="172"/>
      <point x="287" y="179"/>
      <point x="287" y="187" type="curve" smooth="yes"/>
      <point x="287" y="713" type="line" smooth="yes"/>
      <point x="287" y="734"/>
      <point x="277" y="742"/>
      <point x="254" y="742" type="curve" smooth="yes"/>
      <point x="87" y="742" type="line" smooth="yes"/>
      <point x="66" y="742"/>
      <point x="60" y="734"/>
      <point x="60" y="717" type="curve" smooth="yes"/>
      <point x="60" y="23" type="line" smooth="yes"/>
      <point x="60" y="8"/>
      <point x="68" y="0"/>
      <point x="79" y="0" type="curve" smooth="yes"/>
      <point x="259" y="0" type="line" smooth="yes"/>
      <point x="269" y="0"/>
      <point x="275" y="-7"/>
      <point x="275" y="-15" type="curve" smooth="yes"/>
      <point x="275" y="-101" type="line" smooth="yes"/>
      <point x="275" y="-122"/>
      <point x="285" y="-130"/>
      <point x="308" y="-130" type="curve" smooth="yes"/>
    </contour>
  </outline>
</glyph>
<glyph name="uni0411" format="1">
  <advance width="740"/>
  <unicode hex="0411"/>
  <outline>
    <contour>
      <point x="299" y="476" type="line" smooth="yes"/>
      <point x="290" y="476"/>
      <point x="287" y="480"/>
      <point x="287" y="487" type="curve" smooth="yes"/>
      <point x="287" y="559" type="line" smooth="yes"/>
      <point x="287" y="572"/>
      <point x="294" y="578"/>
      <point x="310" y="578" type="curve" smooth="yes"/>
      <point x="624" y="578" type="line" smooth="yes"/>
      <point x="642" y="578"/>
      <point x="649" y="589"/>
      <point x="649" y="605" type="curve" smooth="yes"/>
      <point x="650" y="721" type="line" smooth="yes"/>
      <point x="650" y="734"/>
      <point x="644" y="742"/>
      <point x="632" y="742" type="curve" smooth="yes"/>
      <point x="60" y="742" type="line"/>
      <point x="60" y="23" type="line" smooth="yes"/>
      <point x="60" y="8"/>
      <point x="67" y="0"/>
      <point x="79" y="0" type="curve" smooth="yes"/>
      <point x="410" y="0" type="line" smooth="yes"/>
      <point x="574" y="0"/>
      <point x="711" y="80"/>
      <point x="711" y="241" type="curve" smooth="yes"/>
      <point x="711" y="387"/>
      <point x="599" y="476"/>
      <point x="436" y="476" type="curve" smooth="yes"/>
    </contour>
    <contour>
      <point x="310" y="160" type="line" smooth="yes"/>
      <point x="293" y="160"/>
      <point x="287" y="166"/>
      <point x="287" y="181" type="curve" smooth="yes"/>
      <point x="287" y="294" type="line" smooth="yes"/>
      <point x="287" y="309"/>
      <point x="291" y="316"/>
      <point x="304" y="316" type="curve" smooth="yes"/>
      <point x="402" y="316" type="line" smooth="yes"/>
      <point x="450" y="316"/>
      <point x="479" y="281"/>
      <point x="479" y="238" type="curve" smooth="yes"/>
      <point x="479" y="190"/>
      <point x="442" y="160"/>
      <point x="396" y="160" type="curve" smooth="yes"/>
    </contour>
  </outline>
</glyph>
<glyph name="uni0413" format="1">
  <advance width="628"/>
  <unicode hex="0413"/>
  <outline>
    <contour>
      <point x="60" y="25" type="line" smooth="yes"/>
      <point x="60" y="8"/>
      <point x="66" y="0"/>
      <point x="87" y="0" type="curve"/>
      <point x="254" y="0" type="line" smooth="yes"/>
      <point x="277" y="0"/>
      <point x="287" y="8"/>
      <point x="287" y="29" type="curve"/>
      <point x="287" y="559" type="line"/>
      <point x="287" y="572"/>
      <point x="294" y="578"/>
      <point x="310" y="578" type="curve" smooth="yes"/>
      <point x="574" y="578" type="line" smooth="yes"/>
      <point x="592" y="578"/>
      <point x="599" y="589"/>
      <point x="599" y="605" type="curve" smooth="yes"/>
      <point x="600" y="721" type="line" smooth="yes"/>
      <point x="600" y="734"/>
      <point x="594" y="742"/>
      <point x="582" y="742" type="curve" smooth="yes"/>
      <point x="79" y="742" type="line" smooth="yes"/>
      <point x="68" y="742"/>
      <point x="60" y="734"/>
      <point x="60" y="719" type="curve" smooth="yes"/>
    </contour>
    <contour>
      <point x="178" y="371" type="move" name="center"/>
    </contour>
    <contour>
      <point x="83" y="0" type="move" name="bottomright"/>
    </contour>
    <contour>
      <point x="417" y="742" type="move" name="top"/>
    </contour>
  </outline>
</glyph>
<glyph name="uni0414" format="1">
  <advance width="849"/>
  <unicode hex="0414"/>
  <outline>
    <contour>
      <point x="204" y="-130" type="line" smooth="yes"/>
      <point x="227" y="-130"/>
      <point x="237" y="-122"/>
      <point x="237" y="-101" type="curve" smooth="yes"/>
      <point x="237" y="-15" type="line" smooth="yes"/>
      <point x="237" y="-7"/>
      <point x="243" y="0"/>
      <point x="253" y="0" type="curve" smooth="yes"/>
      <point x="601" y="0" type="line" smooth="yes"/>
      <point x="611" y="0"/>
      <point x="617" y="-7"/>
      <point x="617" y="-15" type="curve" smooth="yes"/>
      <point x="617" y="-101" type="line" smooth="yes"/>
      <point x="617" y="-122"/>
      <point x="627" y="-130"/>
      <point x="650" y="-130" type="curve" smooth="yes"/>
      <point x="777" y="-130" type="line" smooth="yes"/>
      <point x="798" y="-130"/>
      <point x="804" y="-122"/>
      <point x="804" y="-105" type="curve" smooth="yes"/>
      <point x="804" y="149" type="line" smooth="yes"/>
      <point x="804" y="164"/>
      <point x="796" y="172"/>
      <point x="785" y="172" type="curve" smooth="yes"/>
      <point x="733" y="172" type="line"/>
      <point x="721" y="172"/>
      <point x="714" y="180"/>
      <point x="714" y="195" type="curve"/>
      <point x="714" y="717" type="line" smooth="yes"/>
      <point x="714" y="734"/>
      <point x="708" y="742"/>
      <point x="687" y="742" type="curve" smooth="yes"/>
      <point x="205" y="742" type="line" smooth="yes"/>
      <point x="194" y="742"/>
      <point x="186" y="734"/>
      <point x="186" y="719" type="curve"/>
      <point x="366" y="563" type="line"/>
      <point x="366" y="571"/>
      <point x="372" y="578"/>
      <point x="382" y="578" type="curve" smooth="yes"/>
      <point x="491" y="578" type="line" smooth="yes"/>
      <point x="501" y="578"/>
      <point x="507" y="571"/>
      <point x="507" y="563" type="curve" smooth="yes"/>
      <point x="507" y="187" type="line" smooth="yes"/>
      <point x="507" y="179"/>
      <point x="501" y="172"/>
      <point x="491" y="172" type="curve" smooth="yes"/>
      <point x="59" y="172" type="line" smooth="yes"/>
      <point x="48" y="172"/>
      <point x="40" y="164"/>
      <point x="40" y="149" type="curve" smooth="yes"/>
      <point x="40" y="-105" type="line" smooth="yes"/>
      <point x="40" y="-122"/>
      <point x="46" y="-130"/>
      <point x="67" y="-130" type="curve" smooth="yes"/>
    </contour>
    <contour>
      <point x="284" y="54"/>
      <point x="368" y="253"/>
      <point x="366" y="546" type="curve" smooth="yes"/>
      <point x="365" y="719" type="line"/>
      <point x="186" y="719" type="line"/>
      <point x="186" y="558" type="line" smooth="yes"/>
      <point x="186" y="312"/>
      <point x="146" y="172"/>
      <point x="66" y="172" type="curve"/>
      <point x="66" y="86" type="line"/>
    </contour>
  </outline>
</glyph>
<glyph name="uni0416" format="1">
  <advance width="1092"/>
  <unicode hex="0416"/>
  <outline>
    <contour>
      <point x="134" y="0" type="line" smooth="yes"/>
      <point x="229" y="0"/>
      <point x="271" y="28"/>
      <point x="288" y="116" type="curve" smooth="yes"/>
      <point x="309" y="227" type="line" smooth="yes"/>
      <point x="321" y="290"/>
      <point x="346" y="297"/>
      <point x="381" y="297" type="curve" smooth="yes"/>
      <point x="417" y="297" type="line" smooth="yes"/>
      <point x="427" y="297"/>
      <point x="433" y="290"/>
      <point x="433" y="282" type="curve" smooth="yes"/>
      <point x="433" y="25" type="line" smooth="yes"/>
      <point x="433" y="8"/>
      <point x="439" y="0"/>
      <point x="460" y="0" type="curve" smooth="yes"/>
      <point x="627" y="0" type="line" smooth="yes"/>
      <point x="650" y="0"/>
      <point x="660" y="8"/>
      <point x="660" y="29" type="curve" smooth="yes"/>
      <point x="660" y="282" type="line" smooth="yes"/>
      <point x="660" y="290"/>
      <point x="666" y="297"/>
      <point x="676" y="297" type="curve" smooth="yes"/>
      <point x="712" y="297" type="line" smooth="yes"/>
      <point x="747" y="297"/>
      <point x="762" y="290"/>
      <point x="774" y="227" type="curve" smooth="yes"/>
      <point x="794" y="126" type="line" smooth="yes"/>
      <point x="811" y="38"/>
      <point x="844" y="0"/>
      <point x="959" y="0" type="curve" smooth="yes"/>
      <point x="1034" y="0" type="line" smooth="yes"/>
      <point x="1047" y="0"/>
      <point x="1052" y="5"/>
      <point x="1052" y="18" type="curve" smooth="yes"/>
      <point x="1052" y="111" type="line" smooth="yes"/>
      <point x="1052" y="122"/>
      <point x="1046" y="127"/>
      <point x="1034" y="127" type="curve" smooth="yes"/>
      <point x="1016" y="127"/>
      <point x="1014" y="139"/>
      <point x="1008" y="170" type="curve" smooth="yes"/>
      <point x="988" y="276" type="line" smooth="yes"/>
      <point x="970" y="373"/>
      <point x="884" y="406"/>
      <point x="815" y="412" type="curve"/>
      <point x="732" y="469" type="line"/>
      <point x="678" y="469" type="line" smooth="yes"/>
      <point x="667" y="469"/>
      <point x="660" y="476"/>
      <point x="660" y="489" type="curve" smooth="yes"/>
      <point x="660" y="721" type="line" smooth="yes"/>
      <point x="660" y="734"/>
      <point x="653" y="742"/>
      <point x="642" y="742" type="curve" smooth="yes"/>
      <point x="452" y="742" type="line" smooth="yes"/>
      <point x="441" y="742"/>
      <point x="433" y="734"/>
      <point x="433" y="719" type="curve" smooth="yes"/>
      <point x="433" y="489" type="line" smooth="yes"/>
      <point x="433" y="476"/>
      <point x="426" y="469"/>
      <point x="415" y="469" type="curve" smooth="yes"/>
      <point x="361" y="469" type="line"/>
      <point x="278" y="412" type="line"/>
      <point x="189" y="406"/>
      <point x="120" y="362"/>
      <point x="104" y="276" type="curve" smooth="yes"/>
      <point x="84" y="170" type="line" smooth="yes"/>
      <point x="78" y="139"/>
      <point x="76" y="127"/>
      <point x="58" y="127" type="curve" smooth="yes"/>
      <point x="46" y="127"/>
      <point x="40" y="122"/>
      <point x="40" y="111" type="curve" smooth="yes"/>
      <point x="40" y="18" type="line" smooth="yes"/>
      <point x="40" y="5"/>
      <point x="45" y="0"/>
      <point x="58" y="0" type="curve" smooth="yes"/>
    </contour>
    <contour>
      <point x="387" y="469" type="line"/>
      <point x="376" y="469"/>
      <point x="371" y="474"/>
      <point x="365" y="488" type="curve" smooth="yes"/>
      <point x="264" y="721" type="line" smooth="yes"/>
      <point x="258" y="736"/>
      <point x="245" y="742"/>
      <point x="221" y="742" type="curve" smooth="yes"/>
      <point x="73" y="742" type="line" smooth="yes"/>
      <point x="51" y="742"/>
      <point x="44" y="729"/>
      <point x="52" y="713" type="curve" smooth="yes"/>
      <point x="200" y="425" type="line" smooth="yes"/>
      <point x="206" y="413"/>
      <point x="209" y="400"/>
      <point x="202" y="396" type="curve"/>
      <point x="396" y="373" type="line"/>
    </contour>
    <contour>
      <point x="888" y="396" type="line"/>
      <point x="881" y="400"/>
      <point x="885" y="413"/>
      <point x="891" y="425" type="curve" smooth="yes"/>
      <point x="1040" y="713" type="line" smooth="yes"/>
      <point x="1049" y="731"/>
      <point x="1041" y="742"/>
      <point x="1019" y="742" type="curve" smooth="yes"/>
      <point x="871" y="742" type="line" smooth="yes"/>
      <point x="847" y="742"/>
      <point x="834" y="736"/>
      <point x="828" y="721" type="curve" smooth="yes"/>
      <point x="728" y="488" type="line" smooth="yes"/>
      <point x="722" y="474"/>
      <point x="717" y="469"/>
      <point x="706" y="469" type="curve"/>
      <point x="697" y="373" type="line"/>
    </contour>
    <contour>
      <point x="547" y="742" type="move" name="top"/>
    </contour>
    <contour>
      <point x="986" y="0" type="move" name="bottomright"/>
    </contour>
  </outline>
</glyph>
<glyph name="uni0417" format="1">
  <advance width="681"/>
  <unicode hex="0417"/>
  <outline>
    <contour>
      <point x="534" y="-10"/>
      <point x="652" y="78"/>
      <point x="652" y="221" type="curve" smooth="yes"/>
      <point x="652" y="299"/>
      <point x="615" y="346"/>
      <point x="553" y="372" type="curve" smooth="yes"/>
      <point x="538" y="377"/>
      <point x="539" y="388"/>
      <point x="554" y="393" type="curve" smooth="yes"/>
      <point x="608" y="415"/>
      <point x="636" y="469"/>
      <point x="636" y="529" type="curve" smooth="yes"/>
      <point x="636" y="654"/>
      <point x="515" y="752"/>
      <point x="354" y="752" type="curve" smooth="yes"/>
      <point x="170" y="752"/>
      <point x="64" y="646"/>
      <point x="39" y="522" type="curve" smooth="yes"/>
      <point x="33" y="494"/>
      <point x="37" y="489"/>
      <point x="52" y="487" type="curve"/>
      <point x="212" y="476" type="line"/>
      <point x="227" y="476"/>
      <point x="228" y="481"/>
      <point x="231" y="495" type="curve" smooth="yes"/>
      <point x="245" y="553"/>
      <point x="290" y="599"/>
      <point x="355" y="599" type="curve" smooth="yes"/>
      <point x="408" y="599"/>
      <point x="440" y="569"/>
      <point x="440" y="524" type="curve" smooth="yes"/>
      <point x="440" y="488"/>
      <point x="420" y="452"/>
      <point x="380" y="452" type="curve" smooth="yes"/>
      <point x="306" y="452" type="line" smooth="yes"/>
      <point x="293" y="452"/>
      <point x="285" y="445"/>
      <point x="285" y="435" type="curve" smooth="yes"/>
      <point x="285" y="315" type="line" smooth="yes"/>
      <point x="285" y="303"/>
      <point x="292" y="298"/>
      <point x="306" y="298" type="curve" smooth="yes"/>
      <point x="380" y="298" type="line" smooth="yes"/>
      <point x="429" y="298"/>
      <point x="454" y="271"/>
      <point x="454" y="230" type="curve" smooth="yes"/>
      <point x="454" y="184"/>
      <point x="422" y="154"/>
      <point x="354" y="154" type="curve" smooth="yes"/>
      <point x="281" y="154"/>
      <point x="230" y="187"/>
      <point x="199" y="264" type="curve" smooth="yes"/>
      <point x="193" y="281"/>
      <point x="184" y="282"/>
      <point x="168" y="279" type="curve" smooth="yes"/>
      <point x="42" y="254" type="line" smooth="yes"/>
      <point x="28" y="251"/>
      <point x="22" y="242"/>
      <point x="28" y="221" type="curve" smooth="yes"/>
      <point x="67" y="81"/>
      <point x="193" y="-10"/>
      <point x="364" y="-10" type="curve" smooth="yes"/>
    </contour>
    <contour>
      <point x="364" y="742" type="move" name="top"/>
    </contour>
    <contour>
      <point x="354" y="0" type="move" name="bottom"/>
    </contour>
  </outline>
</glyph>
<glyph name="uni0418" format="1">
  <advance width="804"/>
  <unicode hex="0418"/>
  <outline>
    <contour>
      <point x="75" y="742" type="line" smooth="yes"/>
      <point x="65" y="742"/>
      <point x="60" y="736"/>
      <point x="60" y="725" type="curve" smooth="yes"/>
      <point x="60" y="18" type="line" smooth="yes"/>
      <point x="60" y="7"/>
      <point x="70" y="0"/>
      <point x="83" y="0" type="curve" smooth="yes"/>
      <point x="255" y="0" type="line" smooth="yes"/>
      <point x="266" y="0"/>
      <point x="274" y="1"/>
      <point x="282" y="15" type="curve" smooth="yes"/>
      <point x="512" y="408" type="line" smooth="yes"/>
      <point x="516" y="415"/>
      <point x="522" y="413"/>
      <point x="522" y="406" type="curve" smooth="yes"/>
      <point x="522" y="22" type="line" smooth="yes"/>
      <point x="522" y="6"/>
      <point x="528" y="0"/>
      <point x="546" y="0" type="curve" smooth="yes"/>
      <point x="719" y="0" type="line" smooth="yes"/>
      <point x="734" y="0"/>
      <point x="744" y="5"/>
      <point x="744" y="20" type="curve" smooth="yes"/>
      <point x="744" y="719" type="line" smooth="yes"/>
      <point x="744" y="735"/>
      <point x="737" y="742"/>
      <point x="722" y="742" type="curve" smooth="yes"/>
      <point x="556" y="742" type="line" smooth="yes"/>
      <point x="539" y="742"/>
      <point x="532" y="740"/>
      <point x="522" y="724" type="curve" smooth="yes"/>
      <point x="298" y="350" type="line" smooth="yes"/>
      <point x="290" y="337"/>
      <point x="282" y="338"/>
      <point x="282" y="354" type="curve" smooth="yes"/>
      <point x="282" y="721" type="line" smooth="yes"/>
      <point x="282" y="734"/>
      <point x="275" y="742"/>
      <point x="260" y="742" type="curve" smooth="yes"/>
    </contour>
    <contour>
      <point x="412" y="742" type="move" name="top"/>
    </contour>
    <contour>
      <point x="722" y="0" type="move" name="bottomright"/>
    </contour>
  </outline>
</glyph>
<glyph name="uni041A" format="1">
  <advance width="739"/>
  <unicode hex="041A"/>
  <outline>
    <contour>
      <point x="254" y="0" type="line" smooth="yes"/>
      <point x="277" y="0"/>
      <point x="287" y="8"/>
      <point x="287" y="29" type="curve" smooth="yes"/>
      <point x="287" y="282" type="line" smooth="yes"/>
      <point x="287" y="290"/>
      <point x="293" y="297"/>
      <point x="303" y="297" type="curve" smooth="yes"/>
      <point x="359" y="297" type="line" smooth="yes"/>
      <point x="394" y="297"/>
      <point x="409" y="290"/>
      <point x="421" y="227" type="curve" smooth="yes"/>
      <point x="441" y="126" type="line" smooth="yes"/>
      <point x="460" y="28"/>
      <point x="511" y="0"/>
      <point x="586" y="0" type="curve" smooth="yes"/>
      <point x="681" y="0" type="line" smooth="yes"/>
      <point x="694" y="0"/>
      <point x="699" y="5"/>
      <point x="699" y="18" type="curve" smooth="yes"/>
      <point x="699" y="111" type="line" smooth="yes"/>
      <point x="699" y="122"/>
      <point x="693" y="127"/>
      <point x="681" y="127" type="curve" smooth="yes"/>
      <point x="663" y="127"/>
      <point x="661" y="139"/>
      <point x="655" y="170" type="curve" smooth="yes"/>
      <point x="635" y="276" type="line" smooth="yes"/>
      <point x="619" y="363"/>
      <point x="557" y="406"/>
      <point x="450" y="412" type="curve"/>
      <point x="349" y="469" type="line"/>
      <point x="305" y="469" type="line" smooth="yes"/>
      <point x="294" y="469"/>
      <point x="287" y="476"/>
      <point x="287" y="489" type="curve" smooth="yes"/>
      <point x="287" y="721" type="line" smooth="yes"/>
      <point x="287" y="734"/>
      <point x="280" y="742"/>
      <point x="269" y="742" type="curve" smooth="yes"/>
      <point x="79" y="742" type="line" smooth="yes"/>
      <point x="68" y="742"/>
      <point x="60" y="734"/>
      <point x="60" y="719" type="curve" smooth="yes"/>
      <point x="60" y="25" type="line" smooth="yes"/>
      <point x="60" y="8"/>
      <point x="66" y="0"/>
      <point x="87" y="0" type="curve" smooth="yes"/>
    </contour>
    <contour>
      <point x="548" y="391" type="line"/>
      <point x="535" y="397"/>
      <point x="539" y="410"/>
      <point x="545" y="422" type="curve" smooth="yes"/>
      <point x="693" y="713" type="line" smooth="yes"/>
      <point x="701" y="729"/>
      <point x="694" y="742"/>
      <point x="672" y="742" type="curve" smooth="yes"/>
      <point x="517" y="742" type="line" smooth="yes"/>
      <point x="493" y="742"/>
      <point x="480" y="735"/>
      <point x="474" y="721" type="curve" smooth="yes"/>
      <point x="396" y="536" type="line" smooth="yes"/>
      <point x="380" y="497"/>
      <point x="362" y="469"/>
      <point x="328" y="469" type="curve"/>
      <point x="324" y="373" type="line"/>
    </contour>
    <contour>
      <point x="379" y="371" type="move" name="center"/>
    </contour>
    <contour>
      <point x="521" y="0" type="move" name="bottomright"/>
    </contour>
    <contour>
      <point x="369" y="742" type="move" name="top"/>
    </contour>
  </outline>
</glyph>
<glyph name="uni041B" format="1">
  <advance width="773"/>
  <unicode hex="041B"/>
  <outline>
    <contour>
      <point x="480" y="578"/>
      <point x="486" y="571"/>
      <point x="486" y="563" type="curve" smooth="yes"/>
      <point x="486" y="29" type="line" smooth="yes"/>
      <point x="486" y="8"/>
      <point x="496" y="0"/>
      <point x="519" y="0" type="curve" smooth="yes"/>
      <point x="686" y="0" type="line" smooth="yes"/>
      <point x="707" y="0"/>
      <point x="713" y="8"/>
      <point x="713" y="25" type="curve" smooth="yes"/>
      <point x="713" y="719" type="line" smooth="yes"/>
      <point x="713" y="734"/>
      <point x="705" y="742"/>
      <point x="694" y="742" type="curve" smooth="yes"/>
      <point x="194" y="742" type="line" smooth="yes"/>
      <point x="183" y="742"/>
      <point x="175" y="734"/>
      <point x="175" y="719" type="curve"/>
      <point x="345" y="563" type="line"/>
      <point x="345" y="571"/>
      <point x="351" y="578"/>
      <point x="361" y="578" type="curve" smooth="yes"/>
      <point x="470" y="578" type="line" smooth="yes"/>
    </contour>
    <contour>
      <point x="252" y="-52"/>
      <point x="345" y="139"/>
      <point x="345" y="546" type="curve" smooth="yes"/>
      <point x="345" y="719" type="line"/>
      <point x="175" y="719" type="line"/>
      <point x="175" y="558" type="line" smooth="yes"/>
      <point x="175" y="249"/>
      <point x="117" y="171"/>
      <point x="28" y="184" type="curve"/>
      <point x="14" y="7" type="line"/>
    </contour>
    <contour>
      <point x="539" y="0" type="move" name="bottomright"/>
    </contour>
  </outline>
</glyph>
<glyph name="uni041D" format="1">
  <advance width="778"/>
  <unicode hex="041D"/>
  <outline>
    <contour>
      <point x="485" y="297"/>
      <point x="491" y="290"/>
      <point x="491" y="282" type="curve" smooth="yes"/>
      <point x="491" y="19" type="line" smooth="yes"/>
      <point x="491" y="7"/>
      <point x="499" y="0"/>
      <point x="514" y="0" type="curve" smooth="yes"/>
      <point x="699" y="0" type="line" smooth="yes"/>
      <point x="711" y="0"/>
      <point x="718" y="8"/>
      <point x="718" y="23" type="curve" smooth="yes"/>
      <point x="718" y="719" type="line" smooth="yes"/>
      <point x="718" y="734"/>
      <point x="710" y="742"/>
      <point x="699" y="742" type="curve" smooth="yes"/>
      <point x="509" y="742" type="line" smooth="yes"/>
      <point x="498" y="742"/>
      <point x="491" y="734"/>
      <point x="491" y="721" type="curve" smooth="yes"/>
      <point x="491" y="489" type="line" smooth="yes"/>
      <point x="491" y="476"/>
      <point x="484" y="469"/>
      <point x="473" y="469" type="curve" smooth="yes"/>
      <point x="305" y="469" type="line" smooth="yes"/>
      <point x="294" y="469"/>
      <point x="287" y="476"/>
      <point x="287" y="489" type="curve" smooth="yes"/>
      <point x="287" y="721" type="line" smooth="yes"/>
      <point x="287" y="734"/>
      <point x="280" y="742"/>
      <point x="269" y="742" type="curve" smooth="yes"/>
      <point x="79" y="742" type="line" smooth="yes"/>
      <point x="68" y="742"/>
      <point x="60" y="734"/>
      <point x="60" y="719" type="curve" smooth="yes"/>
      <point x="60" y="25" type="line" smooth="yes"/>
      <point x="60" y="8"/>
      <point x="66" y="0"/>
      <point x="87" y="0" type="curve" smooth="yes"/>
      <point x="254" y="0" type="line" smooth="yes"/>
      <point x="277" y="0"/>
      <point x="287" y="8"/>
      <point x="287" y="29" type="curve" smooth="yes"/>
      <point x="287" y="282" type="line" smooth="yes"/>
      <point x="287" y="290"/>
      <point x="293" y="297"/>
      <point x="303" y="297" type="curve" smooth="yes"/>
      <point x="475" y="297" type="line" smooth="yes"/>
    </contour>
    <contour>
      <point x="544" y="0" type="move" name="bottomright"/>
    </contour>
  </outline>
</glyph>
<glyph name="uni041F" format="1">
  <advance width="778"/>
  <unicode hex="041F"/>
  <outline>
    <contour>
      <point x="485" y="578"/>
      <point x="491" y="571"/>
      <point x="491" y="563" type="curve" smooth="yes"/>
      <point x="491" y="29" type="line" smooth="yes"/>
      <point x="491" y="8"/>
      <point x="501" y="0"/>
      <point x="524" y="0" type="curve" smooth="yes"/>
      <point x="691" y="0" type="line" smooth="yes"/>
      <point x="712" y="0"/>
      <point x="718" y="8"/>
      <point x="718" y="25" type="curve" smooth="yes"/>
      <point x="718" y="719" type="line" smooth="yes"/>
      <point x="718" y="734"/>
      <point x="710" y="742"/>
      <point x="699" y="742" type="curve"/>
      <point x="79" y="742" type="line"/>
      <point x="68" y="742"/>
      <point x="60" y="734"/>
      <point x="60" y="719" type="curve" smooth="yes"/>
      <point x="60" y="25" type="line" smooth="yes"/>
      <point x="60" y="8"/>
      <point x="66" y="0"/>
      <point x="87" y="0" type="curve" smooth="yes"/>
      <point x="254" y="0" type="line" smooth="yes"/>
      <point x="277" y="0"/>
      <point x="287" y="8"/>
      <point x="287" y="29" type="curve" smooth="yes"/>
      <point x="287" y="563" type="line" smooth="yes"/>
      <point x="287" y="571"/>
      <point x="293" y="578"/>
      <point x="303" y="578" type="curve" smooth="yes"/>
      <point x="475" y="578" type="line" smooth="yes"/>
    </contour>
    <contour>
      <point x="544" y="0" type="move" name="bottomright"/>
    </contour>
  </outline>
</glyph>
<glyph name="uni0422" format="1">
  <advance width="704"/>
  <unicode hex="0422"/>
  <outline>
    <contour>
      <point x="28" y="586"/>
      <point x="37" y="581"/>
      <point x="51" y="581" type="curve" smooth="yes"/>
      <point x="227" y="581" type="line" smooth="yes"/>
      <point x="235" y="581"/>
      <point x="238" y="577"/>
      <point x="238" y="567" type="curve" smooth="yes"/>
      <point x="238" y="19" type="line" smooth="yes"/>
      <point x="238" y="7"/>
      <point x="246" y="0"/>
      <point x="261" y="0" type="curve" smooth="yes"/>
      <point x="446" y="0" type="line" smooth="yes"/>
      <point x="458" y="0"/>
      <point x="465" y="8"/>
      <point x="465" y="23" type="curve" smooth="yes"/>
      <point x="465" y="571" type="line" smooth="yes"/>
      <point x="465" y="578"/>
      <point x="469" y="581"/>
      <point x="477" y="581" type="curve" smooth="yes"/>
      <point x="654" y="581" type="line" smooth="yes"/>
      <point x="667" y="581"/>
      <point x="676" y="586"/>
      <point x="676" y="600" type="curve" smooth="yes"/>
      <point x="676" y="719" type="line" smooth="yes"/>
      <point x="676" y="732"/>
      <point x="668" y="742"/>
      <point x="651" y="742" type="curve" smooth="yes"/>
      <point x="53" y="742" type="line" smooth="yes"/>
      <point x="36" y="742"/>
      <point x="28" y="732"/>
      <point x="28" y="719" type="curve" smooth="yes"/>
      <point x="28" y="600" type="line" smooth="yes"/>
    </contour>
    <contour>
      <point x="352" y="742" type="move" name="top"/>
    </contour>
    <contour>
      <point x="352" y="0" type="move" name="bottom"/>
    </contour>
    <contour>
      <point x="261" y="0" type="move" name="bottomright"/>
    </contour>
  </outline>
</glyph>
<glyph name="uni0423" format="1">
  <advance width="709"/>
  <unicode hex="0423"/>
  <outline>
    <contour>
      <point x="142" y="2" type="line" smooth="yes"/>
      <point x="319" y="-28"/>
      <point x="418" y="40"/>
      <point x="490" y="217" type="curve" smooth="yes"/>
      <point x="703" y="742" type="line"/>
      <point x="516" y="742" type="line"/>
      <point x="331" y="267" type="line" smooth="yes"/>
      <point x="300" y="187"/>
      <point x="262" y="162"/>
      <point x="151" y="181" type="curve"/>
      <point x="122" y="184" type="line"/>
      <point x="108" y="7" type="line"/>
    </contour>
    <contour>
      <point x="456" y="438" type="line"/>
      <point x="403" y="451" type="line"/>
      <point x="398" y="441"/>
      <point x="395" y="441"/>
      <point x="391" y="450" type="curve" smooth="yes"/>
      <point x="251" y="742" type="line"/>
      <point x="8" y="742" type="line"/>
      <point x="314" y="172" type="line"/>
    </contour>
    <contour>
      <point x="358" y="742" type="move" name="top"/>
    </contour>
  </outline>
</glyph>
<glyph name="uni0424" format="1">
  <advance width="1043"/>
  <unicode hex="0424"/>
  <outline>
    <contour>
      <point x="619" y="-10" type="line" smooth="yes"/>
      <point x="631" y="-10"/>
      <point x="638" y="-2"/>
      <point x="638" y="13" type="curve" smooth="yes"/>
      <point x="638" y="89" type="line" smooth="yes"/>
      <point x="638" y="96"/>
      <point x="641" y="101"/>
      <point x="650" y="100" type="curve" smooth="yes"/>
      <point x="852" y="78"/>
      <point x="1012" y="172"/>
      <point x="1012" y="391" type="curve" smooth="yes"/>
      <point x="1012" y="573"/>
      <point x="887" y="678"/>
      <point x="657" y="659" type="curve" smooth="yes"/>
      <point x="645" y="658"/>
      <point x="638" y="664"/>
      <point x="638" y="679" type="curve" smooth="yes"/>
      <point x="638" y="733" type="line" smooth="yes"/>
      <point x="638" y="745"/>
      <point x="630" y="752"/>
      <point x="615" y="752" type="curve" smooth="yes"/>
      <point x="424" y="752" type="line" smooth="yes"/>
      <point x="412" y="752"/>
      <point x="405" y="744"/>
      <point x="405" y="729" type="curve" smooth="yes"/>
      <point x="405" y="675" type="line" smooth="yes"/>
      <point x="405" y="663"/>
      <point x="397" y="658"/>
      <point x="382" y="659" type="curve" smooth="yes"/>
      <point x="165" y="673"/>
      <point x="31" y="572"/>
      <point x="31" y="391" type="curve" smooth="yes"/>
      <point x="31" y="172"/>
      <point x="191" y="78"/>
      <point x="393" y="100" type="curve" smooth="yes"/>
      <point x="402" y="101"/>
      <point x="405" y="96"/>
      <point x="405" y="89" type="curve" smooth="yes"/>
      <point x="405" y="9" type="line" smooth="yes"/>
      <point x="405" y="-3"/>
      <point x="413" y="-10"/>
      <point x="428" y="-10" type="curve" smooth="yes"/>
    </contour>
    <contour>
      <point x="321" y="234"/>
      <point x="253" y="256"/>
      <point x="253" y="391" type="curve" smooth="yes"/>
      <point x="253" y="491"/>
      <point x="316" y="540"/>
      <point x="392" y="526" type="curve" smooth="yes"/>
      <point x="408" y="523"/>
      <point x="415" y="520"/>
      <point x="415" y="505" type="curve" smooth="yes"/>
      <point x="415" y="262" type="line" smooth="yes"/>
      <point x="415" y="247"/>
      <point x="411" y="241"/>
      <point x="398" y="240" type="curve" smooth="yes"/>
    </contour>
    <contour>
      <point x="632" y="241"/>
      <point x="628" y="247"/>
      <point x="628" y="262" type="curve" smooth="yes"/>
      <point x="628" y="505" type="line" smooth="yes"/>
      <point x="628" y="520"/>
      <point x="634" y="523"/>
      <point x="651" y="526" type="curve" smooth="yes"/>
      <point x="727" y="539"/>
      <point x="790" y="491"/>
      <point x="790" y="391" type="curve" smooth="yes"/>
      <point x="790" y="256"/>
      <point x="722" y="234"/>
      <point x="645" y="240" type="curve" smooth="yes"/>
    </contour>
  </outline>
</glyph>
<glyph name="uni0426" format="1">
  <advance width="813"/>
  <unicode hex="0426"/>
  <outline>
    <contour>
      <point x="659" y="0" type="line"/>
      <point x="670" y="0"/>
      <point x="678" y="8"/>
      <point x="678" y="23" type="curve" smooth="yes"/>
      <point x="678" y="717" type="line" smooth="yes"/>
      <point x="678" y="734"/>
      <point x="672" y="742"/>
      <point x="651" y="742" type="curve" smooth="yes"/>
      <point x="484" y="742" type="line" smooth="yes"/>
      <point x="461" y="742"/>
      <point x="451" y="734"/>
      <point x="451" y="713" type="curve" smooth="yes"/>
      <point x="451" y="187" type="line" smooth="yes"/>
      <point x="451" y="179"/>
      <point x="445" y="172"/>
      <point x="435" y="172" type="curve" smooth="yes"/>
      <point x="303" y="172" type="line" smooth="yes"/>
      <point x="293" y="172"/>
      <point x="287" y="179"/>
      <point x="287" y="187" type="curve" smooth="yes"/>
      <point x="287" y="713" type="line" smooth="yes"/>
      <point x="287" y="734"/>
      <point x="277" y="742"/>
      <point x="254" y="742" type="curve" smooth="yes"/>
      <point x="87" y="742" type="line" smooth="yes"/>
      <point x="66" y="742"/>
      <point x="60" y="734"/>
      <point x="60" y="717" type="curve" smooth="yes"/>
      <point x="60" y="23" type="line" smooth="yes"/>
      <point x="60" y="8"/>
      <point x="68" y="0"/>
      <point x="79" y="0" type="curve"/>
    </contour>
    <component base="__descendercy.case" xOffset="591"/>
  </outline>
</glyph>
<glyph name="uni0427" format="1">
  <advance width="750"/>
  <unicode hex="0427"/>
  <outline>
    <contour>
      <point x="671" y="0" type="line" smooth="yes"/>
      <point x="683" y="0"/>
      <point x="690" y="8"/>
      <point x="690" y="23" type="curve" smooth="yes"/>
      <point x="690" y="718" type="line" smooth="yes"/>
      <point x="690" y="733"/>
      <point x="682" y="742"/>
      <point x="668" y="742" type="curve" smooth="yes"/>
      <point x="485" y="742" type="line" smooth="yes"/>
      <point x="471" y="742"/>
      <point x="463" y="733"/>
      <point x="463" y="715" type="curve" smooth="yes"/>
      <point x="463" y="389" type="line"/>
      <point x="433" y="368"/>
      <point x="400" y="360"/>
      <point x="358" y="360" type="curve" smooth="yes"/>
      <point x="308" y="360"/>
      <point x="282" y="391"/>
      <point x="282" y="443" type="curve" smooth="yes"/>
      <point x="282" y="712" type="line" smooth="yes"/>
      <point x="282" y="735"/>
      <point x="275" y="742"/>
      <point x="255" y="742" type="curve" smooth="yes"/>
      <point x="89" y="742" type="line" smooth="yes"/>
      <point x="65" y="742"/>
      <point x="55" y="730"/>
      <point x="55" y="707" type="curve" smooth="yes"/>
      <point x="55" y="412" type="line" smooth="yes"/>
      <point x="55" y="276"/>
      <point x="126" y="197"/>
      <point x="252" y="197" type="curve" smooth="yes"/>
      <point x="318" y="197"/>
      <point x="373" y="204"/>
      <point x="448" y="229" type="curve"/>
      <point x="457" y="234"/>
      <point x="463" y="234"/>
      <point x="463" y="224" type="curve" smooth="yes"/>
      <point x="463" y="19" type="line" smooth="yes"/>
      <point x="463" y="7"/>
      <point x="471" y="0"/>
      <point x="486" y="0" type="curve" smooth="yes"/>
    </contour>
    <contour>
      <point x="354" y="280" type="move" name="center"/>
    </contour>
    <contour>
      <point x="516" y="0" type="move" name="bottomright"/>
    </contour>
    <contour>
      <point x="384" y="742" type="move" name="top"/>
    </contour>
  </outline>
</glyph>
<glyph name="uni0428" format="1">
  <advance width="1009"/>
  <unicode hex="0428"/>
  <outline>
    <contour>
      <point x="765" y="742" type="line" smooth="yes"/>
      <point x="742" y="742"/>
      <point x="732" y="734"/>
      <point x="732" y="713" type="curve" smooth="yes"/>
      <point x="732" y="187" type="line" smooth="yes"/>
      <point x="732" y="179"/>
      <point x="726" y="172"/>
      <point x="716" y="172" type="curve" smooth="yes"/>
      <point x="632" y="172" type="line" smooth="yes"/>
      <point x="620" y="172"/>
      <point x="613" y="180"/>
      <point x="613" y="195" type="curve" smooth="yes"/>
      <point x="613" y="717" type="line" smooth="yes"/>
      <point x="613" y="734"/>
      <point x="607" y="742"/>
      <point x="586" y="742" type="curve" smooth="yes"/>
      <point x="429" y="742" type="line" smooth="yes"/>
      <point x="406" y="742"/>
      <point x="396" y="734"/>
      <point x="396" y="713" type="curve" smooth="yes"/>
      <point x="396" y="191" type="line" smooth="yes"/>
      <point x="396" y="179"/>
      <point x="388" y="172"/>
      <point x="373" y="172" type="curve" smooth="yes"/>
      <point x="293" y="172" type="line" smooth="yes"/>
      <point x="283" y="172"/>
      <point x="277" y="179"/>
      <point x="277" y="187" type="curve" smooth="yes"/>
      <point x="277" y="713" type="line" smooth="yes"/>
      <point x="277" y="734"/>
      <point x="267" y="742"/>
      <point x="244" y="742" type="curve" smooth="yes"/>
      <point x="87" y="742" type="line" smooth="yes"/>
      <point x="66" y="742"/>
      <point x="60" y="734"/>
      <point x="60" y="717" type="curve" smooth="yes"/>
      <point x="60" y="23" type="line" smooth="yes"/>
      <point x="60" y="8"/>
      <point x="68" y="0"/>
      <point x="79" y="0" type="curve" smooth="yes"/>
      <point x="930" y="0" type="line" smooth="yes"/>
      <point x="941" y="0"/>
      <point x="949" y="8"/>
      <point x="949" y="23" type="curve" smooth="yes"/>
      <point x="949" y="717" type="line" smooth="yes"/>
      <point x="949" y="734"/>
      <point x="943" y="742"/>
      <point x="922" y="742" type="curve" smooth="yes"/>
    </contour>
  </outline>
</glyph>
<glyph name="uni042A" format="1">
  <advance width="867"/>
  <unicode hex="042A"/>
  <outline>
    <contour>
      <point x="607" y="194"/>
      <point x="570" y="160"/>
      <point x="524" y="160" type="curve" smooth="yes"/>
      <point x="458" y="160" type="line" smooth="yes"/>
      <point x="441" y="160"/>
      <point x="435" y="166"/>
      <point x="435" y="181" type="curve" smooth="yes"/>
      <point x="435" y="314" type="line" smooth="yes"/>
      <point x="435" y="329"/>
      <point x="439" y="336"/>
      <point x="452" y="336" type="curve" smooth="yes"/>
      <point x="530" y="336" type="line" smooth="yes"/>
      <point x="578" y="336"/>
      <point x="607" y="297"/>
      <point x="607" y="248" type="curve" smooth="yes"/>
    </contour>
    <contour>
      <point x="447" y="496" type="line" smooth="yes"/>
      <point x="438" y="496"/>
      <point x="435" y="500"/>
      <point x="435" y="507" type="curve" smooth="yes"/>
      <point x="435" y="713" type="line" smooth="yes"/>
      <point x="435" y="734"/>
      <point x="425" y="742"/>
      <point x="402" y="742" type="curve" smooth="yes"/>
      <point x="53" y="742" type="line" smooth="yes"/>
      <point x="36" y="742"/>
      <point x="28" y="732"/>
      <point x="28" y="719" type="curve" smooth="yes"/>
      <point x="28" y="600" type="line" smooth="yes"/>
      <point x="28" y="586"/>
      <point x="37" y="581"/>
      <point x="51" y="581" type="curve" smooth="yes"/>
      <point x="207" y="581" type="line" smooth="yes"/>
      <point x="215" y="581"/>
      <point x="218" y="577"/>
      <point x="218" y="567" type="curve" smooth="yes"/>
      <point x="218" y="23" type="line" smooth="yes"/>
      <point x="218" y="8"/>
      <point x="225" y="0"/>
      <point x="237" y="0" type="curve" smooth="yes"/>
      <point x="538" y="0" type="line" smooth="yes"/>
      <point x="702" y="0"/>
      <point x="839" y="83"/>
      <point x="839" y="251" type="curve" smooth="yes"/>
      <point x="839" y="403"/>
      <point x="727" y="496"/>
      <point x="564" y="496" type="curve" smooth="yes"/>
    </contour>
  </outline>
</glyph>
<glyph name="uni042B" format="1">
  <advance width="997"/>
  <unicode hex="042B"/>
  <outline>
    <contour>
      <point x="641" y="403"/>
      <point x="545" y="496"/>
      <point x="406" y="496" type="curve" smooth="yes"/>
      <point x="299" y="496" type="line" smooth="yes"/>
      <point x="290" y="496"/>
      <point x="287" y="500"/>
      <point x="287" y="507" type="curve" smooth="yes"/>
      <point x="287" y="713" type="line" smooth="yes"/>
      <point x="287" y="734"/>
      <point x="277" y="742"/>
      <point x="254" y="742" type="curve" smooth="yes"/>
      <point x="86" y="742" type="line" smooth="yes"/>
      <point x="66" y="742"/>
      <point x="60" y="734"/>
      <point x="60" y="717" type="curve" smooth="yes"/>
      <point x="60" y="23" type="line" smooth="yes"/>
      <point x="60" y="8"/>
      <point x="67" y="0"/>
      <point x="79" y="0" type="curve" smooth="yes"/>
      <point x="380" y="0" type="line" smooth="yes"/>
      <point x="522" y="0"/>
      <point x="641" y="83"/>
      <point x="641" y="251" type="curve" smooth="yes"/>
    </contour>
    <contour>
      <point x="449" y="194"/>
      <point x="412" y="160"/>
      <point x="366" y="160" type="curve" smooth="yes"/>
      <point x="310" y="160" type="line" smooth="yes"/>
      <point x="293" y="160"/>
      <point x="287" y="166"/>
      <point x="287" y="181" type="curve" smooth="yes"/>
      <point x="287" y="314" type="line" smooth="yes"/>
      <point x="287" y="329"/>
      <point x="291" y="336"/>
      <point x="304" y="336" type="curve" smooth="yes"/>
      <point x="372" y="336" type="line" smooth="yes"/>
      <point x="420" y="336"/>
      <point x="449" y="297"/>
      <point x="449" y="248" type="curve" smooth="yes"/>
    </contour>
    <contour>
      <point x="718" y="742"/>
      <point x="710" y="734"/>
      <point x="710" y="719" type="curve" smooth="yes"/>
      <point x="710" y="25" type="line" smooth="yes"/>
      <point x="710" y="8"/>
      <point x="716" y="0"/>
      <point x="737" y="0" type="curve" smooth="yes"/>
      <point x="904" y="0" type="line" smooth="yes"/>
      <point x="927" y="0"/>
      <point x="937" y="8"/>
      <point x="937" y="29" type="curve" smooth="yes"/>
      <point x="937" y="721" type="line" smooth="yes"/>
      <point x="937" y="734"/>
      <point x="931" y="742"/>
      <point x="919" y="742" type="curve" smooth="yes"/>
      <point x="729" y="742" type="line" smooth="yes"/>
    </contour>
    <contour>
      <point x="499" y="742" type="move" name="top"/>
    </contour>
  </outline>
</glyph>
<glyph name="uni042C" format="1">
  <advance width="739"/>
  <unicode hex="042C"/>
  <outline>
    <contour>
      <point x="711" y="403"/>
      <point x="599" y="496"/>
      <point x="436" y="496" type="curve" smooth="yes"/>
      <point x="299" y="496" type="line" smooth="yes"/>
      <point x="290" y="496"/>
      <point x="287" y="500"/>
      <point x="287" y="507" type="curve" smooth="yes"/>
      <point x="287" y="713" type="line" smooth="yes"/>
      <point x="287" y="734"/>
      <point x="277" y="742"/>
      <point x="254" y="742" type="curve" smooth="yes"/>
      <point x="86" y="742" type="line" smooth="yes"/>
      <point x="66" y="742"/>
      <point x="60" y="734"/>
      <point x="60" y="717" type="curve" smooth="yes"/>
      <point x="60" y="23" type="line" smooth="yes"/>
      <point x="60" y="8"/>
      <point x="67" y="0"/>
      <point x="79" y="0" type="curve" smooth="yes"/>
      <point x="410" y="0" type="line" smooth="yes"/>
      <point x="574" y="0"/>
      <point x="711" y="83"/>
      <point x="711" y="251" type="curve" smooth="yes"/>
    </contour>
    <contour>
      <point x="479" y="194"/>
      <point x="442" y="160"/>
      <point x="396" y="160" type="curve" smooth="yes"/>
      <point x="310" y="160" type="line" smooth="yes"/>
      <point x="293" y="160"/>
      <point x="287" y="166"/>
      <point x="287" y="181" type="curve" smooth="yes"/>
      <point x="287" y="314" type="line" smooth="yes"/>
      <point x="287" y="329"/>
      <point x="291" y="336"/>
      <point x="304" y="336" type="curve" smooth="yes"/>
      <point x="402" y="336" type="line" smooth="yes"/>
      <point x="450" y="336"/>
      <point x="479" y="297"/>
      <point x="479" y="248" type="curve" smooth="yes"/>
    </contour>
  </outline>
</glyph>
<glyph name="uni042D" format="1">
  <advance width="747"/>
  <unicode hex="042D"/>
  <outline>
    <contour>
      <point x="185" y="752"/>
      <point x="62" y="655"/>
      <point x="36" y="522" type="curve" smooth="yes"/>
      <point x="30" y="494"/>
      <point x="34" y="489"/>
      <point x="49" y="487" type="curve"/>
      <point x="224" y="476" type="line"/>
      <point x="239" y="476"/>
      <point x="240" y="481"/>
      <point x="243" y="495" type="curve" smooth="yes"/>
      <point x="255" y="553"/>
      <point x="282" y="598"/>
      <point x="351" y="598" type="curve" smooth="yes"/>
      <point x="441" y="598"/>
      <point x="499" y="540"/>
      <point x="499" y="377" type="curve" smooth="yes"/>
      <point x="499" y="212"/>
      <point x="450" y="154"/>
      <point x="352" y="154" type="curve" smooth="yes"/>
      <point x="283" y="154"/>
      <point x="230" y="183"/>
      <point x="194" y="271" type="curve" smooth="yes"/>
      <point x="191" y="279"/>
      <point x="182" y="282"/>
      <point x="166" y="279" type="curve" smooth="yes"/>
      <point x="41" y="254" type="line" smooth="yes"/>
      <point x="34" y="252"/>
      <point x="23" y="247"/>
      <point x="27" y="221" type="curve" smooth="yes"/>
      <point x="37" y="167"/>
      <point x="124" y="-10"/>
      <point x="359" y="-10" type="curve" smooth="yes"/>
      <point x="577" y="-10"/>
      <point x="717" y="155"/>
      <point x="717" y="381" type="curve" smooth="yes"/>
      <point x="717" y="606"/>
      <point x="577" y="752"/>
      <point x="357" y="752" type="curve" smooth="yes"/>
    </contour>
    <contour>
      <point x="619" y="451" type="line"/>
      <point x="320" y="451" type="line" smooth="yes"/>
      <point x="308" y="451"/>
      <point x="301" y="443"/>
      <point x="301" y="428" type="curve" smooth="yes"/>
      <point x="301" y="336" type="line" smooth="yes"/>
      <point x="301" y="319"/>
      <point x="307" y="311"/>
      <point x="327" y="311" type="curve" smooth="yes"/>
      <point x="619" y="311" type="line"/>
    </contour>
    <contour>
      <point x="364" y="742" type="move" name="top"/>
    </contour>
  </outline>
</glyph>
<glyph name="uni042E" format="1">
  <advance width="1108"/>
  <unicode hex="042E"/>
  <outline>
    <contour>
      <point x="473" y="469" type="line"/>
      <point x="305" y="469" type="line" smooth="yes"/>
      <point x="294" y="469"/>
      <point x="287" y="476"/>
      <point x="287" y="489" type="curve" smooth="yes"/>
      <point x="287" y="721" type="line" smooth="yes"/>
      <point x="287" y="734"/>
      <point x="280" y="742"/>
      <point x="269" y="742" type="curve" smooth="yes"/>
      <point x="79" y="742" type="line" smooth="yes"/>
      <point x="68" y="742"/>
      <point x="60" y="734"/>
      <point x="60" y="719" type="curve" smooth="yes"/>
      <point x="60" y="25" type="line" smooth="yes"/>
      <point x="60" y="8"/>
      <point x="66" y="0"/>
      <point x="87" y="0" type="curve" smooth="yes"/>
      <point x="254" y="0" type="line" smooth="yes"/>
      <point x="277" y="0"/>
      <point x="287" y="8"/>
      <point x="287" y="29" type="curve" smooth="yes"/>
      <point x="287" y="282" type="line" smooth="yes"/>
      <point x="287" y="290"/>
      <point x="293" y="297"/>
      <point x="303" y="297" type="curve" smooth="yes"/>
      <point x="475" y="297" type="line"/>
    </contour>
    <contour>
      <point x="937" y="-10"/>
      <point x="1077" y="139"/>
      <point x="1077" y="369" type="curve" smooth="yes"/>
      <point x="1077" y="601"/>
      <point x="934" y="752"/>
      <point x="719" y="752" type="curve" smooth="yes"/>
      <point x="514" y="752"/>
      <point x="379" y="601"/>
      <point x="379" y="369" type="curve" smooth="yes"/>
      <point x="379" y="138"/>
      <point x="510" y="-10"/>
      <point x="719" y="-10" type="curve" smooth="yes"/>
    </contour>
    <contour>
      <point x="637" y="146"/>
      <point x="607" y="206"/>
      <point x="607" y="366" type="curve" smooth="yes"/>
      <point x="607" y="531"/>
      <point x="639" y="598"/>
      <point x="719" y="598" type="curve" smooth="yes"/>
      <point x="804" y="598"/>
      <point x="839" y="531"/>
      <point x="839" y="366" type="curve" smooth="yes"/>
      <point x="839" y="206"/>
      <point x="806" y="146"/>
      <point x="719" y="146" type="curve" smooth="yes"/>
    </contour>
  </outline>
</glyph>
<glyph name="uni042F" format="1">
  <advance width="752"/>
  <unicode hex="042F"/>
  <outline>
    <contour>
      <point x="61" y="363"/>
      <point x="176" y="266"/>
      <point x="345" y="266" type="curve"/>
      <point x="345" y="246" type="line"/>
      <point x="453" y="246" type="line" smooth="yes"/>
      <point x="462" y="246"/>
      <point x="465" y="242"/>
      <point x="465" y="235" type="curve" smooth="yes"/>
      <point x="465" y="29" type="line" smooth="yes"/>
      <point x="465" y="8"/>
      <point x="475" y="0"/>
      <point x="498" y="0" type="curve" smooth="yes"/>
      <point x="666" y="0" type="line" smooth="yes"/>
      <point x="686" y="0"/>
      <point x="692" y="8"/>
      <point x="692" y="25" type="curve" smooth="yes"/>
      <point x="692" y="719" type="line" smooth="yes"/>
      <point x="692" y="734"/>
      <point x="685" y="742"/>
      <point x="673" y="742" type="curve" smooth="yes"/>
      <point x="352" y="742" type="line" smooth="yes"/>
      <point x="188" y="742"/>
      <point x="61" y="659"/>
      <point x="61" y="491" type="curve" smooth="yes"/>
    </contour>
    <contour>
      <point x="283" y="558"/>
      <point x="324" y="582"/>
      <point x="376" y="582" type="curve" smooth="yes"/>
      <point x="442" y="582" type="line" smooth="yes"/>
      <point x="459" y="582"/>
      <point x="465" y="576"/>
      <point x="465" y="561" type="curve" smooth="yes"/>
      <point x="465" y="428" type="line" smooth="yes"/>
      <point x="465" y="413"/>
      <point x="461" y="406"/>
      <point x="448" y="406" type="curve" smooth="yes"/>
      <point x="370" y="406" type="line" smooth="yes"/>
      <point x="316" y="406"/>
      <point x="283" y="445"/>
      <point x="283" y="494" type="curve" smooth="yes"/>
    </contour>
    <contour>
      <point x="230" y="350" type="line"/>
      <point x="55" y="31" type="line" smooth="yes"/>
      <point x="46" y="15"/>
      <point x="49" y="0"/>
      <point x="69" y="0" type="curve" smooth="yes"/>
      <point x="244" y="0" type="line" smooth="yes"/>
      <point x="261" y="0"/>
      <point x="272" y="5"/>
      <point x="280" y="20" type="curve" smooth="yes"/>
      <point x="415" y="283" type="line"/>
    </contour>
  </outline>
</glyph>
<glyph name="uni0430" format="1">
  <advance width="573"/>
  <unicode hex="0430"/>
  <outline>
    <component base="a"/>
    <contour>
      <point x="287" y="530" type="move" name="top"/>
    </contour>
  </outline>
</glyph>
<glyph name="uni0431" format="1">
  <advance width="629"/>
  <unicode hex="0431"/>
  <outline>
    <contour>
      <point x="492" y="-10"/>
      <point x="608" y="104"/>
      <point x="608" y="262" type="curve" smooth="yes"/>
      <point x="608" y="394"/>
      <point x="506" y="490"/>
      <point x="354" y="490" type="curve" smooth="yes"/>
      <point x="271" y="490"/>
      <point x="199" y="460"/>
      <point x="164" y="409" type="curve"/>
      <point x="77" y="397" type="line"/>
      <point x="40" y="292" type="line"/>
      <point x="40" y="115"/>
      <point x="155" y="-10"/>
      <point x="328" y="-10" type="curve" smooth="yes"/>
    </contour>
    <contour>
      <point x="273" y="118"/>
      <point x="247" y="163"/>
      <point x="247" y="256" type="curve" smooth="yes"/>
      <point x="247" y="351"/>
      <point x="273" y="396"/>
      <point x="329" y="396" type="curve" smooth="yes"/>
      <point x="384" y="396"/>
      <point x="410" y="351"/>
      <point x="410" y="256" type="curve" smooth="yes"/>
      <point x="410" y="162"/>
      <point x="384" y="118"/>
      <point x="329" y="118" type="curve" smooth="yes"/>
    </contour>
    <contour>
      <point x="170" y="302" type="line"/>
      <point x="170" y="398" type="line" smooth="yes"/>
      <point x="170" y="523"/>
      <point x="275" y="583"/>
      <point x="417" y="586" type="curve" smooth="yes"/>
      <point x="457" y="587"/>
      <point x="497" y="588"/>
      <point x="557" y="594" type="curve"/>
      <point x="541" y="772" type="line"/>
      <point x="484" y="749"/>
      <point x="448" y="750"/>
      <point x="385" y="743" type="curve" smooth="yes"/>
      <point x="145" y="717"/>
      <point x="40" y="565"/>
      <point x="40" y="337" type="curve" smooth="yes"/>
      <point x="40" y="292" type="line"/>
    </contour>
  </outline>
</glyph>
<glyph name="uni0432" format="1">
  <advance width="610"/>
  <unicode hex="0432"/>
  <outline>
    <contour>
      <point x="351" y="0" type="line" smooth="yes"/>
      <point x="491" y="0"/>
      <point x="570" y="55"/>
      <point x="570" y="152" type="curve" smooth="yes"/>
      <point x="570" y="203"/>
      <point x="542" y="247"/>
      <point x="476" y="268" type="curve" smooth="yes"/>
      <point x="470" y="270"/>
      <point x="470" y="277"/>
      <point x="476" y="279" type="curve" smooth="yes"/>
      <point x="538" y="300"/>
      <point x="555" y="337"/>
      <point x="555" y="382" type="curve" smooth="yes"/>
      <point x="555" y="474"/>
      <point x="479" y="530"/>
      <point x="336" y="530" type="curve" smooth="yes"/>
      <point x="50" y="530" type="line"/>
      <point x="50" y="0" type="line"/>
    </contour>
    <contour>
      <point x="236" y="120" type="line"/>
      <point x="236" y="209" type="line"/>
      <point x="340" y="209" type="line" smooth="yes"/>
      <point x="385" y="209"/>
      <point x="396" y="194"/>
      <point x="396" y="165" type="curve" smooth="yes"/>
      <point x="396" y="134"/>
      <point x="386" y="120"/>
      <point x="337" y="120" type="curve" smooth="yes"/>
    </contour>
    <contour>
      <point x="236" y="312" type="line"/>
      <point x="236" y="401" type="line"/>
      <point x="330" y="401" type="line" smooth="yes"/>
      <point x="375" y="401"/>
      <point x="386" y="386"/>
      <point x="386" y="356" type="curve" smooth="yes"/>
      <point x="386" y="326"/>
      <point x="376" y="312"/>
      <point x="327" y="312" type="curve" smooth="yes"/>
    </contour>
  </outline>
</glyph>
<glyph name="uni0433" format="1">
  <advance width="476"/>
  <unicode hex="0433"/>
  <outline>
    <contour>
      <point x="228" y="0" type="line" smooth="yes"/>
      <point x="241" y="0"/>
      <point x="250" y="6"/>
      <point x="250" y="19" type="curve" smooth="yes"/>
      <point x="250" y="382" type="line" smooth="yes"/>
      <point x="250" y="391"/>
      <point x="256" y="395"/>
      <point x="263" y="395" type="curve" smooth="yes"/>
      <point x="436" y="395" type="line" smooth="yes"/>
      <point x="453" y="395"/>
      <point x="461" y="404"/>
      <point x="461" y="417" type="curve" smooth="yes"/>
      <point x="461" y="511" type="line" smooth="yes"/>
      <point x="461" y="524"/>
      <point x="452" y="530"/>
      <point x="439" y="530" type="curve" smooth="yes"/>
      <point x="72" y="530" type="line" smooth="yes"/>
      <point x="59" y="530"/>
      <point x="50" y="524"/>
      <point x="50" y="511" type="curve" smooth="yes"/>
      <point x="50" y="22" type="line" smooth="yes"/>
      <point x="50" y="9"/>
      <point x="56" y="0"/>
      <point x="69" y="0" type="curve" smooth="yes"/>
    </contour>
    <contour>
      <point x="149" y="248" type="move" name="center"/>
    </contour>
    <contour>
      <point x="69" y="0" type="move" name="bottomright"/>
    </contour>
    <contour>
      <point x="298" y="530" type="move" name="top"/>
    </contour>
  </outline>
</glyph>
<glyph name="uni0434" format="1">
  <advance width="625"/>
  <unicode hex="0434"/>
  <outline>
    <contour>
      <point x="159" y="-110" type="line" smooth="yes"/>
      <point x="179" y="-110"/>
      <point x="187" y="-103"/>
      <point x="187" y="-85" type="curve" smooth="yes"/>
      <point x="187" y="-12" type="line" smooth="yes"/>
      <point x="187" y="-6"/>
      <point x="192" y="0"/>
      <point x="201" y="0" type="curve" smooth="yes"/>
      <point x="424" y="0" type="line" smooth="yes"/>
      <point x="433" y="0"/>
      <point x="438" y="-6"/>
      <point x="438" y="-12" type="curve" smooth="yes"/>
      <point x="438" y="-85" type="line" smooth="yes"/>
      <point x="438" y="-103"/>
      <point x="446" y="-110"/>
      <point x="466" y="-110" type="curve" smooth="yes"/>
      <point x="582" y="-110" type="line" smooth="yes"/>
      <point x="600" y="-110"/>
      <point x="605" y="-103"/>
      <point x="605" y="-89" type="curve" smooth="yes"/>
      <point x="605" y="117" type="line" smooth="yes"/>
      <point x="605" y="129"/>
      <point x="598" y="136"/>
      <point x="589" y="136" type="curve" smooth="yes"/>
      <point x="550" y="136" type="line"/>
      <point x="540" y="136"/>
      <point x="534" y="143"/>
      <point x="534" y="155" type="curve"/>
      <point x="534" y="509" type="line" smooth="yes"/>
      <point x="534" y="523"/>
      <point x="529" y="530"/>
      <point x="511" y="530" type="curve" smooth="yes"/>
      <point x="133" y="530" type="line" smooth="yes"/>
      <point x="124" y="530"/>
      <point x="117" y="523"/>
      <point x="117" y="511" type="curve"/>
      <point x="257" y="383" type="line"/>
      <point x="257" y="390"/>
      <point x="262" y="395"/>
      <point x="271" y="395" type="curve" smooth="yes"/>
      <point x="342" y="395" type="line" smooth="yes"/>
      <point x="350" y="395"/>
      <point x="355" y="390"/>
      <point x="355" y="383" type="curve" smooth="yes"/>
      <point x="355" y="148" type="line" smooth="yes"/>
      <point x="355" y="142"/>
      <point x="350" y="136"/>
      <point x="342" y="136" type="curve" smooth="yes"/>
      <point x="36" y="136" type="line" smooth="yes"/>
      <point x="27" y="136"/>
      <point x="20" y="129"/>
      <point x="20" y="117" type="curve" smooth="yes"/>
      <point x="20" y="-89" type="line" smooth="yes"/>
      <point x="20" y="-103"/>
      <point x="25" y="-110"/>
      <point x="43" y="-110" type="curve" smooth="yes"/>
    </contour>
    <contour>
      <point x="213" y="36"/>
      <point x="259" y="192"/>
      <point x="257" y="391" type="curve"/>
      <point x="257" y="511" type="line"/>
      <point x="117" y="511" type="line"/>
      <point x="117" y="396" type="line" smooth="yes"/>
      <point x="117" y="237"/>
      <point x="105" y="136"/>
      <point x="41" y="136" type="curve"/>
      <point x="40" y="65" type="line"/>
    </contour>
  </outline>
</glyph>
<glyph name="uni0436" format="1">
  <advance width="919"/>
  <unicode hex="0436"/>
  <outline>
    <contour>
      <point x="116" y="0" type="line" smooth="yes"/>
      <point x="193" y="0"/>
      <point x="242" y="18"/>
      <point x="258" y="96" type="curve" smooth="yes"/>
      <point x="272" y="166" type="line" smooth="yes"/>
      <point x="280" y="208"/>
      <point x="292" y="207"/>
      <point x="313" y="207" type="curve" smooth="yes"/>
      <point x="359" y="207" type="line"/>
      <point x="359" y="0" type="line"/>
      <point x="559" y="0" type="line"/>
      <point x="559" y="207" type="line"/>
      <point x="606" y="207" type="line" smooth="yes"/>
      <point x="627" y="207"/>
      <point x="639" y="208"/>
      <point x="647" y="166" type="curve" smooth="yes"/>
      <point x="661" y="96" type="line" smooth="yes"/>
      <point x="677" y="18"/>
      <point x="726" y="0"/>
      <point x="803" y="0" type="curve" smooth="yes"/>
      <point x="867" y="0" type="line" smooth="yes"/>
      <point x="879" y="0"/>
      <point x="882" y="3"/>
      <point x="882" y="15" type="curve" smooth="yes"/>
      <point x="882" y="96" type="line" smooth="yes"/>
      <point x="882" y="106"/>
      <point x="879" y="109"/>
      <point x="867" y="109" type="curve" smooth="yes"/>
      <point x="858" y="109"/>
      <point x="848" y="114"/>
      <point x="843" y="137" type="curve" smooth="yes"/>
      <point x="825" y="222" type="line" smooth="yes"/>
      <point x="816" y="265"/>
      <point x="768" y="291"/>
      <point x="702" y="297" type="curve"/>
      <point x="616" y="342" type="line"/>
      <point x="559" y="342" type="line"/>
      <point x="559" y="530" type="line"/>
      <point x="359" y="530" type="line"/>
      <point x="359" y="342" type="line"/>
      <point x="303" y="342" type="line"/>
      <point x="217" y="297" type="line"/>
      <point x="151" y="291"/>
      <point x="103" y="265"/>
      <point x="94" y="222" type="curve" smooth="yes"/>
      <point x="76" y="137" type="line" smooth="yes"/>
      <point x="71" y="114"/>
      <point x="61" y="109"/>
      <point x="52" y="109" type="curve" smooth="yes"/>
      <point x="40" y="109"/>
      <point x="37" y="106"/>
      <point x="37" y="96" type="curve" smooth="yes"/>
      <point x="37" y="15" type="line" smooth="yes"/>
      <point x="37" y="3"/>
      <point x="40" y="0"/>
      <point x="52" y="0" type="curve" smooth="yes"/>
    </contour>
    <contour>
      <point x="324" y="342" type="line"/>
      <point x="307" y="342"/>
      <point x="298" y="350"/>
      <point x="289" y="369" type="curve" smooth="yes"/>
      <point x="228" y="501" type="line" smooth="yes"/>
      <point x="220" y="518"/>
      <point x="210" y="530"/>
      <point x="189" y="530" type="curve" smooth="yes"/>
      <point x="61" y="530" type="line" smooth="yes"/>
      <point x="43" y="530"/>
      <point x="38" y="520"/>
      <point x="47" y="503" type="curve" smooth="yes"/>
      <point x="151" y="308" type="line" smooth="yes"/>
      <point x="158" y="296"/>
      <point x="159" y="286"/>
      <point x="150" y="281" type="curve"/>
      <point x="324" y="262" type="line"/>
    </contour>
    <contour>
      <point x="769" y="281" type="line"/>
      <point x="760" y="286"/>
      <point x="761" y="296"/>
      <point x="768" y="308" type="curve" smooth="yes"/>
      <point x="872" y="503" type="line" smooth="yes"/>
      <point x="881" y="520"/>
      <point x="876" y="530"/>
      <point x="858" y="530" type="curve" smooth="yes"/>
      <point x="730" y="530" type="line" smooth="yes"/>
      <point x="709" y="530"/>
      <point x="699" y="518"/>
      <point x="691" y="501" type="curve" smooth="yes"/>
      <point x="630" y="369" type="line" smooth="yes"/>
      <point x="621" y="350"/>
      <point x="617" y="342"/>
      <point x="584" y="342" type="curve"/>
      <point x="584" y="262" type="line"/>
    </contour>
    <contour>
      <point x="459" y="530" type="move" name="top"/>
    </contour>
    <contour>
      <point x="803" y="0" type="move" name="bottomright"/>
    </contour>
  </outline>
</glyph>
<glyph name="uni0437" format="1">
  <advance width="598"/>
  <unicode hex="0437"/>
  <outline>
    <contour>
      <point x="446" y="-7"/>
      <point x="558" y="52"/>
      <point x="558" y="152" type="curve" smooth="yes"/>
      <point x="558" y="212"/>
      <point x="528" y="249"/>
      <point x="476" y="273" type="curve" smooth="yes"/>
      <point x="464" y="278"/>
      <point x="466" y="287"/>
      <point x="477" y="290" type="curve" smooth="yes"/>
      <point x="523" y="303"/>
      <point x="545" y="343"/>
      <point x="546" y="390" type="curve" smooth="yes"/>
      <point x="547" y="478"/>
      <point x="463" y="539"/>
      <point x="306" y="539" type="curve" smooth="yes"/>
      <point x="158" y="539"/>
      <point x="70" y="474"/>
      <point x="46" y="376" type="curve" smooth="yes"/>
      <point x="41" y="354"/>
      <point x="46" y="347"/>
      <point x="58" y="346" type="curve" smooth="yes"/>
      <point x="202" y="336" type="line" smooth="yes"/>
      <point x="209" y="335"/>
      <point x="214" y="339"/>
      <point x="217" y="352" type="curve" smooth="yes"/>
      <point x="227" y="396"/>
      <point x="255" y="414"/>
      <point x="299" y="414" type="curve" smooth="yes"/>
      <point x="338" y="414"/>
      <point x="360" y="395"/>
      <point x="360" y="364" type="curve" smooth="yes"/>
      <point x="360" y="329"/>
      <point x="344" y="312"/>
      <point x="308" y="312" type="curve" smooth="yes"/>
      <point x="236" y="312" type="line"/>
      <point x="236" y="209" type="line"/>
      <point x="317" y="209" type="line" smooth="yes"/>
      <point x="354" y="209"/>
      <point x="367" y="193"/>
      <point x="367" y="166" type="curve" smooth="yes"/>
      <point x="367" y="133"/>
      <point x="341" y="113"/>
      <point x="279" y="113" type="curve" smooth="yes"/>
      <point x="217" y="113"/>
      <point x="186" y="134"/>
      <point x="166" y="186" type="curve" smooth="yes"/>
      <point x="161" y="199"/>
      <point x="153" y="201"/>
      <point x="139" y="198" type="curve" smooth="yes"/>
      <point x="53" y="182" type="line" smooth="yes"/>
      <point x="40" y="180"/>
      <point x="34" y="170"/>
      <point x="39" y="154" type="curve" smooth="yes"/>
      <point x="65" y="73"/>
      <point x="131" y="-7"/>
      <point x="297" y="-7" type="curve" smooth="yes"/>
    </contour>
    <contour>
      <point x="302" y="530" type="move" name="top"/>
    </contour>
    <contour>
      <point x="297" y="0" type="move" name="bottom"/>
    </contour>
  </outline>
</glyph>
<glyph name="uni0438" format="1">
  <advance width="637"/>
  <unicode hex="0438"/>
  <outline>
    <contour>
      <point x="240" y="522"/>
      <point x="233" y="530"/>
      <point x="222" y="530" type="curve" smooth="yes"/>
      <point x="69" y="530" type="line" smooth="yes"/>
      <point x="57" y="530"/>
      <point x="50" y="522"/>
      <point x="50" y="507" type="curve" smooth="yes"/>
      <point x="50" y="25" type="line" smooth="yes"/>
      <point x="50" y="8"/>
      <point x="56" y="0"/>
      <point x="76" y="0" type="curve" smooth="yes"/>
      <point x="207" y="0" type="line" smooth="yes"/>
      <point x="230" y="0"/>
      <point x="240" y="8"/>
      <point x="240" y="29" type="curve" smooth="yes"/>
      <point x="240" y="510" type="line" smooth="yes"/>
    </contour>
    <contour>
      <point x="587" y="522"/>
      <point x="580" y="530"/>
      <point x="569" y="530" type="curve" smooth="yes"/>
      <point x="416" y="530" type="line" smooth="yes"/>
      <point x="404" y="530"/>
      <point x="397" y="522"/>
      <point x="397" y="507" type="curve" smooth="yes"/>
      <point x="397" y="25" type="line" smooth="yes"/>
      <point x="397" y="8"/>
      <point x="403" y="0"/>
      <point x="423" y="0" type="curve" smooth="yes"/>
      <point x="554" y="0" type="line" smooth="yes"/>
      <point x="577" y="0"/>
      <point x="587" y="8"/>
      <point x="587" y="29" type="curve" smooth="yes"/>
      <point x="587" y="510" type="line" smooth="yes"/>
    </contour>
    <contour>
      <point x="121" y="73" type="line"/>
      <point x="234" y="8" type="line"/>
      <point x="513" y="457" type="line"/>
      <point x="400" y="521" type="line"/>
    </contour>
    <contour>
      <point x="318" y="530" type="move" name="top"/>
    </contour>
    <contour>
      <point x="554" y="0" type="move" name="bottomright"/>
    </contour>
  </outline>
</glyph>
<glyph name="uni043A" format="1">
  <advance width="626"/>
  <unicode hex="043A"/>
  <outline>
    <contour>
      <point x="241" y="0" type="line"/>
      <point x="241" y="207" type="line"/>
      <point x="308" y="207" type="line" smooth="yes"/>
      <point x="329" y="207"/>
      <point x="341" y="208"/>
      <point x="349" y="166" type="curve" smooth="yes"/>
      <point x="363" y="96" type="line" smooth="yes"/>
      <point x="379" y="18"/>
      <point x="428" y="0"/>
      <point x="505" y="0" type="curve" smooth="yes"/>
      <point x="569" y="0" type="line" smooth="yes"/>
      <point x="581" y="0"/>
      <point x="584" y="3"/>
      <point x="584" y="15" type="curve" smooth="yes"/>
      <point x="584" y="96" type="line" smooth="yes"/>
      <point x="584" y="106"/>
      <point x="581" y="109"/>
      <point x="569" y="109" type="curve" smooth="yes"/>
      <point x="560" y="109"/>
      <point x="550" y="114"/>
      <point x="545" y="137" type="curve" smooth="yes"/>
      <point x="527" y="222" type="line" smooth="yes"/>
      <point x="518" y="265"/>
      <point x="470" y="291"/>
      <point x="404" y="297" type="curve"/>
      <point x="318" y="342" type="line"/>
      <point x="241" y="342" type="line"/>
      <point x="241" y="530" type="line"/>
      <point x="41" y="530" type="line"/>
      <point x="41" y="0" type="line"/>
    </contour>
    <contour>
      <point x="471" y="281" type="line"/>
      <point x="462" y="286"/>
      <point x="463" y="296"/>
      <point x="470" y="308" type="curve" smooth="yes"/>
      <point x="584" y="503" type="line" smooth="yes"/>
      <point x="594" y="520"/>
      <point x="588" y="530"/>
      <point x="570" y="530" type="curve" smooth="yes"/>
      <point x="442" y="530" type="line" smooth="yes"/>
      <point x="421" y="530"/>
      <point x="412" y="518"/>
      <point x="403" y="501" type="curve" smooth="yes"/>
      <point x="332" y="369" type="line" smooth="yes"/>
      <point x="322" y="350"/>
      <point x="319" y="342"/>
      <point x="286" y="342" type="curve"/>
      <point x="286" y="262" type="line"/>
    </contour>
    <contour>
      <point x="324" y="265" type="move" name="center"/>
    </contour>
    <contour>
      <point x="606" y="0" type="move" name="bottomright"/>
    </contour>
    <contour>
      <point x="325" y="530" type="move" name="top"/>
    </contour>
  </outline>
</glyph>
<glyph name="uni043B" format="1">
  <advance width="635"/>
  <unicode hex="043B"/>
  <outline>
    <contour>
      <point x="197" y="-30"/>
      <point x="275" y="83"/>
      <point x="275" y="363" type="curve"/>
      <point x="275" y="395" type="line"/>
      <point x="385" y="395" type="line"/>
      <point x="385" y="0" type="line"/>
      <point x="585" y="0" type="line"/>
      <point x="585" y="530" type="line"/>
      <point x="132" y="530" type="line"/>
      <point x="132" y="404" type="line" smooth="yes"/>
      <point x="132" y="206"/>
      <point x="101" y="154"/>
      <point x="48" y="159" type="curve" smooth="yes"/>
      <point x="37" y="160"/>
      <point x="31" y="153"/>
      <point x="30" y="140" type="curve" smooth="yes"/>
      <point x="20" y="22" type="line"/>
      <point x="20" y="12"/>
      <point x="27" y="4"/>
      <point x="39" y="2" type="curve" smooth="yes"/>
    </contour>
    <contour>
      <point x="404" y="0" type="move" name="bottomright"/>
    </contour>
  </outline>
</glyph>
<glyph name="uni043C" format="1">
  <advance width="779"/>
  <unicode hex="043C"/>
  <outline>
    <contour>
      <point x="183" y="0" type="line" smooth="yes"/>
      <point x="196" y="0"/>
      <point x="205" y="6"/>
      <point x="205" y="19" type="curve" smooth="yes"/>
      <point x="205" y="309" type="line" smooth="yes"/>
      <point x="205" y="320"/>
      <point x="217" y="323"/>
      <point x="221" y="310" type="curve" smooth="yes"/>
      <point x="294" y="84" type="line"/>
      <point x="298" y="75"/>
      <point x="303" y="70"/>
      <point x="312" y="70" type="curve" smooth="yes"/>
      <point x="411" y="70" type="line" smooth="yes"/>
      <point x="420" y="70"/>
      <point x="427" y="75"/>
      <point x="430" y="84" type="curve" smooth="yes"/>
      <point x="514" y="316" type="line" smooth="yes"/>
      <point x="518" y="327"/>
      <point x="529" y="327"/>
      <point x="529" y="317" type="curve" smooth="yes"/>
      <point x="529" y="22" type="line" smooth="yes"/>
      <point x="529" y="9"/>
      <point x="535" y="0"/>
      <point x="548" y="0" type="curve" smooth="yes"/>
      <point x="707" y="0" type="line" smooth="yes"/>
      <point x="720" y="0"/>
      <point x="729" y="6"/>
      <point x="729" y="19" type="curve" smooth="yes"/>
      <point x="729" y="508" type="line" smooth="yes"/>
      <point x="729" y="521"/>
      <point x="723" y="530"/>
      <point x="710" y="530" type="curve" smooth="yes"/>
      <point x="500" y="530" type="line" smooth="yes"/>
      <point x="485" y="530"/>
      <point x="472" y="519"/>
      <point x="467" y="505" type="curve" smooth="yes"/>
      <point x="395" y="302" type="line" smooth="yes"/>
      <point x="391" y="290"/>
      <point x="382" y="291"/>
      <point x="379" y="302" type="curve" smooth="yes"/>
      <point x="314" y="515" type="line" smooth="yes"/>
      <point x="310" y="527"/>
      <point x="304" y="530"/>
      <point x="291" y="530" type="curve" smooth="yes"/>
      <point x="72" y="530" type="line" smooth="yes"/>
      <point x="59" y="530"/>
      <point x="50" y="524"/>
      <point x="50" y="511" type="curve" smooth="yes"/>
      <point x="50" y="22" type="line" smooth="yes"/>
      <point x="50" y="9"/>
      <point x="56" y="0"/>
      <point x="69" y="0" type="curve" smooth="yes"/>
    </contour>
  </outline>
</glyph>
<glyph name="uni043D" format="1">
  <advance width="627"/>
  <unicode hex="043D"/>
  <outline>
    <contour>
      <point x="250" y="522"/>
      <point x="243" y="530"/>
      <point x="232" y="530" type="curve" smooth="yes"/>
      <point x="69" y="530" type="line" smooth="yes"/>
      <point x="57" y="530"/>
      <point x="50" y="522"/>
      <point x="50" y="507" type="curve" smooth="yes"/>
      <point x="50" y="25" type="line" smooth="yes"/>
      <point x="50" y="8"/>
      <point x="56" y="0"/>
      <point x="76" y="0" type="curve" smooth="yes"/>
      <point x="217" y="0" type="line" smooth="yes"/>
      <point x="240" y="0"/>
      <point x="250" y="8"/>
      <point x="250" y="29" type="curve" smooth="yes"/>
      <point x="250" y="510" type="line" smooth="yes"/>
    </contour>
    <contour>
      <point x="577" y="522"/>
      <point x="570" y="530"/>
      <point x="559" y="530" type="curve" smooth="yes"/>
      <point x="396" y="530" type="line" smooth="yes"/>
      <point x="384" y="530"/>
      <point x="377" y="522"/>
      <point x="377" y="507" type="curve" smooth="yes"/>
      <point x="377" y="25" type="line" smooth="yes"/>
      <point x="377" y="8"/>
      <point x="383" y="0"/>
      <point x="403" y="0" type="curve" smooth="yes"/>
      <point x="544" y="0" type="line" smooth="yes"/>
      <point x="567" y="0"/>
      <point x="577" y="8"/>
      <point x="577" y="29" type="curve" smooth="yes"/>
      <point x="577" y="510" type="line" smooth="yes"/>
    </contour>
    <contour>
      <point x="472" y="207" type="line" smooth="yes"/>
      <point x="489" y="207"/>
      <point x="497" y="216"/>
      <point x="497" y="229" type="curve" smooth="yes"/>
      <point x="497" y="324" type="line" smooth="yes"/>
      <point x="497" y="337"/>
      <point x="488" y="343"/>
      <point x="475" y="343" type="curve"/>
      <point x="96" y="342" type="line"/>
      <point x="82" y="342"/>
      <point x="74" y="336"/>
      <point x="74" y="323" type="curve" smooth="yes"/>
      <point x="74" y="229" type="line" smooth="yes"/>
      <point x="74" y="216"/>
      <point x="81" y="207"/>
      <point x="98" y="207" type="curve" smooth="yes"/>
    </contour>
    <contour>
      <point x="396" y="0" type="move" name="bottomright"/>
    </contour>
  </outline>
</glyph>
<glyph name="uni043F" format="1">
  <advance width="627"/>
  <unicode hex="043F"/>
  <outline>
    <contour>
      <point x="250" y="522"/>
      <point x="243" y="530"/>
      <point x="232" y="530" type="curve" smooth="yes"/>
      <point x="69" y="530" type="line" smooth="yes"/>
      <point x="57" y="530"/>
      <point x="50" y="522"/>
      <point x="50" y="507" type="curve" smooth="yes"/>
      <point x="50" y="25" type="line" smooth="yes"/>
      <point x="50" y="8"/>
      <point x="56" y="0"/>
      <point x="76" y="0" type="curve" smooth="yes"/>
      <point x="217" y="0" type="line" smooth="yes"/>
      <point x="240" y="0"/>
      <point x="250" y="8"/>
      <point x="250" y="29" type="curve" smooth="yes"/>
      <point x="250" y="510" type="line" smooth="yes"/>
    </contour>
    <contour>
      <point x="577" y="522"/>
      <point x="570" y="530"/>
      <point x="559" y="530" type="curve" smooth="yes"/>
      <point x="396" y="530" type="line" smooth="yes"/>
      <point x="384" y="530"/>
      <point x="377" y="522"/>
      <point x="377" y="507" type="curve" smooth="yes"/>
      <point x="377" y="25" type="line" smooth="yes"/>
      <point x="377" y="8"/>
      <point x="383" y="0"/>
      <point x="403" y="0" type="curve" smooth="yes"/>
      <point x="544" y="0" type="line" smooth="yes"/>
      <point x="567" y="0"/>
      <point x="577" y="8"/>
      <point x="577" y="29" type="curve" smooth="yes"/>
      <point x="577" y="510" type="line" smooth="yes"/>
    </contour>
    <contour>
      <point x="502" y="394" type="line" smooth="yes"/>
      <point x="519" y="394"/>
      <point x="527" y="403"/>
      <point x="527" y="416" type="curve" smooth="yes"/>
      <point x="527" y="511" type="line" smooth="yes"/>
      <point x="527" y="524"/>
      <point x="518" y="530"/>
      <point x="505" y="530" type="curve"/>
      <point x="126" y="529" type="line"/>
      <point x="112" y="529"/>
      <point x="104" y="523"/>
      <point x="104" y="510" type="curve" smooth="yes"/>
      <point x="104" y="416" type="line" smooth="yes"/>
      <point x="104" y="403"/>
      <point x="111" y="394"/>
      <point x="128" y="394" type="curve" smooth="yes"/>
    </contour>
    <contour>
      <point x="396" y="0" type="move" name="bottomright"/>
    </contour>
  </outline>
</glyph>
<glyph name="uni0442" format="1">
  <advance width="533"/>
  <unicode hex="0442"/>
  <outline>
    <contour>
      <point x="510" y="395"/>
      <point x="518" y="404"/>
      <point x="518" y="417" type="curve" smooth="yes"/>
      <point x="518" y="512" type="line" smooth="yes"/>
      <point x="518" y="525"/>
      <point x="509" y="531"/>
      <point x="496" y="531" type="curve" smooth="yes"/>
      <point x="37" y="530" type="line" smooth="yes"/>
      <point x="23" y="530"/>
      <point x="15" y="524"/>
      <point x="15" y="511" type="curve" smooth="yes"/>
      <point x="15" y="417" type="line" smooth="yes"/>
      <point x="15" y="404"/>
      <point x="22" y="395"/>
      <point x="39" y="395" type="curve" smooth="yes"/>
      <point x="152" y="395" type="line" smooth="yes"/>
      <point x="164" y="395"/>
      <point x="167" y="389"/>
      <point x="167" y="377" type="curve" smooth="yes"/>
      <point x="167" y="22" type="line" smooth="yes"/>
      <point x="167" y="9"/>
      <point x="173" y="0"/>
      <point x="186" y="0" type="curve" smooth="yes"/>
      <point x="345" y="0" type="line" smooth="yes"/>
      <point x="358" y="0"/>
      <point x="367" y="6"/>
      <point x="367" y="19" type="curve" smooth="yes"/>
      <point x="367" y="382" type="line" smooth="yes"/>
      <point x="367" y="391"/>
      <point x="373" y="395"/>
      <point x="380" y="395" type="curve" smooth="yes"/>
      <point x="493" y="395" type="line" smooth="yes"/>
    </contour>
    <contour>
      <point x="186" y="0" type="move" name="bottomright"/>
    </contour>
  </outline>
</glyph>
<glyph name="uni0444" format="1">
  <advance width="902"/>
  <unicode hex="0444"/>
  <outline>
    <contour>
      <point x="532" y="-165" type="line" smooth="yes"/>
      <point x="544" y="-165"/>
      <point x="550" y="-158"/>
      <point x="550" y="-145" type="curve"/>
      <point x="550" y="30" type="line" smooth="yes"/>
      <point x="550" y="38"/>
      <point x="556" y="42"/>
      <point x="570" y="31" type="curve" smooth="yes"/>
      <point x="600" y="5"/>
      <point x="637" y="0"/>
      <point x="688" y="0" type="curve" smooth="yes"/>
      <point x="794" y="0"/>
      <point x="881" y="75"/>
      <point x="881" y="267" type="curve" smooth="yes"/>
      <point x="881" y="444"/>
      <point x="800" y="530"/>
      <point x="695" y="530" type="curve" smooth="yes"/>
      <point x="637" y="530"/>
      <point x="602" y="516"/>
      <point x="565" y="493" type="curve" smooth="yes"/>
      <point x="558" y="487"/>
      <point x="550" y="487"/>
      <point x="550" y="495" type="curve" smooth="yes"/>
      <point x="550" y="719" type="line" smooth="yes"/>
      <point x="550" y="734"/>
      <point x="542" y="742"/>
      <point x="531" y="742" type="curve" smooth="yes"/>
      <point x="369" y="742" type="line" smooth="yes"/>
      <point x="357" y="742"/>
      <point x="351" y="734"/>
      <point x="351" y="721" type="curve"/>
      <point x="351" y="495" type="line" smooth="yes"/>
      <point x="351" y="487"/>
      <point x="346" y="488"/>
      <point x="337" y="493" type="curve" smooth="yes"/>
      <point x="300" y="516"/>
      <point x="265" y="530"/>
      <point x="207" y="530" type="curve" smooth="yes"/>
      <point x="102" y="530"/>
      <point x="21" y="444"/>
      <point x="21" y="267" type="curve" smooth="yes"/>
      <point x="21" y="75"/>
      <point x="108" y="0"/>
      <point x="214" y="0" type="curve" smooth="yes"/>
      <point x="265" y="0"/>
      <point x="301" y="6"/>
      <point x="332" y="31" type="curve" smooth="yes"/>
      <point x="346" y="42"/>
      <point x="351" y="38"/>
      <point x="351" y="30" type="curve"/>
      <point x="353" y="-143" type="line"/>
      <point x="353" y="-158"/>
      <point x="361" y="-165"/>
      <point x="372" y="-165" type="curve" smooth="yes"/>
    </contour>
    <contour>
      <point x="248" y="121"/>
      <point x="222" y="155"/>
      <point x="222" y="273" type="curve" smooth="yes"/>
      <point x="222" y="379"/>
      <point x="246" y="409"/>
      <point x="292" y="409" type="curve" smooth="yes"/>
      <point x="325" y="409"/>
      <point x="352" y="394"/>
      <point x="352" y="373" type="curve" smooth="yes"/>
      <point x="351" y="141" type="line"/>
      <point x="336" y="129"/>
      <point x="319" y="121"/>
      <point x="292" y="121" type="curve" smooth="yes"/>
    </contour>
    <contour>
      <point x="583" y="121"/>
      <point x="565" y="129"/>
      <point x="550" y="141" type="curve"/>
      <point x="550" y="373" type="line" smooth="yes"/>
      <point x="550" y="394"/>
      <point x="577" y="409"/>
      <point x="610" y="409" type="curve" smooth="yes"/>
      <point x="656" y="409"/>
      <point x="680" y="379"/>
      <point x="680" y="273" type="curve" smooth="yes"/>
      <point x="680" y="155"/>
      <point x="654" y="121"/>
      <point x="610" y="121" type="curve" smooth="yes"/>
    </contour>
  </outline>
</glyph>
<glyph name="uni0446" format="1">
  <advance width="658"/>
  <unicode hex="0446"/>
  <outline>
    <contour>
      <point x="549" y="0" type="line"/>
      <point x="560" y="0"/>
      <point x="567" y="8"/>
      <point x="567" y="20" type="curve" smooth="yes"/>
      <point x="567" y="501" type="line" smooth="yes"/>
      <point x="567" y="522"/>
      <point x="557" y="530"/>
      <point x="534" y="530" type="curve" smooth="yes"/>
      <point x="398" y="530" type="line" smooth="yes"/>
      <point x="378" y="530"/>
      <point x="372" y="522"/>
      <point x="372" y="505" type="curve" smooth="yes"/>
      <point x="372" y="136" type="line"/>
      <point x="245" y="136" type="line"/>
      <point x="245" y="501" type="line" smooth="yes"/>
      <point x="245" y="522"/>
      <point x="235" y="530"/>
      <point x="212" y="530" type="curve" smooth="yes"/>
      <point x="76" y="530" type="line" smooth="yes"/>
      <point x="56" y="530"/>
      <point x="50" y="522"/>
      <point x="50" y="505" type="curve" smooth="yes"/>
      <point x="50" y="23" type="line" smooth="yes"/>
      <point x="50" y="8"/>
      <point x="57" y="0"/>
      <point x="69" y="0" type="curve"/>
    </contour>
    <component base="__descendercy" xOffset="481"/>
  </outline>
</glyph>
<glyph name="uni0447" format="1">
  <advance width="626"/>
  <unicode hex="0447"/>
  <outline>
    <contour>
      <point x="543" y="0" type="line" smooth="yes"/>
      <point x="566" y="0"/>
      <point x="576" y="8"/>
      <point x="576" y="29" type="curve" smooth="yes"/>
      <point x="576" y="510" type="line" smooth="yes"/>
      <point x="576" y="522"/>
      <point x="569" y="530"/>
      <point x="558" y="530" type="curve" smooth="yes"/>
      <point x="395" y="530" type="line" smooth="yes"/>
      <point x="383" y="530"/>
      <point x="376" y="522"/>
      <point x="376" y="507" type="curve" smooth="yes"/>
      <point x="376" y="298" type="line"/>
      <point x="357" y="287"/>
      <point x="333" y="282"/>
      <point x="302" y="282" type="curve" smooth="yes"/>
      <point x="270" y="282"/>
      <point x="250" y="300"/>
      <point x="250" y="330" type="curve" smooth="yes"/>
      <point x="250" y="505" type="line" smooth="yes"/>
      <point x="250" y="524"/>
      <point x="244" y="530"/>
      <point x="227" y="530" type="curve" smooth="yes"/>
      <point x="80" y="530" type="line" smooth="yes"/>
      <point x="59" y="530"/>
      <point x="50" y="520"/>
      <point x="50" y="500" type="curve" smooth="yes"/>
      <point x="50" y="306" type="line" smooth="yes"/>
      <point x="50" y="200"/>
      <point x="107" y="141"/>
      <point x="206" y="141" type="curve" smooth="yes"/>
      <point x="259" y="141"/>
      <point x="304" y="149"/>
      <point x="363" y="179" type="curve" smooth="yes"/>
      <point x="371" y="183"/>
      <point x="376" y="183"/>
      <point x="376" y="175" type="curve" smooth="yes"/>
      <point x="376" y="25" type="line" smooth="yes"/>
      <point x="376" y="8"/>
      <point x="382" y="0"/>
      <point x="402" y="0" type="curve" smooth="yes"/>
    </contour>
    <contour>
      <point x="298" y="221" type="move" name="center"/>
    </contour>
    <contour>
      <point x="395" y="0" type="move" name="bottomright"/>
    </contour>
    <contour>
      <point x="318" y="530" type="move" name="top"/>
    </contour>
  </outline>
</glyph>
<glyph name="uni0449" format="1">
  <advance width="911"/>
  <unicode hex="0449"/>
  <outline>
    <contour>
      <point x="663" y="530" type="line" smooth="yes"/>
      <point x="640" y="530"/>
      <point x="630" y="522"/>
      <point x="630" y="501" type="curve" smooth="yes"/>
      <point x="630" y="158" type="line" smooth="yes"/>
      <point x="630" y="145"/>
      <point x="624" y="136"/>
      <point x="611" y="136" type="curve" smooth="yes"/>
      <point x="552" y="136" type="line" smooth="yes"/>
      <point x="539" y="136"/>
      <point x="530" y="142"/>
      <point x="530" y="155" type="curve" smooth="yes"/>
      <point x="530" y="505" type="line" smooth="yes"/>
      <point x="530" y="522"/>
      <point x="524" y="530"/>
      <point x="504" y="530" type="curve" smooth="yes"/>
      <point x="373" y="530" type="line" smooth="yes"/>
      <point x="350" y="530"/>
      <point x="340" y="522"/>
      <point x="340" y="501" type="curve" smooth="yes"/>
      <point x="340" y="158" type="line" smooth="yes"/>
      <point x="340" y="145"/>
      <point x="334" y="136"/>
      <point x="321" y="136" type="curve" smooth="yes"/>
      <point x="262" y="136" type="line" smooth="yes"/>
      <point x="249" y="136"/>
      <point x="240" y="142"/>
      <point x="240" y="155" type="curve" smooth="yes"/>
      <point x="240" y="505" type="line" smooth="yes"/>
      <point x="240" y="522"/>
      <point x="234" y="530"/>
      <point x="214" y="530" type="curve" smooth="yes"/>
      <point x="83" y="530" type="line" smooth="yes"/>
      <point x="60" y="530"/>
      <point x="50" y="522"/>
      <point x="50" y="501" type="curve" smooth="yes"/>
      <point x="50" y="20" type="line" smooth="yes"/>
      <point x="50" y="8"/>
      <point x="57" y="0"/>
      <point x="68" y="0" type="curve" smooth="yes"/>
      <point x="801" y="0" type="line" smooth="yes"/>
      <point x="813" y="0"/>
      <point x="820" y="8"/>
      <point x="820" y="23" type="curve" smooth="yes"/>
      <point x="820" y="505" type="line" smooth="yes"/>
      <point x="820" y="522"/>
      <point x="814" y="530"/>
      <point x="794" y="530" type="curve" smooth="yes"/>
    </contour>
    <component base="__descendercy" xOffset="734"/>
  </outline>
</glyph>
<glyph name="uni044A" format="1">
  <advance width="697"/>
  <unicode hex="044A"/>
  <outline>
    <contour>
      <point x="398" y="0" type="line" smooth="yes"/>
      <point x="582" y="0"/>
      <point x="667" y="53"/>
      <point x="667" y="188" type="curve" smooth="yes"/>
      <point x="667" y="285"/>
      <point x="623" y="368"/>
      <point x="434" y="368" type="curve" smooth="yes"/>
      <point x="377" y="368" type="line" smooth="yes"/>
      <point x="365" y="368"/>
      <point x="358" y="376"/>
      <point x="358" y="391" type="curve" smooth="yes"/>
      <point x="358" y="511" type="line" smooth="yes"/>
      <point x="358" y="523"/>
      <point x="350" y="530"/>
      <point x="335" y="530" type="curve" smooth="yes"/>
      <point x="37" y="530" type="line" smooth="yes"/>
      <point x="23" y="530"/>
      <point x="15" y="524"/>
      <point x="15" y="511" type="curve" smooth="yes"/>
      <point x="15" y="417" type="line" smooth="yes"/>
      <point x="15" y="404"/>
      <point x="22" y="395"/>
      <point x="39" y="395" type="curve" smooth="yes"/>
      <point x="157" y="395" type="line" smooth="yes"/>
      <point x="169" y="395"/>
      <point x="172" y="389"/>
      <point x="172" y="377" type="curve" smooth="yes"/>
      <point x="172" y="19" type="line" smooth="yes"/>
      <point x="172" y="7"/>
      <point x="180" y="0"/>
      <point x="195" y="0" type="curve" smooth="yes"/>
    </contour>
    <contour>
      <point x="358" y="254" type="line"/>
      <point x="407" y="254" type="line" smooth="yes"/>
      <point x="450" y="254"/>
      <point x="473" y="232"/>
      <point x="473" y="187" type="curve" smooth="yes"/>
      <point x="473" y="141"/>
      <point x="451" y="120"/>
      <point x="404" y="120" type="curve" smooth="yes"/>
      <point x="358" y="120" type="line"/>
    </contour>
  </outline>
</glyph>
<glyph name="uni044B" format="1">
  <advance width="830"/>
  <unicode hex="044B"/>
  <outline>
    <contour>
      <point x="266" y="0" type="line" smooth="yes"/>
      <point x="455" y="0"/>
      <point x="515" y="53"/>
      <point x="515" y="188" type="curve" smooth="yes"/>
      <point x="515" y="285"/>
      <point x="455" y="368"/>
      <point x="302" y="368" type="curve" smooth="yes"/>
      <point x="236" y="368" type="line"/>
      <point x="236" y="530" type="line"/>
      <point x="50" y="530" type="line"/>
      <point x="50" y="0" type="line"/>
    </contour>
    <contour>
      <point x="236" y="254" type="line"/>
      <point x="285" y="254" type="line" smooth="yes"/>
      <point x="328" y="254"/>
      <point x="351" y="232"/>
      <point x="351" y="187" type="curve" smooth="yes"/>
      <point x="351" y="141"/>
      <point x="329" y="120"/>
      <point x="282" y="120" type="curve" smooth="yes"/>
      <point x="236" y="120" type="line"/>
    </contour>
    <component base="dotlessi" xOffset="539"/>
    <contour>
      <point x="424" y="530" type="move" name="top"/>
    </contour>
  </outline>
</glyph>
<glyph name="uni044C" format="1">
  <advance width="595"/>
  <unicode hex="044C"/>
  <outline>
    <contour>
      <point x="296" y="0" type="line" smooth="yes"/>
      <point x="480" y="0"/>
      <point x="565" y="53"/>
      <point x="565" y="188" type="curve" smooth="yes"/>
      <point x="565" y="285"/>
      <point x="521" y="368"/>
      <point x="332" y="368" type="curve" smooth="yes"/>
      <point x="236" y="368" type="line"/>
      <point x="236" y="530" type="line"/>
      <point x="50" y="530" type="line"/>
      <point x="50" y="0" type="line"/>
    </contour>
    <contour>
      <point x="236" y="254" type="line"/>
      <point x="305" y="254" type="line" smooth="yes"/>
      <point x="348" y="254"/>
      <point x="371" y="232"/>
      <point x="371" y="187" type="curve" smooth="yes"/>
      <point x="371" y="141"/>
      <point x="349" y="120"/>
      <point x="302" y="120" type="curve" smooth="yes"/>
      <point x="236" y="120" type="line"/>
    </contour>
  </outline>
</glyph>
<glyph name="uni044D" format="1">
  <advance width="559"/>
  <unicode hex="044D"/>
  <outline>
    <contour>
      <point x="112" y="540"/>
      <point x="30" y="447"/>
      <point x="13" y="370" type="curve" smooth="yes"/>
      <point x="8" y="353"/>
      <point x="14" y="345"/>
      <point x="31" y="344" type="curve" smooth="yes"/>
      <point x="158" y="337" type="line" smooth="yes"/>
      <point x="169" y="336"/>
      <point x="172" y="340"/>
      <point x="175" y="351" type="curve" smooth="yes"/>
      <point x="183" y="385"/>
      <point x="211" y="414"/>
      <point x="256" y="414" type="curve" smooth="yes"/>
      <point x="317" y="414"/>
      <point x="346" y="372"/>
      <point x="346" y="265" type="curve" smooth="yes"/>
      <point x="346" y="154"/>
      <point x="308" y="114"/>
      <point x="245" y="114" type="curve" smooth="yes"/>
      <point x="184" y="114"/>
      <point x="158" y="145"/>
      <point x="136" y="193" type="curve" smooth="yes"/>
      <point x="134" y="198"/>
      <point x="129" y="200"/>
      <point x="116" y="198" type="curve" smooth="yes"/>
      <point x="22" y="180" type="line" smooth="yes"/>
      <point x="11" y="178"/>
      <point x="9" y="172"/>
      <point x="13" y="157" type="curve" smooth="yes"/>
      <point x="23" y="105"/>
      <point x="92" y="-10"/>
      <point x="261" y="-10" type="curve" smooth="yes"/>
      <point x="421" y="-10"/>
      <point x="538" y="101"/>
      <point x="538" y="263" type="curve" smooth="yes"/>
      <point x="538" y="428"/>
      <point x="419" y="540"/>
      <point x="261" y="540" type="curve" smooth="yes"/>
    </contour>
    <contour>
      <point x="439" y="326" type="line"/>
      <point x="191" y="327" type="line"/>
      <point x="191" y="229" type="line"/>
      <point x="439" y="229" type="line"/>
    </contour>
    <contour>
      <point x="263" y="530" type="move" name="top"/>
    </contour>
  </outline>
</glyph>
<glyph name="uni044E" format="1">
  <advance width="879"/>
  <unicode hex="044E"/>
  <outline>
    <contour>
      <point x="250" y="522"/>
      <point x="243" y="530"/>
      <point x="232" y="530" type="curve" smooth="yes"/>
      <point x="69" y="530" type="line" smooth="yes"/>
      <point x="57" y="530"/>
      <point x="50" y="522"/>
      <point x="50" y="507" type="curve" smooth="yes"/>
      <point x="50" y="25" type="line" smooth="yes"/>
      <point x="50" y="8"/>
      <point x="56" y="0"/>
      <point x="76" y="0" type="curve" smooth="yes"/>
      <point x="217" y="0" type="line" smooth="yes"/>
      <point x="240" y="0"/>
      <point x="250" y="8"/>
      <point x="250" y="29" type="curve" smooth="yes"/>
      <point x="250" y="510" type="line" smooth="yes"/>
    </contour>
    <contour>
      <point x="472" y="207" type="line" smooth="yes"/>
      <point x="489" y="207"/>
      <point x="497" y="216"/>
      <point x="497" y="229" type="curve" smooth="yes"/>
      <point x="497" y="324" type="line" smooth="yes"/>
      <point x="497" y="337"/>
      <point x="488" y="343"/>
      <point x="475" y="343" type="curve"/>
      <point x="96" y="342" type="line"/>
      <point x="82" y="342"/>
      <point x="74" y="336"/>
      <point x="74" y="323" type="curve" smooth="yes"/>
      <point x="74" y="229" type="line" smooth="yes"/>
      <point x="74" y="216"/>
      <point x="81" y="207"/>
      <point x="98" y="207" type="curve" smooth="yes"/>
    </contour>
    <contour>
      <point x="743" y="-10"/>
      <point x="858" y="104"/>
      <point x="858" y="262" type="curve" smooth="yes"/>
      <point x="858" y="423"/>
      <point x="746" y="540"/>
      <point x="579" y="540" type="curve" smooth="yes"/>
      <point x="427" y="540"/>
      <point x="310" y="429"/>
      <point x="310" y="262" type="curve" smooth="yes"/>
      <point x="310" y="103"/>
      <point x="420" y="-10"/>
      <point x="578" y="-10" type="curve" smooth="yes"/>
    </contour>
    <contour>
      <point x="533" y="118"/>
      <point x="512" y="162"/>
      <point x="512" y="266" type="curve" smooth="yes"/>
      <point x="512" y="371"/>
      <point x="533" y="416"/>
      <point x="579" y="416" type="curve" smooth="yes"/>
      <point x="633" y="416"/>
      <point x="656" y="371"/>
      <point x="656" y="266" type="curve" smooth="yes"/>
      <point x="656" y="163"/>
      <point x="633" y="118"/>
      <point x="579" y="118" type="curve" smooth="yes"/>
    </contour>
  </outline>
</glyph>
<glyph name="uni044F" format="1">
  <advance width="606"/>
  <unicode hex="044F"/>
  <outline>
    <contour>
      <point x="556" y="0" type="line"/>
      <point x="556" y="530" type="line"/>
      <point x="288" y="530" type="line" smooth="yes"/>
      <point x="141" y="530"/>
      <point x="59" y="465"/>
      <point x="59" y="353" type="curve" smooth="yes"/>
      <point x="59" y="223"/>
      <point x="197" y="162"/>
      <point x="312" y="162" type="curve" smooth="yes"/>
      <point x="370" y="162" type="line"/>
      <point x="370" y="0" type="line"/>
    </contour>
    <contour>
      <point x="202" y="0" type="line" smooth="yes"/>
      <point x="212" y="0"/>
      <point x="226" y="5"/>
      <point x="233" y="17" type="curve" smooth="yes"/>
      <point x="308" y="144" type="line" smooth="yes"/>
      <point x="314" y="155"/>
      <point x="326" y="162"/>
      <point x="339" y="162" type="curve"/>
      <point x="174" y="210" type="line"/>
      <point x="43" y="33" type="line" smooth="yes"/>
      <point x="31" y="16"/>
      <point x="34" y="0"/>
      <point x="58" y="0" type="curve" smooth="yes"/>
    </contour>
    <contour>
      <point x="266" y="276"/>
      <point x="243" y="298"/>
      <point x="243" y="343" type="curve" smooth="yes"/>
      <point x="243" y="389"/>
      <point x="265" y="410"/>
      <point x="312" y="410" type="curve" smooth="yes"/>
      <point x="370" y="410" type="line"/>
      <point x="370" y="276" type="line"/>
      <point x="309" y="276" type="line" smooth="yes"/>
    </contour>
  </outline>
</glyph>
